%TF.GenerationSoftware,KiCad,Pcbnew,7.0.9*%
%TF.CreationDate,2024-02-19T11:32:55-03:00*%
%TF.ProjectId,iSTF,69535446-2e6b-4696-9361-645f70636258,rev?*%
%TF.SameCoordinates,Original*%
%TF.FileFunction,Soldermask,Top*%
%TF.FilePolarity,Negative*%
%FSLAX46Y46*%
G04 Gerber Fmt 4.6, Leading zero omitted, Abs format (unit mm)*
G04 Created by KiCad (PCBNEW 7.0.9) date 2024-02-19 11:32:55*
%MOMM*%
%LPD*%
G01*
G04 APERTURE LIST*
G04 Aperture macros list*
%AMRoundRect*
0 Rectangle with rounded corners*
0 $1 Rounding radius*
0 $2 $3 $4 $5 $6 $7 $8 $9 X,Y pos of 4 corners*
0 Add a 4 corners polygon primitive as box body*
4,1,4,$2,$3,$4,$5,$6,$7,$8,$9,$2,$3,0*
0 Add four circle primitives for the rounded corners*
1,1,$1+$1,$2,$3*
1,1,$1+$1,$4,$5*
1,1,$1+$1,$6,$7*
1,1,$1+$1,$8,$9*
0 Add four rect primitives between the rounded corners*
20,1,$1+$1,$2,$3,$4,$5,0*
20,1,$1+$1,$4,$5,$6,$7,0*
20,1,$1+$1,$6,$7,$8,$9,0*
20,1,$1+$1,$8,$9,$2,$3,0*%
G04 Aperture macros list end*
%ADD10RoundRect,0.250000X0.475000X-0.337500X0.475000X0.337500X-0.475000X0.337500X-0.475000X-0.337500X0*%
%ADD11RoundRect,0.250000X-0.337500X-0.475000X0.337500X-0.475000X0.337500X0.475000X-0.337500X0.475000X0*%
%ADD12RoundRect,0.250000X0.337500X0.475000X-0.337500X0.475000X-0.337500X-0.475000X0.337500X-0.475000X0*%
%ADD13C,4.300000*%
%ADD14O,3.000000X2.500000*%
%ADD15C,1.500000*%
%ADD16C,1.440000*%
%ADD17R,1.700000X1.700000*%
%ADD18O,1.700000X1.700000*%
%ADD19R,1.600000X1.600000*%
%ADD20C,1.600000*%
%ADD21R,2.100000X2.100000*%
%ADD22C,2.100000*%
%ADD23O,1.500000X2.000000*%
%ADD24C,2.000000*%
%ADD25RoundRect,0.250001X1.399999X-1.099999X1.399999X1.099999X-1.399999X1.099999X-1.399999X-1.099999X0*%
%ADD26O,3.300000X2.700000*%
%ADD27R,2.000000X2.000000*%
G04 APERTURE END LIST*
D10*
%TO.C,C9*%
X150030000Y-84179611D03*
X150030000Y-82104611D03*
%TD*%
D11*
%TO.C,C11*%
X132472500Y-79522111D03*
X134547500Y-79522111D03*
%TD*%
D12*
%TO.C,C6*%
X147317500Y-86292111D03*
X145242500Y-86292111D03*
%TD*%
%TO.C,C5*%
X147317500Y-89132111D03*
X145242500Y-89132111D03*
%TD*%
D13*
%TO.C,H4*%
X196200000Y-133100000D03*
%TD*%
D14*
%TO.C,SW4*%
X142700000Y-126462111D03*
X155200000Y-126462111D03*
X142700000Y-131462111D03*
X155200000Y-131462111D03*
%TD*%
D13*
%TO.C,H3*%
X101600000Y-133000000D03*
%TD*%
D14*
%TO.C,SW1*%
X166950000Y-110402111D03*
X179450000Y-110402111D03*
X166950000Y-115402111D03*
X179450000Y-115402111D03*
%TD*%
D12*
%TO.C,C7*%
X147317500Y-84212111D03*
X145242500Y-84212111D03*
%TD*%
D13*
%TO.C,H2*%
X196300000Y-66800000D03*
%TD*%
D14*
%TO.C,SW2*%
X118470000Y-110392111D03*
X130970000Y-110392111D03*
X118470000Y-115392111D03*
X130970000Y-115392111D03*
%TD*%
D11*
%TO.C,C8*%
X149942500Y-86292111D03*
X152017500Y-86292111D03*
%TD*%
D13*
%TO.C,H1*%
X101700000Y-66800000D03*
%TD*%
D15*
%TO.C,Y1*%
X138530000Y-79532111D03*
X138530000Y-84412111D03*
%TD*%
D14*
%TO.C,SW3*%
X142700000Y-94332111D03*
X155200000Y-94332111D03*
X142700000Y-99332111D03*
X155200000Y-99332111D03*
%TD*%
D11*
%TO.C,C12*%
X132472500Y-84402111D03*
X134547500Y-84402111D03*
%TD*%
D16*
%TO.C,RV1*%
X121400000Y-67300000D03*
X118860000Y-72380000D03*
X116320000Y-67300000D03*
%TD*%
D17*
%TO.C,J4*%
X130400000Y-65907888D03*
D18*
X132940000Y-65907888D03*
X135480000Y-65907888D03*
X138020000Y-65907888D03*
X140560000Y-65907888D03*
X143100000Y-65907888D03*
X145640000Y-65907888D03*
X148180000Y-65907888D03*
X150720000Y-65907888D03*
X153260000Y-65907888D03*
X155800000Y-65907888D03*
X158340000Y-65907888D03*
X160880000Y-65907888D03*
X163420000Y-65907888D03*
X165960000Y-65907888D03*
X168500000Y-65907888D03*
%TD*%
D19*
%TO.C,C1*%
X183905113Y-122000000D03*
D20*
X181405113Y-122000000D03*
%TD*%
D17*
%TO.C,J1*%
X169630000Y-91822111D03*
D18*
X167090000Y-91822111D03*
X164550000Y-91822111D03*
X162010000Y-91822111D03*
%TD*%
D21*
%TO.C,J3*%
X113400000Y-77710914D03*
D22*
X113400000Y-97710914D03*
%TD*%
D23*
%TO.C,J5*%
X196000000Y-115900000D03*
D24*
X191600000Y-115900000D03*
%TD*%
D25*
%TO.C,J2*%
X188250000Y-101200000D03*
D26*
X188250000Y-97000000D03*
X182750000Y-101200000D03*
X182750000Y-97000000D03*
%TD*%
D27*
%TO.C,BZ1*%
X105300000Y-114332111D03*
D24*
X105300000Y-121932111D03*
%TD*%
M02*
