%TF.GenerationSoftware,KiCad,Pcbnew,7.0.9*%
%TF.CreationDate,2024-02-19T11:32:55-03:00*%
%TF.ProjectId,iSTF,69535446-2e6b-4696-9361-645f70636258,rev?*%
%TF.SameCoordinates,Original*%
%TF.FileFunction,Legend,Top*%
%TF.FilePolarity,Positive*%
%FSLAX46Y46*%
G04 Gerber Fmt 4.6, Leading zero omitted, Abs format (unit mm)*
G04 Created by KiCad (PCBNEW 7.0.9) date 2024-02-19 11:32:55*
%MOMM*%
%LPD*%
G01*
G04 APERTURE LIST*
%ADD10C,0.150000*%
%ADD11C,0.125000*%
%ADD12C,0.120000*%
G04 APERTURE END LIST*
D10*
G36*
X113525178Y-129006542D02*
G01*
X113574790Y-129008145D01*
X113625074Y-129010816D01*
X113676029Y-129014556D01*
X113727656Y-129019365D01*
X113766817Y-129023673D01*
X113806355Y-129028581D01*
X113846272Y-129034091D01*
X113886566Y-129040202D01*
X113927190Y-129046825D01*
X113967727Y-129054238D01*
X114008179Y-129062441D01*
X114048545Y-129071434D01*
X114088825Y-129081217D01*
X114129019Y-129091791D01*
X114169127Y-129103154D01*
X114209150Y-129115307D01*
X114249086Y-129128250D01*
X114288937Y-129141982D01*
X114315457Y-129151577D01*
X114355219Y-129166712D01*
X114394637Y-129182809D01*
X114433712Y-129199868D01*
X114472444Y-129217889D01*
X114510832Y-129236871D01*
X114548876Y-129256815D01*
X114586578Y-129277720D01*
X114623935Y-129299588D01*
X114660950Y-129322417D01*
X114697620Y-129346208D01*
X114721877Y-129362602D01*
X114757918Y-129388099D01*
X114793135Y-129414764D01*
X114827527Y-129442596D01*
X114861095Y-129471596D01*
X114893839Y-129501764D01*
X114925758Y-129533099D01*
X114956854Y-129565603D01*
X114987124Y-129599274D01*
X115016571Y-129634113D01*
X115045193Y-129670119D01*
X115063817Y-129694773D01*
X115090945Y-129732603D01*
X115117008Y-129771721D01*
X115142007Y-129812127D01*
X115165941Y-129853821D01*
X115188810Y-129896803D01*
X115210614Y-129941073D01*
X115231354Y-129986631D01*
X115251029Y-130033476D01*
X115269639Y-130081610D01*
X115287184Y-130131032D01*
X115298290Y-130164696D01*
X115314003Y-130216202D01*
X115328171Y-130269236D01*
X115340794Y-130323798D01*
X115351871Y-130379889D01*
X115361402Y-130437509D01*
X115366897Y-130476771D01*
X115371706Y-130516712D01*
X115375827Y-130557333D01*
X115379262Y-130598632D01*
X115382010Y-130640612D01*
X115384071Y-130683270D01*
X115385444Y-130726608D01*
X115386131Y-130770625D01*
X115386217Y-130792889D01*
X115385630Y-130849561D01*
X115383866Y-130905271D01*
X115380928Y-130960019D01*
X115376814Y-131013806D01*
X115371524Y-131066631D01*
X115365060Y-131118495D01*
X115357419Y-131169397D01*
X115348604Y-131219337D01*
X115338613Y-131268315D01*
X115327446Y-131316331D01*
X115315104Y-131363386D01*
X115301587Y-131409480D01*
X115286894Y-131454611D01*
X115271026Y-131498781D01*
X115253983Y-131541989D01*
X115235764Y-131584235D01*
X115216636Y-131625551D01*
X115196624Y-131665965D01*
X115175726Y-131705479D01*
X115153942Y-131744092D01*
X115131273Y-131781805D01*
X115107719Y-131818617D01*
X115083280Y-131854528D01*
X115057955Y-131889539D01*
X115031745Y-131923649D01*
X115004649Y-131956858D01*
X114976668Y-131989167D01*
X114947801Y-132020575D01*
X114918049Y-132051083D01*
X114887412Y-132080689D01*
X114855890Y-132109396D01*
X114823482Y-132137201D01*
X114790391Y-132164121D01*
X114756574Y-132190171D01*
X114722033Y-132215351D01*
X114686767Y-132239661D01*
X114650775Y-132263101D01*
X114614059Y-132285670D01*
X114576617Y-132307370D01*
X114538450Y-132328199D01*
X114499558Y-132348158D01*
X114459941Y-132367247D01*
X114419599Y-132385466D01*
X114378532Y-132402815D01*
X114336740Y-132419294D01*
X114294223Y-132434903D01*
X114250980Y-132449641D01*
X114207013Y-132463510D01*
X114162595Y-132476405D01*
X114117757Y-132488468D01*
X114072500Y-132499700D01*
X114026823Y-132510099D01*
X113980726Y-132519666D01*
X113934209Y-132528402D01*
X113887272Y-132536305D01*
X113839916Y-132543377D01*
X113792140Y-132549617D01*
X113743944Y-132555024D01*
X113695328Y-132559600D01*
X113646292Y-132563344D01*
X113596837Y-132566256D01*
X113546962Y-132568336D01*
X113496667Y-132569584D01*
X113445952Y-132570000D01*
X111685450Y-132570000D01*
X111685450Y-132351158D01*
X112070376Y-132204612D01*
X112107064Y-132185457D01*
X112134856Y-132162602D01*
X112156106Y-132128653D01*
X112163078Y-132088127D01*
X112163189Y-132081514D01*
X112163189Y-129487655D01*
X112157766Y-129448732D01*
X112136600Y-129414039D01*
X112134856Y-129412428D01*
X112990683Y-129412428D01*
X112990683Y-132163579D01*
X113486008Y-132163579D01*
X113534648Y-132162824D01*
X113582018Y-132160557D01*
X113628117Y-132156779D01*
X113672945Y-132151489D01*
X113716503Y-132144689D01*
X113758789Y-132136377D01*
X113799805Y-132126554D01*
X113839549Y-132115219D01*
X113878023Y-132102374D01*
X113915227Y-132088017D01*
X113939323Y-132077606D01*
X113974634Y-132060773D01*
X114019872Y-132036112D01*
X114063004Y-132008917D01*
X114104029Y-131979188D01*
X114142948Y-131946926D01*
X114179760Y-131912129D01*
X114214465Y-131874798D01*
X114247064Y-131834933D01*
X114254884Y-131824570D01*
X114277582Y-131792419D01*
X114299146Y-131758980D01*
X114319576Y-131724252D01*
X114338873Y-131688237D01*
X114357037Y-131650934D01*
X114374067Y-131612342D01*
X114389964Y-131572463D01*
X114404727Y-131531296D01*
X114418357Y-131488840D01*
X114430854Y-131445097D01*
X114438555Y-131415219D01*
X114449380Y-131369398D01*
X114459140Y-131322426D01*
X114467835Y-131274304D01*
X114475466Y-131225030D01*
X114482032Y-131174607D01*
X114487533Y-131123032D01*
X114491970Y-131070307D01*
X114495341Y-131016432D01*
X114497648Y-130961406D01*
X114498891Y-130905229D01*
X114499127Y-130867138D01*
X114498814Y-130824919D01*
X114497875Y-130783256D01*
X114496311Y-130742151D01*
X114494120Y-130701603D01*
X114491304Y-130661612D01*
X114487862Y-130622178D01*
X114483793Y-130583301D01*
X114476518Y-130526031D01*
X114467834Y-130470015D01*
X114457741Y-130415252D01*
X114446241Y-130361743D01*
X114433332Y-130309487D01*
X114419016Y-130258485D01*
X114403385Y-130208823D01*
X114386535Y-130160586D01*
X114368466Y-130113774D01*
X114349177Y-130068388D01*
X114328670Y-130024427D01*
X114306942Y-129981892D01*
X114283996Y-129940782D01*
X114259830Y-129901097D01*
X114234445Y-129862838D01*
X114207841Y-129826004D01*
X114189427Y-129802240D01*
X114161017Y-129767833D01*
X114131473Y-129734954D01*
X114100796Y-129703605D01*
X114068985Y-129673783D01*
X114036041Y-129645490D01*
X114001963Y-129618725D01*
X113966752Y-129593489D01*
X113930408Y-129569781D01*
X113892930Y-129547602D01*
X113854318Y-129526951D01*
X113827948Y-129514033D01*
X113787777Y-129495875D01*
X113746764Y-129479503D01*
X113704910Y-129464917D01*
X113662214Y-129452117D01*
X113618677Y-129441104D01*
X113574298Y-129431876D01*
X113529078Y-129424434D01*
X113483016Y-129418778D01*
X113436113Y-129414909D01*
X113388368Y-129412825D01*
X113356071Y-129412428D01*
X112990683Y-129412428D01*
X112134856Y-129412428D01*
X112103034Y-129387710D01*
X112070376Y-129371395D01*
X111685450Y-129224849D01*
X111685450Y-129006008D01*
X113476238Y-129006008D01*
X113525178Y-129006542D01*
G37*
G36*
X117680509Y-128944031D02*
G01*
X117737528Y-128945680D01*
X117793563Y-128948428D01*
X117848613Y-128952274D01*
X117902678Y-128957220D01*
X117955759Y-128963265D01*
X118007855Y-128970409D01*
X118058967Y-128978653D01*
X118109094Y-128987995D01*
X118158236Y-128998436D01*
X118206394Y-129009977D01*
X118253567Y-129022616D01*
X118299756Y-129036355D01*
X118344960Y-129051193D01*
X118389179Y-129067130D01*
X118432414Y-129084166D01*
X118474824Y-129102049D01*
X118516327Y-129120771D01*
X118556921Y-129140334D01*
X118596606Y-129160736D01*
X118635384Y-129181977D01*
X118673253Y-129204058D01*
X118710214Y-129226979D01*
X118746266Y-129250739D01*
X118781410Y-129275339D01*
X118815646Y-129300778D01*
X118848974Y-129327057D01*
X118881393Y-129354176D01*
X118912905Y-129382134D01*
X118943507Y-129410932D01*
X118973202Y-129440569D01*
X119001988Y-129471046D01*
X119029863Y-129502294D01*
X119056821Y-129534244D01*
X119082863Y-129566896D01*
X119107990Y-129600251D01*
X119132200Y-129634307D01*
X119155495Y-129669066D01*
X119177874Y-129704527D01*
X119199337Y-129740690D01*
X119219883Y-129777556D01*
X119239515Y-129815123D01*
X119258230Y-129853393D01*
X119276029Y-129892365D01*
X119292912Y-129932039D01*
X119308879Y-129972416D01*
X119323931Y-130013494D01*
X119338066Y-130055275D01*
X119351435Y-130097617D01*
X119363941Y-130140379D01*
X119375584Y-130183560D01*
X119386366Y-130227161D01*
X119396284Y-130271182D01*
X119405340Y-130315623D01*
X119413534Y-130360483D01*
X119420865Y-130405764D01*
X119427333Y-130451464D01*
X119432940Y-130497584D01*
X119437683Y-130544123D01*
X119441564Y-130591083D01*
X119444583Y-130638462D01*
X119446739Y-130686261D01*
X119448033Y-130734480D01*
X119448464Y-130783119D01*
X119448044Y-130826848D01*
X119446781Y-130870474D01*
X119444678Y-130913997D01*
X119441732Y-130957417D01*
X119437946Y-131000733D01*
X119433317Y-131043947D01*
X119427848Y-131087058D01*
X119421536Y-131130066D01*
X119414384Y-131172970D01*
X119406390Y-131215772D01*
X119400593Y-131244249D01*
X119391371Y-131286733D01*
X119381290Y-131328822D01*
X119370350Y-131370516D01*
X119358552Y-131411815D01*
X119345896Y-131452719D01*
X119332380Y-131493228D01*
X119318006Y-131533342D01*
X119302773Y-131573061D01*
X119286682Y-131612385D01*
X119269732Y-131651314D01*
X119257955Y-131677048D01*
X119239722Y-131715250D01*
X119220563Y-131752919D01*
X119200476Y-131790057D01*
X119179461Y-131826662D01*
X119157520Y-131862734D01*
X119134650Y-131898274D01*
X119110854Y-131933282D01*
X119086130Y-131967758D01*
X119060479Y-132001701D01*
X119033900Y-132035111D01*
X119015666Y-132057090D01*
X118987507Y-132089467D01*
X118958353Y-132121020D01*
X118928202Y-132151749D01*
X118897056Y-132181653D01*
X118864913Y-132210734D01*
X118831774Y-132238989D01*
X118797639Y-132266421D01*
X118762508Y-132293028D01*
X118726381Y-132318811D01*
X118689258Y-132343770D01*
X118663956Y-132359951D01*
X118625339Y-132383292D01*
X118585692Y-132405689D01*
X118545014Y-132427141D01*
X118503306Y-132447649D01*
X118460567Y-132467212D01*
X118416798Y-132485831D01*
X118371998Y-132503505D01*
X118326168Y-132520235D01*
X118279308Y-132536020D01*
X118231417Y-132550861D01*
X118198918Y-132560230D01*
X118149484Y-132573150D01*
X118099003Y-132584799D01*
X118047475Y-132595178D01*
X117994899Y-132604285D01*
X117941275Y-132612122D01*
X117886604Y-132618688D01*
X117830885Y-132623983D01*
X117774118Y-132628007D01*
X117716304Y-132630761D01*
X117677180Y-132631890D01*
X117637590Y-132632455D01*
X117617620Y-132632526D01*
X117562700Y-132632022D01*
X117508581Y-132630511D01*
X117455263Y-132627992D01*
X117402747Y-132624466D01*
X117351033Y-132619932D01*
X117300119Y-132614391D01*
X117250008Y-132607842D01*
X117200697Y-132600286D01*
X117152188Y-132591722D01*
X117104481Y-132582151D01*
X117057575Y-132571572D01*
X117011470Y-132559986D01*
X116966167Y-132547392D01*
X116921665Y-132533790D01*
X116877965Y-132519182D01*
X116835066Y-132503565D01*
X116792984Y-132487007D01*
X116751733Y-132469570D01*
X116711315Y-132451255D01*
X116671728Y-132432063D01*
X116632974Y-132411993D01*
X116595051Y-132391046D01*
X116557961Y-132369220D01*
X116521702Y-132346517D01*
X116486276Y-132322936D01*
X116451681Y-132298478D01*
X116417918Y-132273141D01*
X116384987Y-132246927D01*
X116352888Y-132219835D01*
X116321622Y-132191866D01*
X116291187Y-132163018D01*
X116261584Y-132133293D01*
X116232958Y-132102736D01*
X116205209Y-132071393D01*
X116178339Y-132039264D01*
X116152346Y-132006348D01*
X116127231Y-131972646D01*
X116102994Y-131938159D01*
X116079634Y-131902885D01*
X116057152Y-131866824D01*
X116035548Y-131829978D01*
X116014822Y-131792346D01*
X115994973Y-131753927D01*
X115976003Y-131714722D01*
X115957910Y-131674731D01*
X115940694Y-131633954D01*
X115924357Y-131592391D01*
X115908897Y-131550041D01*
X115894464Y-131506974D01*
X115880962Y-131463259D01*
X115868391Y-131418894D01*
X115856751Y-131373881D01*
X115846043Y-131328219D01*
X115836265Y-131281909D01*
X115827419Y-131234949D01*
X115819504Y-131187341D01*
X115812520Y-131139084D01*
X115806468Y-131090178D01*
X115801346Y-131040623D01*
X115797156Y-130990420D01*
X115793897Y-130939568D01*
X115791569Y-130888067D01*
X115790172Y-130835917D01*
X115789706Y-130783119D01*
X115790195Y-130733297D01*
X115791182Y-130700076D01*
X116684612Y-130700076D01*
X116684830Y-130743174D01*
X116685482Y-130785760D01*
X116686570Y-130827834D01*
X116688093Y-130869398D01*
X116690050Y-130910449D01*
X116692443Y-130950990D01*
X116695271Y-130991019D01*
X116698534Y-131030537D01*
X116702232Y-131069543D01*
X116708595Y-131127094D01*
X116715936Y-131183494D01*
X116724257Y-131238743D01*
X116733556Y-131292842D01*
X116740300Y-131328269D01*
X116751465Y-131380138D01*
X116763713Y-131430599D01*
X116777042Y-131479652D01*
X116791453Y-131527296D01*
X116806946Y-131573533D01*
X116823522Y-131618361D01*
X116841179Y-131661781D01*
X116859918Y-131703792D01*
X116879738Y-131744396D01*
X116900641Y-131783591D01*
X116915177Y-131808939D01*
X116938092Y-131845684D01*
X116962141Y-131880815D01*
X116987323Y-131914331D01*
X117013638Y-131946234D01*
X117041087Y-131976522D01*
X117069669Y-132005196D01*
X117099384Y-132032255D01*
X117130233Y-132057700D01*
X117162216Y-132081531D01*
X117195332Y-132103748D01*
X117218039Y-132117662D01*
X117253252Y-132137042D01*
X117289651Y-132154516D01*
X117327235Y-132170083D01*
X117366004Y-132183745D01*
X117405958Y-132195500D01*
X117447096Y-132205349D01*
X117489420Y-132213291D01*
X117532929Y-132219328D01*
X117577622Y-132223458D01*
X117623501Y-132225682D01*
X117654745Y-132226106D01*
X117696553Y-132225230D01*
X117737348Y-132222602D01*
X117777130Y-132218223D01*
X117815899Y-132212092D01*
X117866015Y-132201193D01*
X117914329Y-132187179D01*
X117960842Y-132170052D01*
X118005554Y-132149810D01*
X118048464Y-132126454D01*
X118089833Y-132100076D01*
X118129431Y-132071256D01*
X118167258Y-132039993D01*
X118203314Y-132006287D01*
X118237600Y-131970139D01*
X118270115Y-131931549D01*
X118300859Y-131890516D01*
X118322755Y-131858138D01*
X118329832Y-131847041D01*
X118350566Y-131812717D01*
X118370269Y-131777157D01*
X118388943Y-131740360D01*
X118406585Y-131702327D01*
X118423198Y-131663057D01*
X118438780Y-131622551D01*
X118453331Y-131580808D01*
X118466852Y-131537829D01*
X118479343Y-131493614D01*
X118490803Y-131448162D01*
X118497871Y-131417173D01*
X118507648Y-131369623D01*
X118516464Y-131321129D01*
X118524318Y-131271689D01*
X118531210Y-131221306D01*
X118537141Y-131169978D01*
X118542110Y-131117705D01*
X118546117Y-131064488D01*
X118549162Y-131010326D01*
X118551246Y-130955219D01*
X118552368Y-130899169D01*
X118552581Y-130861277D01*
X118552356Y-130817950D01*
X118551681Y-130775166D01*
X118550555Y-130732923D01*
X118548979Y-130691222D01*
X118546952Y-130650064D01*
X118544476Y-130609447D01*
X118541549Y-130569372D01*
X118538171Y-130529839D01*
X118534343Y-130490848D01*
X118527757Y-130433377D01*
X118520158Y-130377126D01*
X118511546Y-130322094D01*
X118501920Y-130268282D01*
X118494940Y-130233084D01*
X118483740Y-130181258D01*
X118471390Y-130130926D01*
X118457889Y-130082087D01*
X118443237Y-130034743D01*
X118427435Y-129988894D01*
X118410482Y-129944538D01*
X118392378Y-129901676D01*
X118373124Y-129860308D01*
X118352719Y-129820435D01*
X118331164Y-129782055D01*
X118316154Y-129757299D01*
X118292890Y-129721452D01*
X118268527Y-129687186D01*
X118243065Y-129654499D01*
X118216503Y-129623393D01*
X118188843Y-129593866D01*
X118160083Y-129565919D01*
X118130225Y-129539553D01*
X118099267Y-129514766D01*
X118067210Y-129491559D01*
X118034054Y-129469932D01*
X118011339Y-129456392D01*
X117976317Y-129437361D01*
X117940127Y-129420202D01*
X117902770Y-129404915D01*
X117864244Y-129391499D01*
X117824551Y-129379956D01*
X117783690Y-129370285D01*
X117741661Y-129362485D01*
X117698464Y-129356557D01*
X117654100Y-129352502D01*
X117608568Y-129350318D01*
X117577564Y-129349902D01*
X117533128Y-129350846D01*
X117489946Y-129353680D01*
X117448017Y-129358403D01*
X117407342Y-129365014D01*
X117367921Y-129373515D01*
X117329753Y-129383905D01*
X117280813Y-129400697D01*
X117234101Y-129420847D01*
X117189619Y-129444355D01*
X117168213Y-129457369D01*
X117127119Y-129485426D01*
X117087857Y-129515865D01*
X117050427Y-129548685D01*
X117014829Y-129583886D01*
X116981062Y-129621469D01*
X116949127Y-129661434D01*
X116919024Y-129703779D01*
X116897649Y-129737101D01*
X116890753Y-129748506D01*
X116870944Y-129783311D01*
X116852182Y-129819214D01*
X116834468Y-129856217D01*
X116817801Y-129894319D01*
X116802182Y-129933520D01*
X116787610Y-129973820D01*
X116774086Y-130015219D01*
X116761610Y-130057718D01*
X116750181Y-130101315D01*
X116739800Y-130146011D01*
X116733461Y-130176420D01*
X116724731Y-130222690D01*
X116716860Y-130269545D01*
X116709847Y-130316983D01*
X116703694Y-130365006D01*
X116698399Y-130413612D01*
X116693962Y-130462802D01*
X116690384Y-130512576D01*
X116687665Y-130562934D01*
X116685805Y-130613876D01*
X116684803Y-130665401D01*
X116684612Y-130700076D01*
X115791182Y-130700076D01*
X115791660Y-130683971D01*
X115794103Y-130635142D01*
X115797522Y-130586809D01*
X115801919Y-130538971D01*
X115807292Y-130491630D01*
X115813642Y-130444785D01*
X115820969Y-130398436D01*
X115829274Y-130352584D01*
X115838555Y-130307227D01*
X115848813Y-130262366D01*
X115860048Y-130218002D01*
X115872260Y-130174134D01*
X115885450Y-130130761D01*
X115899616Y-130087885D01*
X115914759Y-130045505D01*
X115930822Y-130003728D01*
X115947747Y-129962661D01*
X115965535Y-129922304D01*
X115984185Y-129882657D01*
X116003697Y-129843719D01*
X116024073Y-129805491D01*
X116045310Y-129767973D01*
X116067411Y-129731165D01*
X116090373Y-129695067D01*
X116114198Y-129659678D01*
X116138886Y-129624999D01*
X116164436Y-129591031D01*
X116190849Y-129557772D01*
X116218124Y-129525222D01*
X116246261Y-129493383D01*
X116275261Y-129462254D01*
X116305219Y-129431910D01*
X116335986Y-129402429D01*
X116367562Y-129373811D01*
X116399947Y-129346055D01*
X116433141Y-129319162D01*
X116467144Y-129293131D01*
X116501957Y-129267962D01*
X116537578Y-129243656D01*
X116574008Y-129220213D01*
X116611248Y-129197632D01*
X116649296Y-129175913D01*
X116688154Y-129155057D01*
X116727820Y-129135064D01*
X116768296Y-129115932D01*
X116809581Y-129097664D01*
X116851674Y-129080258D01*
X116894642Y-129063695D01*
X116938304Y-129048201D01*
X116982661Y-129033775D01*
X117027712Y-129020418D01*
X117073458Y-129008130D01*
X117119899Y-128996910D01*
X117167034Y-128986758D01*
X117214863Y-128977676D01*
X117263388Y-128969661D01*
X117312606Y-128962716D01*
X117362520Y-128956839D01*
X117413128Y-128952030D01*
X117464430Y-128948290D01*
X117516427Y-128945619D01*
X117569119Y-128944016D01*
X117622505Y-128943482D01*
X117680509Y-128944031D01*
G37*
G36*
X121692555Y-129006514D02*
G01*
X121745641Y-129008034D01*
X121798091Y-129010567D01*
X121849906Y-129014114D01*
X121901085Y-129018673D01*
X121951629Y-129024246D01*
X122001538Y-129030832D01*
X122050811Y-129038431D01*
X122099448Y-129047044D01*
X122147451Y-129056669D01*
X122179099Y-129063649D01*
X122225968Y-129075024D01*
X122271686Y-129087532D01*
X122316254Y-129101173D01*
X122359671Y-129115948D01*
X122401937Y-129131856D01*
X122443053Y-129148898D01*
X122483018Y-129167073D01*
X122521833Y-129186381D01*
X122559497Y-129206823D01*
X122596010Y-129228399D01*
X122619713Y-129243412D01*
X122654189Y-129266745D01*
X122687273Y-129291314D01*
X122718967Y-129317120D01*
X122749269Y-129344162D01*
X122778180Y-129372441D01*
X122805700Y-129401956D01*
X122831830Y-129432708D01*
X122856568Y-129464696D01*
X122879915Y-129497921D01*
X122901871Y-129532382D01*
X122915736Y-129556043D01*
X122935290Y-129592642D01*
X122952922Y-129630632D01*
X122968630Y-129670014D01*
X122982414Y-129710786D01*
X122994275Y-129752949D01*
X123004213Y-129796504D01*
X123012227Y-129841449D01*
X123018318Y-129887786D01*
X123022485Y-129935513D01*
X123024729Y-129984632D01*
X123025157Y-130018150D01*
X123024341Y-130071133D01*
X123021894Y-130123102D01*
X123017815Y-130174058D01*
X123012105Y-130224001D01*
X123004763Y-130272931D01*
X122995790Y-130320847D01*
X122985186Y-130367750D01*
X122972950Y-130413640D01*
X122959082Y-130458517D01*
X122943583Y-130502381D01*
X122932344Y-130531060D01*
X122914281Y-130572949D01*
X122894895Y-130613618D01*
X122874187Y-130653068D01*
X122852156Y-130691299D01*
X122828803Y-130728310D01*
X122804128Y-130764102D01*
X122778131Y-130798675D01*
X122750811Y-130832028D01*
X122722168Y-130864163D01*
X122692204Y-130895077D01*
X122671493Y-130915010D01*
X122639628Y-130943867D01*
X122606681Y-130971453D01*
X122572652Y-130997768D01*
X122537541Y-131022813D01*
X122501348Y-131046586D01*
X122464073Y-131069089D01*
X122425717Y-131090321D01*
X122386278Y-131110282D01*
X122345758Y-131128972D01*
X122304155Y-131146392D01*
X122275819Y-131157299D01*
X122232586Y-131172314D01*
X122188613Y-131185852D01*
X122143903Y-131197914D01*
X122098453Y-131208498D01*
X122052266Y-131217606D01*
X122005340Y-131225237D01*
X121957675Y-131231390D01*
X121909272Y-131236067D01*
X121860131Y-131239267D01*
X121810251Y-131240990D01*
X121776587Y-131241318D01*
X121735886Y-131239983D01*
X121696482Y-131236497D01*
X121654450Y-131230846D01*
X121634926Y-131227641D01*
X121595664Y-131220130D01*
X121556036Y-131211277D01*
X121516041Y-131201079D01*
X121475680Y-131189539D01*
X121435319Y-131176899D01*
X121395324Y-131163405D01*
X121355696Y-131149056D01*
X121316434Y-131133852D01*
X121279064Y-131117487D01*
X121239944Y-131098494D01*
X121203914Y-131078882D01*
X121181612Y-131065464D01*
X121181612Y-132076629D01*
X121186449Y-132117521D01*
X121204051Y-132153886D01*
X121210921Y-132161625D01*
X121243649Y-132186050D01*
X121281263Y-132202658D01*
X121689637Y-132351158D01*
X121689637Y-132570000D01*
X119876378Y-132570000D01*
X119876378Y-132351158D01*
X120261304Y-132204612D01*
X120298714Y-132186895D01*
X120329692Y-132161625D01*
X120348750Y-132125878D01*
X120354093Y-132084845D01*
X120354117Y-132081514D01*
X120354117Y-129487655D01*
X120349068Y-129448732D01*
X120329361Y-129414039D01*
X120327739Y-129412428D01*
X121181612Y-129412428D01*
X121181612Y-130770418D01*
X121219713Y-130781409D01*
X121260758Y-130790382D01*
X121263677Y-130790935D01*
X121303540Y-130797285D01*
X121345338Y-130803635D01*
X121365282Y-130806566D01*
X121405582Y-130811146D01*
X121445882Y-130814626D01*
X121472749Y-130816336D01*
X121512500Y-130818122D01*
X121554322Y-130819127D01*
X121576308Y-130819267D01*
X121621336Y-130817962D01*
X121664098Y-130814046D01*
X121704593Y-130807520D01*
X121742821Y-130798384D01*
X121784555Y-130784426D01*
X121790265Y-130782142D01*
X121829087Y-130764918D01*
X121865198Y-130745731D01*
X121898597Y-130724580D01*
X121933447Y-130698003D01*
X121945603Y-130687376D01*
X121975950Y-130657578D01*
X122003489Y-130625826D01*
X122028218Y-130592121D01*
X122050139Y-130556461D01*
X122069923Y-130519214D01*
X122087264Y-130481723D01*
X122102163Y-130443988D01*
X122114619Y-130406008D01*
X122124877Y-130367967D01*
X122134082Y-130326485D01*
X122140814Y-130286394D01*
X122143928Y-130260439D01*
X122148050Y-130218803D01*
X122150821Y-130176971D01*
X122151744Y-130139295D01*
X122150957Y-130094983D01*
X122148596Y-130051196D01*
X122144660Y-130007933D01*
X122139150Y-129965195D01*
X122132066Y-129922982D01*
X122123408Y-129881294D01*
X122119504Y-129864766D01*
X122108260Y-129824337D01*
X122094679Y-129785482D01*
X122078760Y-129748202D01*
X122060504Y-129712496D01*
X122039910Y-129678364D01*
X122016979Y-129645806D01*
X122007152Y-129633224D01*
X121980758Y-129603037D01*
X121951644Y-129574758D01*
X121919812Y-129548387D01*
X121885260Y-129523925D01*
X121847989Y-129501371D01*
X121807999Y-129480724D01*
X121791242Y-129473000D01*
X121747536Y-129455550D01*
X121700681Y-129441058D01*
X121660930Y-129431593D01*
X121619165Y-129424022D01*
X121575384Y-129418343D01*
X121529589Y-129414557D01*
X121481778Y-129412665D01*
X121457117Y-129412428D01*
X121181612Y-129412428D01*
X120327739Y-129412428D01*
X120295851Y-129387710D01*
X120261304Y-129371395D01*
X119876378Y-129224849D01*
X119876378Y-129006008D01*
X121638834Y-129006008D01*
X121692555Y-129006514D01*
G37*
G36*
X126427948Y-132104961D02*
G01*
X126445953Y-132142788D01*
X126469194Y-132177623D01*
X126476796Y-132187027D01*
X126505835Y-132215210D01*
X126540682Y-132235861D01*
X126548115Y-132238806D01*
X126815806Y-132351158D01*
X126815806Y-132570000D01*
X125190125Y-132570000D01*
X125190125Y-132351158D01*
X125610223Y-132199727D01*
X125294661Y-131413265D01*
X124036322Y-131413265D01*
X123739323Y-132185073D01*
X124164305Y-132351158D01*
X124164305Y-132570000D01*
X122908897Y-132570000D01*
X122908897Y-132351158D01*
X123165840Y-132231967D01*
X123203160Y-132211731D01*
X123235618Y-132186073D01*
X123263213Y-132154991D01*
X123285947Y-132118486D01*
X123296755Y-132095191D01*
X123729932Y-131006845D01*
X124196545Y-131006845D01*
X125137369Y-131006845D01*
X124797383Y-130143203D01*
X124696755Y-129810055D01*
X124654745Y-129810055D01*
X124196545Y-131006845D01*
X123729932Y-131006845D01*
X124314759Y-129537480D01*
X124616643Y-128943482D01*
X125201849Y-128943482D01*
X126427948Y-132104961D01*
G37*
D11*
G36*
X111946393Y-133389660D02*
G01*
X111939198Y-133389582D01*
X111931801Y-133389350D01*
X111924203Y-133388962D01*
X111916403Y-133388420D01*
X111910018Y-133387874D01*
X111903504Y-133387229D01*
X111896861Y-133386485D01*
X111890141Y-133385661D01*
X111883396Y-133384778D01*
X111876627Y-133383836D01*
X111869832Y-133382833D01*
X111863013Y-133381772D01*
X111856169Y-133380650D01*
X111849301Y-133379470D01*
X111842407Y-133378229D01*
X111835504Y-133376902D01*
X111828605Y-133375540D01*
X111821711Y-133374144D01*
X111814823Y-133372713D01*
X111807939Y-133371247D01*
X111801061Y-133369746D01*
X111794187Y-133368210D01*
X111787318Y-133366640D01*
X111780506Y-133365045D01*
X111773804Y-133363435D01*
X111767210Y-133361810D01*
X111760726Y-133360171D01*
X111754351Y-133358516D01*
X111748085Y-133356847D01*
X111741928Y-133355162D01*
X111735881Y-133353463D01*
X111733499Y-133186450D01*
X111787477Y-133186450D01*
X111811449Y-133262812D01*
X111814668Y-133268487D01*
X111814942Y-133268845D01*
X111819196Y-133273846D01*
X111819863Y-133274561D01*
X111824625Y-133279061D01*
X111825102Y-133279482D01*
X111829865Y-133283292D01*
X111835412Y-133286527D01*
X111841574Y-133289881D01*
X111847470Y-133292913D01*
X111853837Y-133296036D01*
X111855743Y-133296945D01*
X111861622Y-133299585D01*
X111867590Y-133302147D01*
X111873648Y-133304631D01*
X111879795Y-133307036D01*
X111886031Y-133309364D01*
X111888129Y-133310122D01*
X111894446Y-133312253D01*
X111900773Y-133314238D01*
X111907111Y-133316078D01*
X111913461Y-133317772D01*
X111919822Y-133319322D01*
X111921945Y-133319807D01*
X111928274Y-133321101D01*
X111935404Y-133322273D01*
X111942261Y-133323081D01*
X111948844Y-133323524D01*
X111953379Y-133323617D01*
X111959816Y-133323525D01*
X111967660Y-133323152D01*
X111975279Y-133322492D01*
X111982674Y-133321546D01*
X111989843Y-133320313D01*
X111996788Y-133318792D01*
X112000847Y-133317743D01*
X112007447Y-133315779D01*
X112013753Y-133313560D01*
X112019763Y-133311085D01*
X112026588Y-133307777D01*
X112032987Y-133304101D01*
X112037997Y-133300756D01*
X112043639Y-133296389D01*
X112048780Y-133291744D01*
X112053418Y-133286819D01*
X112057554Y-133281615D01*
X112061187Y-133276133D01*
X112062287Y-133274243D01*
X112065200Y-133268394D01*
X112067511Y-133262277D01*
X112069219Y-133255892D01*
X112070324Y-133249239D01*
X112070826Y-133242318D01*
X112070860Y-133239951D01*
X112070601Y-133232824D01*
X112069826Y-133226169D01*
X112068308Y-133219139D01*
X112066115Y-133212724D01*
X112065462Y-133211216D01*
X112062535Y-133205382D01*
X112058992Y-133199944D01*
X112054835Y-133194904D01*
X112050062Y-133190260D01*
X112044714Y-133185865D01*
X112038830Y-133181727D01*
X112033242Y-133178318D01*
X112027244Y-133175107D01*
X112025455Y-133174226D01*
X112018952Y-133171162D01*
X112013088Y-133168524D01*
X112006956Y-133165875D01*
X112000556Y-133163214D01*
X111993888Y-133160543D01*
X111992751Y-133160096D01*
X111986369Y-133157592D01*
X111979966Y-133155199D01*
X111973540Y-133152919D01*
X111967091Y-133150749D01*
X111960621Y-133148692D01*
X111958459Y-133148031D01*
X111951992Y-133146077D01*
X111945570Y-133144146D01*
X111939192Y-133142237D01*
X111932859Y-133140351D01*
X111926571Y-133138486D01*
X111924485Y-133137870D01*
X111918234Y-133136024D01*
X111911983Y-133134179D01*
X111905732Y-133132333D01*
X111899480Y-133130488D01*
X111893229Y-133128642D01*
X111891146Y-133128027D01*
X111884923Y-133126088D01*
X111878755Y-133124083D01*
X111872644Y-133122010D01*
X111866588Y-133119871D01*
X111860588Y-133117664D01*
X111858600Y-133116914D01*
X111852399Y-133114424D01*
X111846336Y-133111794D01*
X111840413Y-133109026D01*
X111834628Y-133106118D01*
X111828982Y-133103072D01*
X111823475Y-133099887D01*
X111816787Y-133095711D01*
X111812878Y-133093100D01*
X111806622Y-133088572D01*
X111800652Y-133083820D01*
X111794969Y-133078842D01*
X111789573Y-133073640D01*
X111784464Y-133068213D01*
X111779641Y-133062561D01*
X111777793Y-133060237D01*
X111773391Y-133054221D01*
X111769315Y-133047980D01*
X111765565Y-133041514D01*
X111762140Y-133034824D01*
X111759041Y-133027908D01*
X111756267Y-133020768D01*
X111755249Y-133017849D01*
X111752962Y-133010333D01*
X111751412Y-133004141D01*
X111750110Y-132997791D01*
X111749055Y-132991282D01*
X111748249Y-132984614D01*
X111747691Y-132977788D01*
X111747381Y-132970802D01*
X111747311Y-132965459D01*
X111747443Y-132958918D01*
X111747837Y-132952471D01*
X111748494Y-132946118D01*
X111749686Y-132938309D01*
X111751288Y-132930648D01*
X111753301Y-132923134D01*
X111755725Y-132915768D01*
X111758567Y-132908572D01*
X111761734Y-132901570D01*
X111765227Y-132894761D01*
X111769046Y-132888146D01*
X111773190Y-132881726D01*
X111777660Y-132875499D01*
X111779539Y-132873062D01*
X111784445Y-132867102D01*
X111789638Y-132861329D01*
X111795118Y-132855741D01*
X111800884Y-132850340D01*
X111805704Y-132846153D01*
X111810708Y-132842084D01*
X111815894Y-132838135D01*
X111821272Y-132834323D01*
X111826769Y-132830664D01*
X111832385Y-132827159D01*
X111838121Y-132823807D01*
X111843975Y-132820610D01*
X111849948Y-132817566D01*
X111856040Y-132814676D01*
X111862252Y-132811940D01*
X111868612Y-132809360D01*
X111875071Y-132806939D01*
X111881630Y-132804677D01*
X111888288Y-132802573D01*
X111895045Y-132800629D01*
X111901902Y-132798843D01*
X111908857Y-132797215D01*
X111915912Y-132795747D01*
X111923078Y-132794445D01*
X111930289Y-132793316D01*
X111937545Y-132792361D01*
X111944846Y-132791579D01*
X111952191Y-132790972D01*
X111959580Y-132790538D01*
X111967015Y-132790277D01*
X111974494Y-132790190D01*
X111980906Y-132790225D01*
X111987363Y-132790329D01*
X111993865Y-132790503D01*
X112000411Y-132790746D01*
X112007002Y-132791059D01*
X112013637Y-132791441D01*
X112020318Y-132791892D01*
X112027042Y-132792413D01*
X112033807Y-132792956D01*
X112040527Y-132793554D01*
X112047202Y-132794206D01*
X112053833Y-132794913D01*
X112060419Y-132795675D01*
X112066960Y-132796491D01*
X112073457Y-132797362D01*
X112079909Y-132798287D01*
X112086336Y-132799212D01*
X112092679Y-132800162D01*
X112100489Y-132801385D01*
X112108167Y-132802646D01*
X112115713Y-132803946D01*
X112123128Y-132805285D01*
X112128965Y-132806384D01*
X112136096Y-132807769D01*
X112143002Y-132809146D01*
X112149683Y-132810516D01*
X112156140Y-132811878D01*
X112162372Y-132813232D01*
X112169553Y-132814847D01*
X112170718Y-132815115D01*
X112170718Y-132973079D01*
X112117217Y-132973079D01*
X112094038Y-132903226D01*
X112091062Y-132897511D01*
X112086613Y-132892441D01*
X112086259Y-132892113D01*
X112081410Y-132887954D01*
X112076241Y-132884243D01*
X112075622Y-132883857D01*
X112069830Y-132880784D01*
X112063537Y-132877815D01*
X112058159Y-132875443D01*
X112051580Y-132872738D01*
X112045331Y-132870438D01*
X112038706Y-132868238D01*
X112032599Y-132866394D01*
X112026310Y-132864587D01*
X112019945Y-132862917D01*
X112013504Y-132861383D01*
X112006987Y-132859987D01*
X112003229Y-132859250D01*
X111996776Y-132858075D01*
X111990475Y-132857188D01*
X111983460Y-132856528D01*
X111976643Y-132856245D01*
X111974970Y-132856234D01*
X111967332Y-132856389D01*
X111959996Y-132856854D01*
X111952963Y-132857629D01*
X111946232Y-132858714D01*
X111939804Y-132860110D01*
X111933677Y-132861815D01*
X111931311Y-132862584D01*
X111924547Y-132865094D01*
X111918184Y-132867860D01*
X111912223Y-132870883D01*
X111906664Y-132874163D01*
X111900687Y-132878314D01*
X111899877Y-132878936D01*
X111894625Y-132883402D01*
X111889980Y-132888187D01*
X111885943Y-132893291D01*
X111882513Y-132898714D01*
X111880826Y-132901956D01*
X111878048Y-132908465D01*
X111876064Y-132914974D01*
X111874873Y-132921483D01*
X111874476Y-132927992D01*
X111874714Y-132934858D01*
X111875429Y-132941487D01*
X111876619Y-132947877D01*
X111878286Y-132954028D01*
X111880971Y-132960575D01*
X111884116Y-132966142D01*
X111887976Y-132971470D01*
X111891939Y-132975937D01*
X111897228Y-132980849D01*
X111902458Y-132985000D01*
X111908250Y-132989014D01*
X111913662Y-132992346D01*
X111917500Y-132994512D01*
X111923726Y-132997704D01*
X111930500Y-133000852D01*
X111936563Y-133003441D01*
X111943006Y-133005999D01*
X111949828Y-133008526D01*
X111957030Y-133011023D01*
X111963080Y-133012970D01*
X111970082Y-133015201D01*
X111977024Y-133017385D01*
X111983904Y-133019524D01*
X111988782Y-133021024D01*
X111995681Y-133023116D01*
X112002625Y-133025222D01*
X112009615Y-133027344D01*
X112016651Y-133029481D01*
X112020692Y-133030709D01*
X112026835Y-133032522D01*
X112033001Y-133034392D01*
X112039189Y-133036318D01*
X112045399Y-133038299D01*
X112051631Y-133040336D01*
X112053714Y-133041028D01*
X112060037Y-133043167D01*
X112066506Y-133045418D01*
X112073120Y-133047781D01*
X112079879Y-133050256D01*
X112086783Y-133052842D01*
X112089117Y-133053728D01*
X112096161Y-133056683D01*
X112103104Y-133059793D01*
X112109947Y-133063059D01*
X112116689Y-133066479D01*
X112123330Y-133070054D01*
X112129870Y-133073784D01*
X112132458Y-133075319D01*
X112138837Y-133079317D01*
X112144975Y-133083571D01*
X112150874Y-133088080D01*
X112156532Y-133092845D01*
X112161950Y-133097866D01*
X112167127Y-133103142D01*
X112169131Y-133105325D01*
X112173933Y-133110937D01*
X112178417Y-133116859D01*
X112182584Y-133123092D01*
X112186433Y-133129634D01*
X112189964Y-133136487D01*
X112193177Y-133143650D01*
X112194373Y-133146602D01*
X112196569Y-133152669D01*
X112198471Y-133158965D01*
X112200081Y-133165489D01*
X112201398Y-133172241D01*
X112202423Y-133179222D01*
X112203154Y-133186430D01*
X112203594Y-133193867D01*
X112203740Y-133201532D01*
X112203602Y-133208470D01*
X112203187Y-133215351D01*
X112202497Y-133222177D01*
X112201530Y-133228947D01*
X112200286Y-133235662D01*
X112198767Y-133242320D01*
X112196971Y-133248923D01*
X112194899Y-133255470D01*
X112192551Y-133261961D01*
X112189926Y-133268396D01*
X112188023Y-133272655D01*
X112184963Y-133278957D01*
X112181619Y-133285122D01*
X112177990Y-133291151D01*
X112174077Y-133297042D01*
X112169879Y-133302797D01*
X112165396Y-133308415D01*
X112160629Y-133313896D01*
X112155577Y-133319241D01*
X112150240Y-133324449D01*
X112144619Y-133329520D01*
X112140713Y-133332825D01*
X112134613Y-133337613D01*
X112128220Y-133342214D01*
X112121534Y-133346629D01*
X112114555Y-133350856D01*
X112107283Y-133354897D01*
X112099718Y-133358750D01*
X112091860Y-133362416D01*
X112083709Y-133365896D01*
X112075265Y-133369188D01*
X112066528Y-133372294D01*
X112060540Y-133374260D01*
X112054439Y-133376125D01*
X112048199Y-133377870D01*
X112041822Y-133379494D01*
X112035308Y-133380998D01*
X112028655Y-133382381D01*
X112021865Y-133383645D01*
X112014938Y-133384788D01*
X112007872Y-133385810D01*
X112000669Y-133386712D01*
X111993329Y-133387494D01*
X111985850Y-133388156D01*
X111978234Y-133388698D01*
X111970481Y-133389119D01*
X111962589Y-133389419D01*
X111954560Y-133389600D01*
X111946393Y-133389660D01*
G37*
G36*
X112277562Y-133343938D02*
G01*
X112342971Y-133320124D01*
X112349084Y-133317245D01*
X112354242Y-133313139D01*
X112357463Y-133307330D01*
X112358366Y-133300662D01*
X112358370Y-133300121D01*
X112358370Y-132878618D01*
X112357458Y-132872233D01*
X112354184Y-132866647D01*
X112353607Y-132866077D01*
X112348312Y-132862070D01*
X112342971Y-132859726D01*
X112277562Y-132835913D01*
X112277562Y-132800351D01*
X112574122Y-132800351D01*
X112574122Y-132835913D01*
X112508714Y-132859726D01*
X112502641Y-132862266D01*
X112497442Y-132866077D01*
X112493989Y-132871435D01*
X112492842Y-132878116D01*
X112492838Y-132878618D01*
X112492838Y-133300121D01*
X112493572Y-133306508D01*
X112496489Y-133312426D01*
X112497283Y-133313297D01*
X112502443Y-133317227D01*
X112508289Y-133319973D01*
X112508714Y-133320124D01*
X112574122Y-133343938D01*
X112574122Y-133379500D01*
X112277562Y-133379500D01*
X112277562Y-133343938D01*
G37*
G36*
X112866554Y-133389660D02*
G01*
X112859359Y-133389582D01*
X112851962Y-133389350D01*
X112844363Y-133388962D01*
X112836564Y-133388420D01*
X112830179Y-133387874D01*
X112823665Y-133387229D01*
X112817021Y-133386485D01*
X112810302Y-133385661D01*
X112803557Y-133384778D01*
X112796787Y-133383836D01*
X112789993Y-133382833D01*
X112783174Y-133381772D01*
X112776330Y-133380650D01*
X112769461Y-133379470D01*
X112762568Y-133378229D01*
X112755664Y-133376902D01*
X112748766Y-133375540D01*
X112741872Y-133374144D01*
X112734983Y-133372713D01*
X112728100Y-133371247D01*
X112721221Y-133369746D01*
X112714347Y-133368210D01*
X112707479Y-133366640D01*
X112700667Y-133365045D01*
X112693964Y-133363435D01*
X112687371Y-133361810D01*
X112680887Y-133360171D01*
X112674512Y-133358516D01*
X112668246Y-133356847D01*
X112662089Y-133355162D01*
X112656041Y-133353463D01*
X112653660Y-133186450D01*
X112707637Y-133186450D01*
X112731610Y-133262812D01*
X112734828Y-133268487D01*
X112735102Y-133268845D01*
X112739357Y-133273846D01*
X112740024Y-133274561D01*
X112744785Y-133279061D01*
X112745263Y-133279482D01*
X112750026Y-133283292D01*
X112755572Y-133286527D01*
X112761734Y-133289881D01*
X112767630Y-133292913D01*
X112773997Y-133296036D01*
X112775903Y-133296945D01*
X112781782Y-133299585D01*
X112787751Y-133302147D01*
X112793808Y-133304631D01*
X112799955Y-133307036D01*
X112806191Y-133309364D01*
X112808290Y-133310122D01*
X112814606Y-133312253D01*
X112820933Y-133314238D01*
X112827272Y-133316078D01*
X112833622Y-133317772D01*
X112839982Y-133319322D01*
X112842105Y-133319807D01*
X112848434Y-133321101D01*
X112855565Y-133322273D01*
X112862421Y-133323081D01*
X112869004Y-133323524D01*
X112873539Y-133323617D01*
X112879976Y-133323525D01*
X112887821Y-133323152D01*
X112895440Y-133322492D01*
X112902834Y-133321546D01*
X112910004Y-133320313D01*
X112916949Y-133318792D01*
X112921008Y-133317743D01*
X112927608Y-133315779D01*
X112933913Y-133313560D01*
X112939924Y-133311085D01*
X112946748Y-133307777D01*
X112953148Y-133304101D01*
X112958157Y-133300756D01*
X112963800Y-133296389D01*
X112968940Y-133291744D01*
X112973578Y-133286819D01*
X112977714Y-133281615D01*
X112981348Y-133276133D01*
X112982447Y-133274243D01*
X112985361Y-133268394D01*
X112987671Y-133262277D01*
X112989379Y-133255892D01*
X112990484Y-133249239D01*
X112990987Y-133242318D01*
X112991020Y-133239951D01*
X112990762Y-133232824D01*
X112989987Y-133226169D01*
X112988469Y-133219139D01*
X112986276Y-133212724D01*
X112985622Y-133211216D01*
X112982695Y-133205382D01*
X112979153Y-133199944D01*
X112974995Y-133194904D01*
X112970223Y-133190260D01*
X112964875Y-133185865D01*
X112958991Y-133181727D01*
X112953403Y-133178318D01*
X112947404Y-133175107D01*
X112945615Y-133174226D01*
X112939112Y-133171162D01*
X112933248Y-133168524D01*
X112927116Y-133165875D01*
X112920716Y-133163214D01*
X112914049Y-133160543D01*
X112912911Y-133160096D01*
X112906530Y-133157592D01*
X112900126Y-133155199D01*
X112893700Y-133152919D01*
X112887252Y-133150749D01*
X112880781Y-133148692D01*
X112878620Y-133148031D01*
X112872153Y-133146077D01*
X112865730Y-133144146D01*
X112859353Y-133142237D01*
X112853020Y-133140351D01*
X112846732Y-133138486D01*
X112844645Y-133137870D01*
X112838394Y-133136024D01*
X112832143Y-133134179D01*
X112825892Y-133132333D01*
X112819641Y-133130488D01*
X112813390Y-133128642D01*
X112811306Y-133128027D01*
X112805083Y-133126088D01*
X112798916Y-133124083D01*
X112792804Y-133122010D01*
X112786748Y-133119871D01*
X112780748Y-133117664D01*
X112778761Y-133116914D01*
X112772559Y-133114424D01*
X112766497Y-133111794D01*
X112760573Y-133109026D01*
X112754788Y-133106118D01*
X112749143Y-133103072D01*
X112743636Y-133099887D01*
X112736947Y-133095711D01*
X112733039Y-133093100D01*
X112726782Y-133088572D01*
X112720812Y-133083820D01*
X112715129Y-133078842D01*
X112709733Y-133073640D01*
X112704624Y-133068213D01*
X112699802Y-133062561D01*
X112697953Y-133060237D01*
X112693552Y-133054221D01*
X112689476Y-133047980D01*
X112685725Y-133041514D01*
X112682301Y-133034824D01*
X112679201Y-133027908D01*
X112676428Y-133020768D01*
X112675409Y-133017849D01*
X112673123Y-133010333D01*
X112671572Y-133004141D01*
X112670270Y-132997791D01*
X112669216Y-132991282D01*
X112668410Y-132984614D01*
X112667851Y-132977788D01*
X112667541Y-132970802D01*
X112667472Y-132965459D01*
X112667603Y-132958918D01*
X112667997Y-132952471D01*
X112668655Y-132946118D01*
X112669846Y-132938309D01*
X112671449Y-132930648D01*
X112673462Y-132923134D01*
X112675886Y-132915768D01*
X112678728Y-132908572D01*
X112681895Y-132901570D01*
X112685388Y-132894761D01*
X112689207Y-132888146D01*
X112693351Y-132881726D01*
X112697820Y-132875499D01*
X112699699Y-132873062D01*
X112704606Y-132867102D01*
X112709799Y-132861329D01*
X112715278Y-132855741D01*
X112721045Y-132850340D01*
X112725865Y-132846153D01*
X112730868Y-132842084D01*
X112736055Y-132838135D01*
X112741433Y-132834323D01*
X112746930Y-132830664D01*
X112752546Y-132827159D01*
X112758281Y-132823807D01*
X112764135Y-132820610D01*
X112770109Y-132817566D01*
X112776201Y-132814676D01*
X112782412Y-132811940D01*
X112788773Y-132809360D01*
X112795232Y-132806939D01*
X112801791Y-132804677D01*
X112808449Y-132802573D01*
X112815206Y-132800629D01*
X112822062Y-132798843D01*
X112829018Y-132797215D01*
X112836072Y-132795747D01*
X112843239Y-132794445D01*
X112850450Y-132793316D01*
X112857706Y-132792361D01*
X112865006Y-132791579D01*
X112872351Y-132790972D01*
X112879741Y-132790538D01*
X112887175Y-132790277D01*
X112894654Y-132790190D01*
X112901066Y-132790225D01*
X112907523Y-132790329D01*
X112914025Y-132790503D01*
X112920571Y-132790746D01*
X112927162Y-132791059D01*
X112933798Y-132791441D01*
X112940478Y-132791892D01*
X112947203Y-132792413D01*
X112953967Y-132792956D01*
X112960687Y-132793554D01*
X112967363Y-132794206D01*
X112973993Y-132794913D01*
X112980579Y-132795675D01*
X112987121Y-132796491D01*
X112993617Y-132797362D01*
X113000069Y-132798287D01*
X113006496Y-132799212D01*
X113012839Y-132800162D01*
X113020649Y-132801385D01*
X113028328Y-132802646D01*
X113035874Y-132803946D01*
X113043289Y-132805285D01*
X113049125Y-132806384D01*
X113056256Y-132807769D01*
X113063163Y-132809146D01*
X113069844Y-132810516D01*
X113076300Y-132811878D01*
X113082532Y-132813232D01*
X113089713Y-132814847D01*
X113090879Y-132815115D01*
X113090879Y-132973079D01*
X113037377Y-132973079D01*
X113014199Y-132903226D01*
X113011222Y-132897511D01*
X113006773Y-132892441D01*
X113006420Y-132892113D01*
X113001571Y-132887954D01*
X112996401Y-132884243D01*
X112995783Y-132883857D01*
X112989990Y-132880784D01*
X112983697Y-132877815D01*
X112978319Y-132875443D01*
X112971740Y-132872738D01*
X112965492Y-132870438D01*
X112958866Y-132868238D01*
X112952759Y-132866394D01*
X112946470Y-132864587D01*
X112940105Y-132862917D01*
X112933664Y-132861383D01*
X112927147Y-132859987D01*
X112923389Y-132859250D01*
X112916936Y-132858075D01*
X112910635Y-132857188D01*
X112903620Y-132856528D01*
X112896804Y-132856245D01*
X112895130Y-132856234D01*
X112887492Y-132856389D01*
X112880157Y-132856854D01*
X112873124Y-132857629D01*
X112866393Y-132858714D01*
X112859964Y-132860110D01*
X112853838Y-132861815D01*
X112851472Y-132862584D01*
X112844707Y-132865094D01*
X112838345Y-132867860D01*
X112832384Y-132870883D01*
X112826825Y-132874163D01*
X112820847Y-132878314D01*
X112820038Y-132878936D01*
X112814785Y-132883402D01*
X112810140Y-132888187D01*
X112806103Y-132893291D01*
X112802674Y-132898714D01*
X112800987Y-132901956D01*
X112798209Y-132908465D01*
X112796224Y-132914974D01*
X112795034Y-132921483D01*
X112794637Y-132927992D01*
X112794875Y-132934858D01*
X112795589Y-132941487D01*
X112796780Y-132947877D01*
X112798447Y-132954028D01*
X112801131Y-132960575D01*
X112804277Y-132966142D01*
X112808137Y-132971470D01*
X112812100Y-132975937D01*
X112817389Y-132980849D01*
X112822618Y-132985000D01*
X112828410Y-132989014D01*
X112833823Y-132992346D01*
X112837660Y-132994512D01*
X112843887Y-132997704D01*
X112850661Y-133000852D01*
X112856724Y-133003441D01*
X112863166Y-133005999D01*
X112869988Y-133008526D01*
X112877191Y-133011023D01*
X112883241Y-133012970D01*
X112890243Y-133015201D01*
X112897184Y-133017385D01*
X112904065Y-133019524D01*
X112908942Y-133021024D01*
X112915841Y-133023116D01*
X112922786Y-133025222D01*
X112929776Y-133027344D01*
X112936812Y-133029481D01*
X112940853Y-133030709D01*
X112946996Y-133032522D01*
X112953161Y-133034392D01*
X112959349Y-133036318D01*
X112965559Y-133038299D01*
X112971792Y-133040336D01*
X112973874Y-133041028D01*
X112980198Y-133043167D01*
X112986667Y-133045418D01*
X112993281Y-133047781D01*
X113000040Y-133050256D01*
X113006944Y-133052842D01*
X113009277Y-133053728D01*
X113016321Y-133056683D01*
X113023265Y-133059793D01*
X113030107Y-133063059D01*
X113036849Y-133066479D01*
X113043490Y-133070054D01*
X113050030Y-133073784D01*
X113052618Y-133075319D01*
X113058997Y-133079317D01*
X113065136Y-133083571D01*
X113071034Y-133088080D01*
X113076692Y-133092845D01*
X113082110Y-133097866D01*
X113087287Y-133103142D01*
X113089291Y-133105325D01*
X113094093Y-133110937D01*
X113098578Y-133116859D01*
X113102745Y-133123092D01*
X113106593Y-133129634D01*
X113110124Y-133136487D01*
X113113337Y-133143650D01*
X113114534Y-133146602D01*
X113116729Y-133152669D01*
X113118632Y-133158965D01*
X113120242Y-133165489D01*
X113121559Y-133172241D01*
X113122583Y-133179222D01*
X113123315Y-133186430D01*
X113123754Y-133193867D01*
X113123900Y-133201532D01*
X113123762Y-133208470D01*
X113123348Y-133215351D01*
X113122657Y-133222177D01*
X113121690Y-133228947D01*
X113120447Y-133235662D01*
X113118927Y-133242320D01*
X113117132Y-133248923D01*
X113115060Y-133255470D01*
X113112711Y-133261961D01*
X113110087Y-133268396D01*
X113108183Y-133272655D01*
X113105124Y-133278957D01*
X113101780Y-133285122D01*
X113098151Y-133291151D01*
X113094237Y-133297042D01*
X113090039Y-133302797D01*
X113085557Y-133308415D01*
X113080789Y-133313896D01*
X113075737Y-133319241D01*
X113070401Y-133324449D01*
X113064779Y-133329520D01*
X113060874Y-133332825D01*
X113054774Y-133337613D01*
X113048381Y-133342214D01*
X113041695Y-133346629D01*
X113034716Y-133350856D01*
X113027444Y-133354897D01*
X113019879Y-133358750D01*
X113012021Y-133362416D01*
X113003870Y-133365896D01*
X112995425Y-133369188D01*
X112986688Y-133372294D01*
X112980701Y-133374260D01*
X112974599Y-133376125D01*
X112968360Y-133377870D01*
X112961983Y-133379494D01*
X112955468Y-133380998D01*
X112948816Y-133382381D01*
X112942026Y-133383645D01*
X112935098Y-133384788D01*
X112928033Y-133385810D01*
X112920830Y-133386712D01*
X112913489Y-133387494D01*
X112906011Y-133388156D01*
X112898395Y-133388698D01*
X112890641Y-133389119D01*
X112882750Y-133389419D01*
X112874721Y-133389600D01*
X112866554Y-133389660D01*
G37*
G36*
X113306631Y-133343938D02*
G01*
X113373309Y-133319807D01*
X113379308Y-133317219D01*
X113384527Y-133313369D01*
X113385057Y-133312821D01*
X113388278Y-133306888D01*
X113389181Y-133300186D01*
X113389185Y-133299644D01*
X113389185Y-132866394D01*
X113270434Y-132866394D01*
X113263925Y-132867347D01*
X113259003Y-132870204D01*
X113255141Y-132875646D01*
X113252971Y-132881476D01*
X113229316Y-132967999D01*
X113176132Y-132967999D01*
X113176132Y-132800351D01*
X113737023Y-132800351D01*
X113737023Y-132967999D01*
X113683363Y-132967999D01*
X113660184Y-132881476D01*
X113657726Y-132875476D01*
X113653675Y-132870363D01*
X113648172Y-132867154D01*
X113643197Y-132866394D01*
X113523653Y-132866394D01*
X113523653Y-133299644D01*
X113524439Y-133306084D01*
X113527299Y-133311886D01*
X113528415Y-133313139D01*
X113533654Y-133317108D01*
X113539528Y-133319807D01*
X113606524Y-133343938D01*
X113606524Y-133379500D01*
X113306631Y-133379500D01*
X113306631Y-133343938D01*
G37*
G36*
X113792747Y-133343938D02*
G01*
X113855298Y-133320124D01*
X113861251Y-133317227D01*
X113866093Y-133313297D01*
X113869308Y-133307781D01*
X113870363Y-133301195D01*
X113870380Y-133300121D01*
X113870380Y-132878618D01*
X113869499Y-132872233D01*
X113866333Y-132866647D01*
X113865776Y-132866077D01*
X113860605Y-132862070D01*
X113855298Y-132859726D01*
X113792747Y-132835913D01*
X113792747Y-132800351D01*
X114298709Y-132800351D01*
X114298709Y-132960379D01*
X114244572Y-132960379D01*
X114221076Y-132883857D01*
X114218688Y-132877892D01*
X114214884Y-132872903D01*
X114209108Y-132869589D01*
X114203930Y-132868934D01*
X114004848Y-132868934D01*
X114004848Y-133044203D01*
X114114549Y-133044203D01*
X114121018Y-133043534D01*
X114126297Y-133040710D01*
X114129747Y-133035095D01*
X114132013Y-133028645D01*
X114153921Y-132962919D01*
X114199167Y-132962919D01*
X114199167Y-133191530D01*
X114153921Y-133191530D01*
X114132013Y-133126122D01*
X114129764Y-133120052D01*
X114126456Y-133114691D01*
X114121048Y-133111097D01*
X114114549Y-133110246D01*
X114004848Y-133110246D01*
X114004848Y-133310916D01*
X114235205Y-133310916D01*
X114241669Y-133309610D01*
X114246001Y-133306788D01*
X114250165Y-133301686D01*
X114252351Y-133295993D01*
X114275530Y-133209311D01*
X114329508Y-133209311D01*
X114329508Y-133379500D01*
X113792747Y-133379500D01*
X113792747Y-133343938D01*
G37*
G36*
X114405553Y-133343938D02*
G01*
X114468103Y-133317425D01*
X114473739Y-133314250D01*
X114478581Y-133310440D01*
X114482034Y-133305082D01*
X114483167Y-133298635D01*
X114483185Y-133297580D01*
X114483185Y-132878618D01*
X114482304Y-132872233D01*
X114479139Y-132866647D01*
X114478581Y-132866077D01*
X114473410Y-132862070D01*
X114468103Y-132859726D01*
X114405553Y-132835913D01*
X114405553Y-132800351D01*
X114664804Y-132800351D01*
X114780221Y-133130250D01*
X114800066Y-133200579D01*
X114806575Y-133200579D01*
X114943265Y-132800351D01*
X115198866Y-132800351D01*
X115198866Y-132835913D01*
X115137109Y-132859726D01*
X115131320Y-132862377D01*
X115125838Y-132866128D01*
X115125519Y-132866394D01*
X115121709Y-132871514D01*
X115120444Y-132878116D01*
X115120439Y-132878618D01*
X115120439Y-133300121D01*
X115121225Y-133306508D01*
X115124351Y-133312426D01*
X115125202Y-133313297D01*
X115130639Y-133317227D01*
X115136674Y-133319973D01*
X115137109Y-133320124D01*
X115198866Y-133343938D01*
X115198866Y-133379500D01*
X114909926Y-133379500D01*
X114909926Y-133343938D01*
X114971207Y-133320124D01*
X114977232Y-133317166D01*
X114982506Y-133313395D01*
X114982796Y-133313139D01*
X114986368Y-133307701D01*
X114987540Y-133301055D01*
X114987559Y-133299962D01*
X114987559Y-132897669D01*
X114980097Y-132897669D01*
X114959776Y-132960220D01*
X114844042Y-133289801D01*
X114805464Y-133379500D01*
X114731482Y-133379500D01*
X114585108Y-132960379D01*
X114565580Y-132897352D01*
X114558278Y-132897352D01*
X114558278Y-133297580D01*
X114559037Y-133304018D01*
X114562059Y-133309783D01*
X114562882Y-133310599D01*
X114568300Y-133314457D01*
X114573677Y-133317266D01*
X114635593Y-133343938D01*
X114635593Y-133379500D01*
X114405553Y-133379500D01*
X114405553Y-133343938D01*
G37*
G36*
X115796589Y-133303931D02*
G01*
X115799515Y-133310078D01*
X115803291Y-133315738D01*
X115804527Y-133317266D01*
X115809245Y-133321846D01*
X115814908Y-133325202D01*
X115816116Y-133325681D01*
X115859616Y-133343938D01*
X115859616Y-133379500D01*
X115595443Y-133379500D01*
X115595443Y-133343938D01*
X115663709Y-133319330D01*
X115612430Y-133191530D01*
X115407950Y-133191530D01*
X115359687Y-133316949D01*
X115428747Y-133343938D01*
X115428747Y-133379500D01*
X115224743Y-133379500D01*
X115224743Y-133343938D01*
X115266496Y-133324569D01*
X115272561Y-133321281D01*
X115277835Y-133317111D01*
X115282319Y-133312061D01*
X115286014Y-133306129D01*
X115287770Y-133302343D01*
X115358161Y-133125487D01*
X115433986Y-133125487D01*
X115586870Y-133125487D01*
X115531622Y-132985145D01*
X115515270Y-132931009D01*
X115508443Y-132931009D01*
X115433986Y-133125487D01*
X115358161Y-133125487D01*
X115453196Y-132886715D01*
X115502252Y-132790190D01*
X115597348Y-132790190D01*
X115796589Y-133303931D01*
G37*
G36*
X116104579Y-133389660D02*
G01*
X116097384Y-133389582D01*
X116089987Y-133389350D01*
X116082389Y-133388962D01*
X116074589Y-133388420D01*
X116068204Y-133387874D01*
X116061690Y-133387229D01*
X116055047Y-133386485D01*
X116048327Y-133385661D01*
X116041582Y-133384778D01*
X116034812Y-133383836D01*
X116028018Y-133382833D01*
X116021199Y-133381772D01*
X116014355Y-133380650D01*
X116007486Y-133379470D01*
X116000593Y-133378229D01*
X115993689Y-133376902D01*
X115986791Y-133375540D01*
X115979897Y-133374144D01*
X115973008Y-133372713D01*
X115966125Y-133371247D01*
X115959246Y-133369746D01*
X115952372Y-133368210D01*
X115945504Y-133366640D01*
X115938692Y-133365045D01*
X115931989Y-133363435D01*
X115925396Y-133361810D01*
X115918912Y-133360171D01*
X115912537Y-133358516D01*
X115906271Y-133356847D01*
X115900114Y-133355162D01*
X115894066Y-133353463D01*
X115891685Y-133186450D01*
X115945662Y-133186450D01*
X115969635Y-133262812D01*
X115972853Y-133268487D01*
X115973128Y-133268845D01*
X115977382Y-133273846D01*
X115978049Y-133274561D01*
X115982810Y-133279061D01*
X115983288Y-133279482D01*
X115988051Y-133283292D01*
X115993597Y-133286527D01*
X115999759Y-133289881D01*
X116005655Y-133292913D01*
X116012023Y-133296036D01*
X116013928Y-133296945D01*
X116019807Y-133299585D01*
X116025776Y-133302147D01*
X116031833Y-133304631D01*
X116037980Y-133307036D01*
X116044216Y-133309364D01*
X116046315Y-133310122D01*
X116052631Y-133312253D01*
X116058958Y-133314238D01*
X116065297Y-133316078D01*
X116071647Y-133317772D01*
X116078008Y-133319322D01*
X116080130Y-133319807D01*
X116086460Y-133321101D01*
X116093590Y-133322273D01*
X116100446Y-133323081D01*
X116107030Y-133323524D01*
X116111564Y-133323617D01*
X116118002Y-133323525D01*
X116125846Y-133323152D01*
X116133465Y-133322492D01*
X116140859Y-133321546D01*
X116148029Y-133320313D01*
X116154974Y-133318792D01*
X116159033Y-133317743D01*
X116165633Y-133315779D01*
X116171938Y-133313560D01*
X116177949Y-133311085D01*
X116184773Y-133307777D01*
X116191173Y-133304101D01*
X116196182Y-133300756D01*
X116201825Y-133296389D01*
X116206965Y-133291744D01*
X116211604Y-133286819D01*
X116215739Y-133281615D01*
X116219373Y-133276133D01*
X116220472Y-133274243D01*
X116223386Y-133268394D01*
X116225696Y-133262277D01*
X116227404Y-133255892D01*
X116228509Y-133249239D01*
X116229012Y-133242318D01*
X116229045Y-133239951D01*
X116228787Y-133232824D01*
X116228012Y-133226169D01*
X116226494Y-133219139D01*
X116224301Y-133212724D01*
X116223647Y-133211216D01*
X116220720Y-133205382D01*
X116217178Y-133199944D01*
X116213021Y-133194904D01*
X116208248Y-133190260D01*
X116202900Y-133185865D01*
X116197016Y-133181727D01*
X116191428Y-133178318D01*
X116185430Y-133175107D01*
X116183640Y-133174226D01*
X116177138Y-133171162D01*
X116171273Y-133168524D01*
X116165141Y-133165875D01*
X116158742Y-133163214D01*
X116152074Y-133160543D01*
X116150936Y-133160096D01*
X116144555Y-133157592D01*
X116138151Y-133155199D01*
X116131725Y-133152919D01*
X116125277Y-133150749D01*
X116118806Y-133148692D01*
X116116645Y-133148031D01*
X116110178Y-133146077D01*
X116103755Y-133144146D01*
X116097378Y-133142237D01*
X116091045Y-133140351D01*
X116084757Y-133138486D01*
X116082670Y-133137870D01*
X116076419Y-133136024D01*
X116070168Y-133134179D01*
X116063917Y-133132333D01*
X116057666Y-133130488D01*
X116051415Y-133128642D01*
X116049331Y-133128027D01*
X116043108Y-133126088D01*
X116036941Y-133124083D01*
X116030829Y-133122010D01*
X116024773Y-133119871D01*
X116018774Y-133117664D01*
X116016786Y-133116914D01*
X116010584Y-133114424D01*
X116004522Y-133111794D01*
X115998598Y-133109026D01*
X115992814Y-133106118D01*
X115987168Y-133103072D01*
X115981661Y-133099887D01*
X115974972Y-133095711D01*
X115971064Y-133093100D01*
X115964807Y-133088572D01*
X115958837Y-133083820D01*
X115953155Y-133078842D01*
X115947759Y-133073640D01*
X115942649Y-133068213D01*
X115937827Y-133062561D01*
X115935978Y-133060237D01*
X115931577Y-133054221D01*
X115927501Y-133047980D01*
X115923750Y-133041514D01*
X115920326Y-133034824D01*
X115917226Y-133027908D01*
X115914453Y-133020768D01*
X115913435Y-133017849D01*
X115911148Y-133010333D01*
X115909597Y-133004141D01*
X115908295Y-132997791D01*
X115907241Y-132991282D01*
X115906435Y-132984614D01*
X115905877Y-132977788D01*
X115905566Y-132970802D01*
X115905497Y-132965459D01*
X115905628Y-132958918D01*
X115906023Y-132952471D01*
X115906680Y-132946118D01*
X115907871Y-132938309D01*
X115909474Y-132930648D01*
X115911487Y-132923134D01*
X115913911Y-132915768D01*
X115916753Y-132908572D01*
X115919920Y-132901570D01*
X115923413Y-132894761D01*
X115927232Y-132888146D01*
X115931376Y-132881726D01*
X115935846Y-132875499D01*
X115937725Y-132873062D01*
X115942631Y-132867102D01*
X115947824Y-132861329D01*
X115953303Y-132855741D01*
X115959070Y-132850340D01*
X115963890Y-132846153D01*
X115968893Y-132842084D01*
X115974080Y-132838135D01*
X115979458Y-132834323D01*
X115984955Y-132830664D01*
X115990571Y-132827159D01*
X115996306Y-132823807D01*
X116002160Y-132820610D01*
X116008134Y-132817566D01*
X116014226Y-132814676D01*
X116020437Y-132811940D01*
X116026798Y-132809360D01*
X116033257Y-132806939D01*
X116039816Y-132804677D01*
X116046474Y-132802573D01*
X116053231Y-132800629D01*
X116060087Y-132798843D01*
X116067043Y-132797215D01*
X116074098Y-132795747D01*
X116081264Y-132794445D01*
X116088475Y-132793316D01*
X116095731Y-132792361D01*
X116103031Y-132791579D01*
X116110376Y-132790972D01*
X116117766Y-132790538D01*
X116125200Y-132790277D01*
X116132679Y-132790190D01*
X116139092Y-132790225D01*
X116145549Y-132790329D01*
X116152050Y-132790503D01*
X116158596Y-132790746D01*
X116165187Y-132791059D01*
X116171823Y-132791441D01*
X116178503Y-132791892D01*
X116185228Y-132792413D01*
X116191993Y-132792956D01*
X116198713Y-132793554D01*
X116205388Y-132794206D01*
X116212018Y-132794913D01*
X116218604Y-132795675D01*
X116225146Y-132796491D01*
X116231642Y-132797362D01*
X116238094Y-132798287D01*
X116244522Y-132799212D01*
X116250864Y-132800162D01*
X116258674Y-132801385D01*
X116266353Y-132802646D01*
X116273899Y-132803946D01*
X116281314Y-132805285D01*
X116287151Y-132806384D01*
X116294282Y-132807769D01*
X116301188Y-132809146D01*
X116307869Y-132810516D01*
X116314325Y-132811878D01*
X116320557Y-132813232D01*
X116327738Y-132814847D01*
X116328904Y-132815115D01*
X116328904Y-132973079D01*
X116275403Y-132973079D01*
X116252224Y-132903226D01*
X116249247Y-132897511D01*
X116244798Y-132892441D01*
X116244445Y-132892113D01*
X116239596Y-132887954D01*
X116234426Y-132884243D01*
X116233808Y-132883857D01*
X116228015Y-132880784D01*
X116221723Y-132877815D01*
X116216345Y-132875443D01*
X116209766Y-132872738D01*
X116203517Y-132870438D01*
X116196891Y-132868238D01*
X116190785Y-132866394D01*
X116184495Y-132864587D01*
X116178130Y-132862917D01*
X116171689Y-132861383D01*
X116165172Y-132859987D01*
X116161414Y-132859250D01*
X116154961Y-132858075D01*
X116148660Y-132857188D01*
X116141645Y-132856528D01*
X116134829Y-132856245D01*
X116133155Y-132856234D01*
X116125518Y-132856389D01*
X116118182Y-132856854D01*
X116111149Y-132857629D01*
X116104418Y-132858714D01*
X116097989Y-132860110D01*
X116091863Y-132861815D01*
X116089497Y-132862584D01*
X116082732Y-132865094D01*
X116076370Y-132867860D01*
X116070409Y-132870883D01*
X116064850Y-132874163D01*
X116058872Y-132878314D01*
X116058063Y-132878936D01*
X116052810Y-132883402D01*
X116048165Y-132888187D01*
X116044128Y-132893291D01*
X116040699Y-132898714D01*
X116039012Y-132901956D01*
X116036234Y-132908465D01*
X116034249Y-132914974D01*
X116033059Y-132921483D01*
X116032662Y-132927992D01*
X116032900Y-132934858D01*
X116033614Y-132941487D01*
X116034805Y-132947877D01*
X116036472Y-132954028D01*
X116039157Y-132960575D01*
X116042302Y-132966142D01*
X116046162Y-132971470D01*
X116050125Y-132975937D01*
X116055414Y-132980849D01*
X116060644Y-132985000D01*
X116066436Y-132989014D01*
X116071848Y-132992346D01*
X116075685Y-132994512D01*
X116081912Y-132997704D01*
X116088686Y-133000852D01*
X116094749Y-133003441D01*
X116101191Y-133005999D01*
X116108014Y-133008526D01*
X116115216Y-133011023D01*
X116121266Y-133012970D01*
X116128268Y-133015201D01*
X116135209Y-133017385D01*
X116142090Y-133019524D01*
X116146967Y-133021024D01*
X116153866Y-133023116D01*
X116160811Y-133025222D01*
X116167801Y-133027344D01*
X116174837Y-133029481D01*
X116178878Y-133030709D01*
X116185021Y-133032522D01*
X116191186Y-133034392D01*
X116197374Y-133036318D01*
X116203584Y-133038299D01*
X116209817Y-133040336D01*
X116211899Y-133041028D01*
X116218223Y-133043167D01*
X116224692Y-133045418D01*
X116231306Y-133047781D01*
X116238065Y-133050256D01*
X116244969Y-133052842D01*
X116247302Y-133053728D01*
X116254346Y-133056683D01*
X116261290Y-133059793D01*
X116268132Y-133063059D01*
X116274874Y-133066479D01*
X116281515Y-133070054D01*
X116288055Y-133073784D01*
X116290643Y-133075319D01*
X116297022Y-133079317D01*
X116303161Y-133083571D01*
X116309059Y-133088080D01*
X116314717Y-133092845D01*
X116320135Y-133097866D01*
X116325313Y-133103142D01*
X116327316Y-133105325D01*
X116332119Y-133110937D01*
X116336603Y-133116859D01*
X116340770Y-133123092D01*
X116344618Y-133129634D01*
X116348149Y-133136487D01*
X116351363Y-133143650D01*
X116352559Y-133146602D01*
X116354754Y-133152669D01*
X116356657Y-133158965D01*
X116358267Y-133165489D01*
X116359584Y-133172241D01*
X116360608Y-133179222D01*
X116361340Y-133186430D01*
X116361779Y-133193867D01*
X116361926Y-133201532D01*
X116361787Y-133208470D01*
X116361373Y-133215351D01*
X116360682Y-133222177D01*
X116359715Y-133228947D01*
X116358472Y-133235662D01*
X116356953Y-133242320D01*
X116355157Y-133248923D01*
X116353085Y-133255470D01*
X116350736Y-133261961D01*
X116348112Y-133268396D01*
X116346209Y-133272655D01*
X116343149Y-133278957D01*
X116339805Y-133285122D01*
X116336176Y-133291151D01*
X116332263Y-133297042D01*
X116328065Y-133302797D01*
X116323582Y-133308415D01*
X116318814Y-133313896D01*
X116313762Y-133319241D01*
X116308426Y-133324449D01*
X116302804Y-133329520D01*
X116298899Y-133332825D01*
X116292799Y-133337613D01*
X116286406Y-133342214D01*
X116279720Y-133346629D01*
X116272741Y-133350856D01*
X116265469Y-133354897D01*
X116257904Y-133358750D01*
X116250046Y-133362416D01*
X116241895Y-133365896D01*
X116233451Y-133369188D01*
X116224713Y-133372294D01*
X116218726Y-133374260D01*
X116212624Y-133376125D01*
X116206385Y-133377870D01*
X116200008Y-133379494D01*
X116193493Y-133380998D01*
X116186841Y-133382381D01*
X116180051Y-133383645D01*
X116173123Y-133384788D01*
X116166058Y-133385810D01*
X116158855Y-133386712D01*
X116151514Y-133387494D01*
X116144036Y-133388156D01*
X116136420Y-133388698D01*
X116128666Y-133389119D01*
X116120775Y-133389419D01*
X116112746Y-133389600D01*
X116104579Y-133389660D01*
G37*
G36*
X116694841Y-133343938D02*
G01*
X116757391Y-133320124D01*
X116763345Y-133317227D01*
X116768187Y-133313297D01*
X116771402Y-133307781D01*
X116772457Y-133301195D01*
X116772473Y-133300121D01*
X116772473Y-132878618D01*
X116771592Y-132872233D01*
X116768427Y-132866647D01*
X116767869Y-132866077D01*
X116762698Y-132862070D01*
X116757391Y-132859726D01*
X116694841Y-132835913D01*
X116694841Y-132800351D01*
X117200802Y-132800351D01*
X117200802Y-132960379D01*
X117146666Y-132960379D01*
X117123169Y-132883857D01*
X117120781Y-132877892D01*
X117116978Y-132872903D01*
X117111201Y-132869589D01*
X117106024Y-132868934D01*
X116906941Y-132868934D01*
X116906941Y-133044203D01*
X117016643Y-133044203D01*
X117023111Y-133043534D01*
X117028391Y-133040710D01*
X117031840Y-133035095D01*
X117034106Y-133028645D01*
X117056015Y-132962919D01*
X117101261Y-132962919D01*
X117101261Y-133191530D01*
X117056015Y-133191530D01*
X117034106Y-133126122D01*
X117031857Y-133120052D01*
X117028550Y-133114691D01*
X117023141Y-133111097D01*
X117016643Y-133110246D01*
X116906941Y-133110246D01*
X116906941Y-133310916D01*
X117137299Y-133310916D01*
X117143762Y-133309610D01*
X117148094Y-133306788D01*
X117152259Y-133301686D01*
X117154445Y-133295993D01*
X117177623Y-133209311D01*
X117231601Y-133209311D01*
X117231601Y-133379500D01*
X116694841Y-133379500D01*
X116694841Y-133343938D01*
G37*
G36*
X117307646Y-133343938D02*
G01*
X117370197Y-133317425D01*
X117375833Y-133314250D01*
X117380675Y-133310440D01*
X117384128Y-133305082D01*
X117385261Y-133298635D01*
X117385279Y-133297580D01*
X117385279Y-132878618D01*
X117384397Y-132872233D01*
X117381232Y-132866647D01*
X117380675Y-132866077D01*
X117375504Y-132862070D01*
X117370197Y-132859726D01*
X117307646Y-132835913D01*
X117307646Y-132800351D01*
X117566898Y-132800351D01*
X117682315Y-133130250D01*
X117702159Y-133200579D01*
X117708668Y-133200579D01*
X117845359Y-132800351D01*
X118100959Y-132800351D01*
X118100959Y-132835913D01*
X118039202Y-132859726D01*
X118033414Y-132862377D01*
X118027932Y-132866128D01*
X118027613Y-132866394D01*
X118023803Y-132871514D01*
X118022538Y-132878116D01*
X118022533Y-132878618D01*
X118022533Y-133300121D01*
X118023319Y-133306508D01*
X118026444Y-133312426D01*
X118027295Y-133313297D01*
X118032733Y-133317227D01*
X118038768Y-133319973D01*
X118039202Y-133320124D01*
X118100959Y-133343938D01*
X118100959Y-133379500D01*
X117812020Y-133379500D01*
X117812020Y-133343938D01*
X117873300Y-133320124D01*
X117879326Y-133317166D01*
X117884600Y-133313395D01*
X117884890Y-133313139D01*
X117888462Y-133307701D01*
X117889634Y-133301055D01*
X117889652Y-133299962D01*
X117889652Y-132897669D01*
X117882191Y-132897669D01*
X117861870Y-132960220D01*
X117746135Y-133289801D01*
X117707557Y-133379500D01*
X117633576Y-133379500D01*
X117487201Y-132960379D01*
X117467674Y-132897352D01*
X117460371Y-132897352D01*
X117460371Y-133297580D01*
X117461131Y-133304018D01*
X117464152Y-133309783D01*
X117464975Y-133310599D01*
X117470394Y-133314457D01*
X117475771Y-133317266D01*
X117537686Y-133343938D01*
X117537686Y-133379500D01*
X117307646Y-133379500D01*
X117307646Y-133343938D01*
G37*
G36*
X118470158Y-132800394D02*
G01*
X118478001Y-132800522D01*
X118485662Y-132800736D01*
X118493141Y-132801036D01*
X118500437Y-132801421D01*
X118507550Y-132801891D01*
X118514482Y-132802448D01*
X118521231Y-132803089D01*
X118527797Y-132803817D01*
X118534182Y-132804630D01*
X118543417Y-132806010D01*
X118552241Y-132807582D01*
X118560656Y-132809348D01*
X118568660Y-132811305D01*
X118576332Y-132813396D01*
X118583692Y-132815621D01*
X118590739Y-132817980D01*
X118597474Y-132820473D01*
X118603896Y-132823100D01*
X118610006Y-132825861D01*
X118615803Y-132828756D01*
X118623047Y-132832824D01*
X118629734Y-132837131D01*
X118634385Y-132840517D01*
X118640143Y-132845165D01*
X118645429Y-132849983D01*
X118650244Y-132854969D01*
X118654587Y-132860123D01*
X118658460Y-132865447D01*
X118661860Y-132870939D01*
X118664790Y-132876599D01*
X118667248Y-132882429D01*
X118669855Y-132889810D01*
X118672020Y-132897269D01*
X118673744Y-132904805D01*
X118675025Y-132912419D01*
X118675864Y-132920110D01*
X118676262Y-132927879D01*
X118676297Y-132931009D01*
X118676161Y-132937922D01*
X118675752Y-132944692D01*
X118675070Y-132951317D01*
X118674115Y-132957799D01*
X118672887Y-132964137D01*
X118671386Y-132970331D01*
X118669126Y-132977871D01*
X118667566Y-132982287D01*
X118664651Y-132989407D01*
X118661364Y-132996278D01*
X118657705Y-133002901D01*
X118653674Y-133009276D01*
X118649271Y-133015403D01*
X118644496Y-133021282D01*
X118642482Y-133023564D01*
X118637247Y-133029088D01*
X118631664Y-133034349D01*
X118625731Y-133039346D01*
X118619450Y-133044079D01*
X118614174Y-133047676D01*
X118608674Y-133051104D01*
X118602951Y-133054363D01*
X118597030Y-133057457D01*
X118590935Y-133060386D01*
X118584667Y-133063152D01*
X118578225Y-133065754D01*
X118571609Y-133068193D01*
X118564820Y-133070467D01*
X118557857Y-133072578D01*
X118550720Y-133074526D01*
X118550720Y-133078177D01*
X118557452Y-133078637D01*
X118564076Y-133079241D01*
X118570591Y-133079991D01*
X118576997Y-133080886D01*
X118583294Y-133081926D01*
X118591521Y-133083538D01*
X118599554Y-133085409D01*
X118607394Y-133087537D01*
X118615041Y-133089923D01*
X118616922Y-133090560D01*
X118624332Y-133093252D01*
X118631478Y-133096166D01*
X118638362Y-133099304D01*
X118644982Y-133102665D01*
X118651340Y-133106250D01*
X118657435Y-133110058D01*
X118663267Y-133114089D01*
X118668836Y-133118343D01*
X118674122Y-133122818D01*
X118679106Y-133127511D01*
X118683786Y-133132423D01*
X118688165Y-133137553D01*
X118692240Y-133142901D01*
X118696013Y-133148467D01*
X118699484Y-133154252D01*
X118702651Y-133160255D01*
X118705516Y-133166451D01*
X118707999Y-133172817D01*
X118710100Y-133179351D01*
X118711820Y-133186053D01*
X118713157Y-133192924D01*
X118714112Y-133199964D01*
X118714685Y-133207173D01*
X118714876Y-133214550D01*
X118714727Y-133222572D01*
X118714280Y-133230366D01*
X118713536Y-133237932D01*
X118712494Y-133245270D01*
X118711155Y-133252379D01*
X118709518Y-133259260D01*
X118707583Y-133265913D01*
X118705350Y-133272338D01*
X118702860Y-133278537D01*
X118700151Y-133284513D01*
X118697224Y-133290265D01*
X118694078Y-133295794D01*
X118689840Y-133302392D01*
X118685260Y-133308641D01*
X118680339Y-133314541D01*
X118679314Y-133315679D01*
X118673995Y-133321195D01*
X118668359Y-133326432D01*
X118662405Y-133331390D01*
X118656133Y-133336069D01*
X118649543Y-133340469D01*
X118644042Y-133343788D01*
X118639783Y-133346160D01*
X118634006Y-133349142D01*
X118628105Y-133351975D01*
X118622079Y-133354659D01*
X118615930Y-133357194D01*
X118609656Y-133359580D01*
X118603259Y-133361818D01*
X118596737Y-133363907D01*
X118590092Y-133365846D01*
X118583342Y-133367608D01*
X118576508Y-133369240D01*
X118569590Y-133370743D01*
X118562587Y-133372117D01*
X118555500Y-133373363D01*
X118548329Y-133374479D01*
X118541073Y-133375466D01*
X118533733Y-133376324D01*
X118526373Y-133377069D01*
X118518978Y-133377713D01*
X118511549Y-133378259D01*
X118504085Y-133378706D01*
X118496586Y-133379053D01*
X118489053Y-133379301D01*
X118481484Y-133379450D01*
X118473881Y-133379500D01*
X118173194Y-133379500D01*
X118173194Y-133343938D01*
X118235744Y-133320124D01*
X118241698Y-133317227D01*
X118246540Y-133313297D01*
X118249755Y-133307781D01*
X118250810Y-133301195D01*
X118250826Y-133300121D01*
X118250826Y-133120407D01*
X118384501Y-133120407D01*
X118384501Y-133313456D01*
X118463721Y-133313456D01*
X118470379Y-133313373D01*
X118476821Y-133313124D01*
X118486076Y-133312438D01*
X118494843Y-133311379D01*
X118503121Y-133309945D01*
X118510911Y-133308138D01*
X118518213Y-133305956D01*
X118525027Y-133303401D01*
X118531352Y-133300472D01*
X118537188Y-133297169D01*
X118542537Y-133293492D01*
X118544211Y-133292183D01*
X118550388Y-133286405D01*
X118554480Y-133281522D01*
X118558108Y-133276167D01*
X118561274Y-133270341D01*
X118563976Y-133264043D01*
X118566215Y-133257273D01*
X118567991Y-133250032D01*
X118569304Y-133242319D01*
X118570153Y-133234134D01*
X118570539Y-133225478D01*
X118570565Y-133222488D01*
X118570461Y-133215562D01*
X118570148Y-133208914D01*
X118569627Y-133202544D01*
X118568683Y-133194972D01*
X118567413Y-133187834D01*
X118565818Y-133181130D01*
X118563897Y-133174861D01*
X118561123Y-133167800D01*
X118557802Y-133161265D01*
X118553934Y-133155253D01*
X118549519Y-133149767D01*
X118544558Y-133144805D01*
X118542782Y-133143268D01*
X118537041Y-133138929D01*
X118530652Y-133135082D01*
X118524833Y-133132251D01*
X118518565Y-133129761D01*
X118511848Y-133127612D01*
X118504680Y-133125804D01*
X118497097Y-133124249D01*
X118490685Y-133123195D01*
X118483965Y-133122310D01*
X118476938Y-133121593D01*
X118469603Y-133121045D01*
X118461960Y-133120665D01*
X118454010Y-133120454D01*
X118447845Y-133120407D01*
X118384501Y-133120407D01*
X118250826Y-133120407D01*
X118250826Y-132878618D01*
X118249915Y-132872233D01*
X118246640Y-132866647D01*
X118246384Y-132866394D01*
X118384501Y-132866394D01*
X118384501Y-133054363D01*
X118421809Y-133054363D01*
X118429776Y-133054274D01*
X118437407Y-133054006D01*
X118444700Y-133053560D01*
X118451655Y-133052935D01*
X118458273Y-133052131D01*
X118464554Y-133051149D01*
X118471931Y-133049670D01*
X118476104Y-133048648D01*
X118482695Y-133046685D01*
X118488876Y-133044465D01*
X118495750Y-133041464D01*
X118502033Y-133038095D01*
X118507724Y-133034357D01*
X118511189Y-133031661D01*
X118515976Y-133027272D01*
X118520870Y-133021743D01*
X118525019Y-133015773D01*
X118528423Y-133009362D01*
X118530399Y-133004513D01*
X118532341Y-132998355D01*
X118533882Y-132991907D01*
X118535020Y-132985169D01*
X118535757Y-132978140D01*
X118536092Y-132970821D01*
X118536114Y-132968317D01*
X118536019Y-132961706D01*
X118535735Y-132955328D01*
X118534952Y-132946199D01*
X118533742Y-132937595D01*
X118532106Y-132929515D01*
X118530042Y-132921959D01*
X118527551Y-132914929D01*
X118524633Y-132908423D01*
X118521289Y-132902441D01*
X118517517Y-132896985D01*
X118513319Y-132892053D01*
X118511824Y-132890525D01*
X118507044Y-132886213D01*
X118501754Y-132882324D01*
X118495952Y-132878860D01*
X118489640Y-132875820D01*
X118482818Y-132873205D01*
X118475484Y-132871013D01*
X118467640Y-132869246D01*
X118459285Y-132867902D01*
X118450420Y-132866983D01*
X118441044Y-132866488D01*
X118434509Y-132866394D01*
X118384501Y-132866394D01*
X118246384Y-132866394D01*
X118246064Y-132866077D01*
X118240858Y-132862070D01*
X118235744Y-132859726D01*
X118173194Y-132835913D01*
X118173194Y-132800351D01*
X118462133Y-132800351D01*
X118470158Y-132800394D01*
G37*
G36*
X119304502Y-133303931D02*
G01*
X119307428Y-133310078D01*
X119311205Y-133315738D01*
X119312440Y-133317266D01*
X119317159Y-133321846D01*
X119322822Y-133325202D01*
X119324030Y-133325681D01*
X119367529Y-133343938D01*
X119367529Y-133379500D01*
X119103356Y-133379500D01*
X119103356Y-133343938D01*
X119171622Y-133319330D01*
X119120343Y-133191530D01*
X118915863Y-133191530D01*
X118867601Y-133316949D01*
X118936660Y-133343938D01*
X118936660Y-133379500D01*
X118732657Y-133379500D01*
X118732657Y-133343938D01*
X118774410Y-133324569D01*
X118780474Y-133321281D01*
X118785749Y-133317111D01*
X118790233Y-133312061D01*
X118793927Y-133306129D01*
X118795683Y-133302343D01*
X118866074Y-133125487D01*
X118941899Y-133125487D01*
X119094783Y-133125487D01*
X119039535Y-132985145D01*
X119023183Y-132931009D01*
X119016357Y-132931009D01*
X118941899Y-133125487D01*
X118866074Y-133125487D01*
X118961109Y-132886715D01*
X119010165Y-132790190D01*
X119105261Y-132790190D01*
X119304502Y-133303931D01*
G37*
G36*
X119695218Y-132800405D02*
G01*
X119703294Y-132800569D01*
X119711177Y-132800841D01*
X119718868Y-132801222D01*
X119726366Y-132801711D01*
X119733671Y-132802310D01*
X119740784Y-132803017D01*
X119747705Y-132803834D01*
X119754432Y-132804759D01*
X119760968Y-132805793D01*
X119765218Y-132806542D01*
X119771473Y-132807713D01*
X119779548Y-132809394D01*
X119787321Y-132811215D01*
X119794792Y-132813175D01*
X119801959Y-132815273D01*
X119808824Y-132817511D01*
X119815387Y-132819887D01*
X119821647Y-132822403D01*
X119823164Y-132823053D01*
X119829105Y-132825727D01*
X119836162Y-132829223D01*
X119842807Y-132832890D01*
X119849042Y-132836727D01*
X119854866Y-132840735D01*
X119860279Y-132844913D01*
X119863330Y-132847502D01*
X119868124Y-132851930D01*
X119872586Y-132856482D01*
X119877499Y-132862108D01*
X119881933Y-132867912D01*
X119885886Y-132873895D01*
X119888255Y-132877983D01*
X119891513Y-132884160D01*
X119894379Y-132890426D01*
X119896856Y-132896781D01*
X119898941Y-132903226D01*
X119900636Y-132909760D01*
X119901114Y-132911958D01*
X119902355Y-132918572D01*
X119903339Y-132925197D01*
X119904067Y-132931833D01*
X119904538Y-132938480D01*
X119904751Y-132945139D01*
X119904766Y-132947361D01*
X119904600Y-132955648D01*
X119904101Y-132963683D01*
X119903270Y-132971465D01*
X119902107Y-132978993D01*
X119900611Y-132986269D01*
X119898783Y-132993291D01*
X119896622Y-133000061D01*
X119894129Y-133006577D01*
X119891413Y-133012818D01*
X119888503Y-133018841D01*
X119885400Y-133024646D01*
X119882103Y-133030232D01*
X119878613Y-133035600D01*
X119873978Y-133042003D01*
X119869041Y-133048065D01*
X119866981Y-133050394D01*
X119861671Y-133056002D01*
X119856160Y-133061315D01*
X119850447Y-133066334D01*
X119844532Y-133071058D01*
X119838416Y-133075487D01*
X119832098Y-133079622D01*
X119829515Y-133081193D01*
X119823080Y-133084939D01*
X119816677Y-133088437D01*
X119810305Y-133091686D01*
X119803964Y-133094688D01*
X119797654Y-133097441D01*
X119791375Y-133099947D01*
X119788872Y-133100879D01*
X119925563Y-133298692D01*
X119929447Y-133303758D01*
X119931755Y-133306630D01*
X119936182Y-133311363D01*
X119939534Y-133314409D01*
X119944736Y-133318521D01*
X119948424Y-133321077D01*
X119954254Y-133324103D01*
X119957632Y-133325204D01*
X120019706Y-133344573D01*
X120019706Y-133379500D01*
X119870633Y-133379500D01*
X119863135Y-133379388D01*
X119856240Y-133379053D01*
X119848958Y-133378380D01*
X119842497Y-133377403D01*
X119837611Y-133376324D01*
X119831101Y-133374185D01*
X119825142Y-133371519D01*
X119819170Y-133367937D01*
X119816973Y-133366323D01*
X119811801Y-133361783D01*
X119807464Y-133357061D01*
X119803429Y-133351737D01*
X119801732Y-133349177D01*
X119798200Y-133343610D01*
X119794270Y-133337548D01*
X119790507Y-133331836D01*
X119786439Y-133325744D01*
X119785221Y-133323934D01*
X119661707Y-133135647D01*
X119606460Y-133121518D01*
X119606460Y-133299803D01*
X119607193Y-133306293D01*
X119610111Y-133312266D01*
X119610905Y-133313139D01*
X119615985Y-133317108D01*
X119621901Y-133319963D01*
X119622336Y-133320124D01*
X119686156Y-133343938D01*
X119686156Y-133379500D01*
X119394359Y-133379500D01*
X119394359Y-133343938D01*
X119456910Y-133320124D01*
X119462872Y-133317011D01*
X119467388Y-133313297D01*
X119470841Y-133307781D01*
X119471974Y-133301195D01*
X119471992Y-133300121D01*
X119471992Y-132878618D01*
X119471111Y-132872233D01*
X119467945Y-132866647D01*
X119467698Y-132866394D01*
X119606460Y-132866394D01*
X119606460Y-133069763D01*
X119613002Y-133070929D01*
X119617414Y-133071509D01*
X119623918Y-133072154D01*
X119630247Y-133072750D01*
X119634084Y-133073097D01*
X119640707Y-133073648D01*
X119647241Y-133074109D01*
X119651547Y-133074367D01*
X119657910Y-133074572D01*
X119664412Y-133074683D01*
X119665041Y-133074684D01*
X119672713Y-133074460D01*
X119680052Y-133073785D01*
X119687057Y-133072661D01*
X119693729Y-133071088D01*
X119700068Y-133069064D01*
X119706073Y-133066591D01*
X119708382Y-133065476D01*
X119713974Y-133062467D01*
X119720255Y-133058508D01*
X119726067Y-133054170D01*
X119731411Y-133049452D01*
X119736285Y-133044354D01*
X119738546Y-133041663D01*
X119742740Y-133036024D01*
X119746509Y-133030061D01*
X119749854Y-133023775D01*
X119752775Y-133017164D01*
X119755272Y-133010231D01*
X119756010Y-133007847D01*
X119757952Y-133000616D01*
X119759492Y-132993328D01*
X119760631Y-132985985D01*
X119761368Y-132978586D01*
X119761703Y-132971132D01*
X119761725Y-132968634D01*
X119761620Y-132962079D01*
X119761070Y-132952670D01*
X119760048Y-132943769D01*
X119758555Y-132935375D01*
X119756589Y-132927490D01*
X119754153Y-132920112D01*
X119751244Y-132913243D01*
X119747864Y-132906881D01*
X119744013Y-132901027D01*
X119739690Y-132895681D01*
X119734895Y-132890843D01*
X119729649Y-132886474D01*
X119723974Y-132882534D01*
X119717869Y-132879024D01*
X119711334Y-132875944D01*
X119704370Y-132873294D01*
X119696975Y-132871074D01*
X119689151Y-132869283D01*
X119680897Y-132867922D01*
X119672214Y-132866991D01*
X119663100Y-132866490D01*
X119656786Y-132866394D01*
X119606460Y-132866394D01*
X119467698Y-132866394D01*
X119467388Y-132866077D01*
X119462217Y-132862070D01*
X119456910Y-132859726D01*
X119394359Y-132835913D01*
X119394359Y-132800351D01*
X119686950Y-132800351D01*
X119695218Y-132800405D01*
G37*
G36*
X120322616Y-133389660D02*
G01*
X120314270Y-133389579D01*
X120306019Y-133389338D01*
X120297863Y-133388934D01*
X120289803Y-133388370D01*
X120281839Y-133387645D01*
X120273970Y-133386758D01*
X120266196Y-133385710D01*
X120258518Y-133384500D01*
X120250935Y-133383130D01*
X120243448Y-133381598D01*
X120236057Y-133379905D01*
X120228761Y-133378051D01*
X120221560Y-133376035D01*
X120214455Y-133373859D01*
X120207446Y-133371521D01*
X120200532Y-133369021D01*
X120193747Y-133366373D01*
X120187084Y-133363587D01*
X120180545Y-133360663D01*
X120174128Y-133357601D01*
X120167834Y-133354401D01*
X120161663Y-133351064D01*
X120155615Y-133347590D01*
X120149689Y-133343977D01*
X120143887Y-133340227D01*
X120138207Y-133336340D01*
X120132650Y-133332314D01*
X120127215Y-133328151D01*
X120121904Y-133323851D01*
X120116715Y-133319412D01*
X120111649Y-133314836D01*
X120106706Y-133310122D01*
X120101893Y-133305273D01*
X120097220Y-133300289D01*
X120092685Y-133295172D01*
X120088290Y-133289920D01*
X120084033Y-133284535D01*
X120079915Y-133279016D01*
X120075936Y-133273362D01*
X120072096Y-133267575D01*
X120068395Y-133261654D01*
X120064833Y-133255599D01*
X120061410Y-133249410D01*
X120058126Y-133243087D01*
X120054980Y-133236630D01*
X120051974Y-133230039D01*
X120049106Y-133223314D01*
X120046378Y-133216455D01*
X120043802Y-133209454D01*
X120041392Y-133202343D01*
X120039148Y-133195121D01*
X120037071Y-133187789D01*
X120035159Y-133180347D01*
X120033414Y-133172794D01*
X120031835Y-133165131D01*
X120030423Y-133157358D01*
X120029176Y-133149474D01*
X120028096Y-133141479D01*
X120027182Y-133133375D01*
X120026434Y-133125160D01*
X120025852Y-133116834D01*
X120025437Y-133108398D01*
X120025187Y-133099852D01*
X120025104Y-133091195D01*
X120025193Y-133082673D01*
X120025461Y-133074250D01*
X120025908Y-133065929D01*
X120026533Y-133057707D01*
X120027337Y-133049586D01*
X120028319Y-133041566D01*
X120029480Y-133033646D01*
X120030819Y-133025827D01*
X120032338Y-133018108D01*
X120034034Y-133010489D01*
X120035265Y-133005466D01*
X120037247Y-132997994D01*
X120039382Y-132990638D01*
X120041671Y-132983400D01*
X120044113Y-132976279D01*
X120046709Y-132969276D01*
X120049458Y-132962389D01*
X120052361Y-132955620D01*
X120055417Y-132948968D01*
X120058627Y-132942433D01*
X120061990Y-132936016D01*
X120064317Y-132931802D01*
X120067929Y-132925586D01*
X120071681Y-132919497D01*
X120075572Y-132913537D01*
X120079603Y-132907706D01*
X120083773Y-132902003D01*
X120088083Y-132896428D01*
X120092532Y-132890981D01*
X120097121Y-132885663D01*
X120101849Y-132880474D01*
X120106717Y-132875412D01*
X120110040Y-132872109D01*
X120115126Y-132867266D01*
X120120324Y-132862560D01*
X120125634Y-132857990D01*
X120131055Y-132853557D01*
X120136588Y-132849261D01*
X120142233Y-132845101D01*
X120147989Y-132841079D01*
X120153857Y-132837193D01*
X120159836Y-132833443D01*
X120165927Y-132829831D01*
X120170050Y-132827498D01*
X120176349Y-132824125D01*
X120182742Y-132820911D01*
X120189230Y-132817855D01*
X120195814Y-132814959D01*
X120202492Y-132812222D01*
X120209265Y-132809644D01*
X120216132Y-132807225D01*
X120223095Y-132804965D01*
X120230153Y-132802864D01*
X120237305Y-132800922D01*
X120242126Y-132799716D01*
X120249460Y-132798014D01*
X120256874Y-132796479D01*
X120264369Y-132795111D01*
X120271945Y-132793911D01*
X120279602Y-132792879D01*
X120287341Y-132792014D01*
X120295159Y-132791316D01*
X120303059Y-132790786D01*
X120311040Y-132790423D01*
X120319102Y-132790228D01*
X120324521Y-132790190D01*
X120332026Y-132790260D01*
X120339755Y-132790469D01*
X120346101Y-132790737D01*
X120352590Y-132791095D01*
X120359223Y-132791541D01*
X120366000Y-132792077D01*
X120372921Y-132792702D01*
X120376435Y-132793048D01*
X120383498Y-132793750D01*
X120390555Y-132794507D01*
X120397607Y-132795318D01*
X120404655Y-132796183D01*
X120411697Y-132797104D01*
X120418734Y-132798079D01*
X120425767Y-132799108D01*
X120432794Y-132800192D01*
X120439814Y-132801313D01*
X120446745Y-132802454D01*
X120453587Y-132803615D01*
X120460339Y-132804796D01*
X120467002Y-132805997D01*
X120473575Y-132807217D01*
X120480060Y-132808457D01*
X120486454Y-132809718D01*
X120492683Y-132810978D01*
X120500127Y-132812525D01*
X120507192Y-132814041D01*
X120513876Y-132815526D01*
X120520181Y-132816981D01*
X120527245Y-132818685D01*
X120529478Y-132819243D01*
X120529478Y-132973079D01*
X120476135Y-132973079D01*
X120453433Y-132899575D01*
X120450190Y-132894010D01*
X120445654Y-132889890D01*
X120440347Y-132886062D01*
X120435176Y-132882905D01*
X120428264Y-132879384D01*
X120421322Y-132876065D01*
X120414348Y-132872947D01*
X120407343Y-132870031D01*
X120400308Y-132867316D01*
X120393241Y-132864803D01*
X120390406Y-132863854D01*
X120383180Y-132861659D01*
X120375690Y-132859835D01*
X120367936Y-132858384D01*
X120361544Y-132857491D01*
X120354983Y-132856836D01*
X120348253Y-132856420D01*
X120341354Y-132856241D01*
X120339603Y-132856234D01*
X120332490Y-132856349D01*
X120325496Y-132856697D01*
X120318622Y-132857276D01*
X120311868Y-132858087D01*
X120305234Y-132859129D01*
X120298720Y-132860403D01*
X120292326Y-132861908D01*
X120286052Y-132863646D01*
X120279899Y-132865614D01*
X120273865Y-132867815D01*
X120269909Y-132869411D01*
X120264096Y-132871970D01*
X120256597Y-132875752D01*
X120249386Y-132879955D01*
X120242463Y-132884580D01*
X120235827Y-132889627D01*
X120229479Y-132895095D01*
X120223419Y-132900986D01*
X120219063Y-132905680D01*
X120216249Y-132908941D01*
X120212198Y-132914028D01*
X120208319Y-132919347D01*
X120204614Y-132924897D01*
X120201082Y-132930679D01*
X120197723Y-132936692D01*
X120194537Y-132942937D01*
X120191524Y-132949414D01*
X120188684Y-132956122D01*
X120186017Y-132963062D01*
X120183523Y-132970234D01*
X120181957Y-132975143D01*
X120179772Y-132982670D01*
X120177803Y-132990425D01*
X120176048Y-132998409D01*
X120174508Y-133006622D01*
X120173183Y-133015064D01*
X120172072Y-133023734D01*
X120171177Y-133032634D01*
X120170497Y-133041762D01*
X120170031Y-133051119D01*
X120169840Y-133057484D01*
X120169745Y-133063951D01*
X120169733Y-133067223D01*
X120169785Y-133074097D01*
X120169941Y-133080869D01*
X120170201Y-133087537D01*
X120170566Y-133094102D01*
X120171035Y-133100565D01*
X120171608Y-133106925D01*
X120172663Y-133116271D01*
X120173952Y-133125386D01*
X120175476Y-133134269D01*
X120177234Y-133142921D01*
X120179226Y-133151340D01*
X120181453Y-133159529D01*
X120183068Y-133164859D01*
X120185699Y-133172629D01*
X120188530Y-133180161D01*
X120191563Y-133187456D01*
X120194796Y-133194514D01*
X120198231Y-133201335D01*
X120201866Y-133207919D01*
X120205702Y-133214265D01*
X120209740Y-133220375D01*
X120213978Y-133226247D01*
X120218417Y-133231881D01*
X120221488Y-133235506D01*
X120226286Y-133240713D01*
X120231274Y-133245677D01*
X120236451Y-133250399D01*
X120241819Y-133254877D01*
X120247376Y-133259113D01*
X120253123Y-133263106D01*
X120259059Y-133266856D01*
X120265186Y-133270363D01*
X120271502Y-133273628D01*
X120278008Y-133276650D01*
X120282451Y-133278530D01*
X120289287Y-133281140D01*
X120296283Y-133283493D01*
X120303438Y-133285590D01*
X120310752Y-133287430D01*
X120318225Y-133289013D01*
X120325857Y-133290340D01*
X120333648Y-133291409D01*
X120341598Y-133292222D01*
X120349707Y-133292779D01*
X120357975Y-133293078D01*
X120363576Y-133293135D01*
X120370405Y-133293061D01*
X120377080Y-133292838D01*
X120383602Y-133292465D01*
X120389969Y-133291945D01*
X120397713Y-133291084D01*
X120405216Y-133289991D01*
X120412478Y-133288666D01*
X120413902Y-133288372D01*
X120420942Y-133286838D01*
X120427772Y-133285210D01*
X120434393Y-133283489D01*
X120440804Y-133281675D01*
X120447006Y-133279768D01*
X120454173Y-133277357D01*
X120455338Y-133276942D01*
X120462218Y-133274343D01*
X120468808Y-133271666D01*
X120475107Y-133268910D01*
X120481116Y-133266077D01*
X120486835Y-133263165D01*
X120488677Y-133262177D01*
X120494931Y-133258704D01*
X120500776Y-133255366D01*
X120506952Y-133251720D01*
X120512593Y-133248252D01*
X120513920Y-133247413D01*
X120543290Y-133247413D01*
X120543290Y-133302502D01*
X120537670Y-133307040D01*
X120531724Y-133311624D01*
X120525453Y-133316255D01*
X120520201Y-133319994D01*
X120514742Y-133323762D01*
X120509073Y-133327559D01*
X120503197Y-133331387D01*
X120501695Y-133332348D01*
X120495628Y-133336159D01*
X120489411Y-133339889D01*
X120483046Y-133343541D01*
X120476532Y-133347113D01*
X120469869Y-133350606D01*
X120463058Y-133354019D01*
X120456097Y-133357353D01*
X120448988Y-133360607D01*
X120441789Y-133363711D01*
X120434481Y-133366670D01*
X120427064Y-133369485D01*
X120419538Y-133372157D01*
X120411903Y-133374685D01*
X120404158Y-133377069D01*
X120396305Y-133379308D01*
X120388342Y-133381405D01*
X120380300Y-133383339D01*
X120372208Y-133385016D01*
X120364067Y-133386435D01*
X120355876Y-133387596D01*
X120347636Y-133388499D01*
X120339345Y-133389144D01*
X120331006Y-133389531D01*
X120322616Y-133389660D01*
G37*
G36*
X121133393Y-133303931D02*
G01*
X121136319Y-133310078D01*
X121140095Y-133315738D01*
X121141331Y-133317266D01*
X121146049Y-133321846D01*
X121151712Y-133325202D01*
X121152920Y-133325681D01*
X121196420Y-133343938D01*
X121196420Y-133379500D01*
X120932247Y-133379500D01*
X120932247Y-133343938D01*
X121000512Y-133319330D01*
X120949234Y-133191530D01*
X120744754Y-133191530D01*
X120696491Y-133316949D01*
X120765551Y-133343938D01*
X120765551Y-133379500D01*
X120561547Y-133379500D01*
X120561547Y-133343938D01*
X120603300Y-133324569D01*
X120609365Y-133321281D01*
X120614639Y-133317111D01*
X120619123Y-133312061D01*
X120622818Y-133306129D01*
X120624574Y-133302343D01*
X120694965Y-133125487D01*
X120770790Y-133125487D01*
X120923674Y-133125487D01*
X120868426Y-132985145D01*
X120852074Y-132931009D01*
X120845247Y-132931009D01*
X120770790Y-133125487D01*
X120694965Y-133125487D01*
X120790000Y-132886715D01*
X120839056Y-132790190D01*
X120934152Y-132790190D01*
X121133393Y-133303931D01*
G37*
G36*
X121522206Y-132800438D02*
G01*
X121530268Y-132800698D01*
X121538439Y-132801132D01*
X121546719Y-132801740D01*
X121555108Y-132802521D01*
X121561472Y-132803221D01*
X121567897Y-132804019D01*
X121574383Y-132804914D01*
X121580931Y-132805907D01*
X121587532Y-132806984D01*
X121594120Y-132808188D01*
X121600693Y-132809521D01*
X121607253Y-132810983D01*
X121613798Y-132812572D01*
X121620330Y-132814291D01*
X121626847Y-132816137D01*
X121633351Y-132818112D01*
X121639841Y-132820215D01*
X121646316Y-132822447D01*
X121650626Y-132824006D01*
X121657087Y-132826465D01*
X121663493Y-132829081D01*
X121669842Y-132831853D01*
X121676136Y-132834781D01*
X121682374Y-132837866D01*
X121688557Y-132841107D01*
X121694683Y-132844504D01*
X121700754Y-132848058D01*
X121706768Y-132851767D01*
X121712727Y-132855633D01*
X121716669Y-132858297D01*
X121722526Y-132862441D01*
X121728248Y-132866774D01*
X121733837Y-132871296D01*
X121739292Y-132876009D01*
X121744613Y-132880911D01*
X121749800Y-132886003D01*
X121754853Y-132891285D01*
X121759772Y-132896757D01*
X121764557Y-132902418D01*
X121769208Y-132908269D01*
X121772234Y-132912275D01*
X121776643Y-132918423D01*
X121780878Y-132924779D01*
X121784940Y-132931345D01*
X121788829Y-132938120D01*
X121792546Y-132945105D01*
X121796089Y-132952299D01*
X121799459Y-132959702D01*
X121802656Y-132967315D01*
X121805680Y-132975136D01*
X121808532Y-132983167D01*
X121810336Y-132988638D01*
X121812890Y-132997007D01*
X121815192Y-133005625D01*
X121817243Y-133014492D01*
X121819043Y-133023607D01*
X121820592Y-133032970D01*
X121821485Y-133039350D01*
X121822266Y-133045840D01*
X121822936Y-133052441D01*
X121823494Y-133059152D01*
X121823941Y-133065974D01*
X121824276Y-133072906D01*
X121824499Y-133079948D01*
X121824610Y-133087101D01*
X121824624Y-133090719D01*
X121824529Y-133099928D01*
X121824242Y-133108981D01*
X121823765Y-133117878D01*
X121823096Y-133126618D01*
X121822237Y-133135202D01*
X121821186Y-133143630D01*
X121819945Y-133151902D01*
X121818512Y-133160017D01*
X121816889Y-133167976D01*
X121815074Y-133175778D01*
X121813069Y-133183425D01*
X121810872Y-133190915D01*
X121808484Y-133198249D01*
X121805906Y-133205426D01*
X121803136Y-133212448D01*
X121800176Y-133219313D01*
X121797068Y-133226027D01*
X121793815Y-133232594D01*
X121790420Y-133239015D01*
X121786880Y-133245290D01*
X121783196Y-133251418D01*
X121779369Y-133257400D01*
X121775397Y-133263235D01*
X121771282Y-133268925D01*
X121767023Y-133274468D01*
X121762620Y-133279864D01*
X121758073Y-133285114D01*
X121753382Y-133290218D01*
X121748547Y-133295176D01*
X121743569Y-133299987D01*
X121738446Y-133304651D01*
X121733180Y-133309170D01*
X121727803Y-133313544D01*
X121722307Y-133317777D01*
X121716695Y-133321869D01*
X121710964Y-133325820D01*
X121705115Y-133329628D01*
X121699149Y-133333296D01*
X121693064Y-133336822D01*
X121686862Y-133340207D01*
X121680542Y-133343450D01*
X121674105Y-133346552D01*
X121667549Y-133349513D01*
X121660876Y-133352332D01*
X121654084Y-133355010D01*
X121647175Y-133357546D01*
X121640148Y-133359941D01*
X121633004Y-133362195D01*
X121625786Y-133364290D01*
X121618500Y-133366251D01*
X121611145Y-133368076D01*
X121603723Y-133369766D01*
X121596232Y-133371320D01*
X121588673Y-133372740D01*
X121581046Y-133374024D01*
X121573350Y-133375173D01*
X121565587Y-133376187D01*
X121557755Y-133377066D01*
X121549855Y-133377810D01*
X121541887Y-133378418D01*
X121533850Y-133378891D01*
X121525745Y-133379229D01*
X121517572Y-133379432D01*
X121509331Y-133379500D01*
X121223250Y-133379500D01*
X121223250Y-133343938D01*
X121285800Y-133320124D01*
X121291762Y-133317011D01*
X121296278Y-133313297D01*
X121299731Y-133307781D01*
X121300864Y-133301195D01*
X121300882Y-133300121D01*
X121300882Y-132878618D01*
X121300001Y-132872294D01*
X121296562Y-132866656D01*
X121296278Y-132866394D01*
X121435350Y-132866394D01*
X121435350Y-133313456D01*
X121515840Y-133313456D01*
X121523744Y-133313333D01*
X121531442Y-133312965D01*
X121538933Y-133312351D01*
X121546218Y-133311492D01*
X121553296Y-133310387D01*
X121560167Y-133309036D01*
X121566832Y-133307440D01*
X121573291Y-133305598D01*
X121579543Y-133303510D01*
X121585588Y-133301177D01*
X121589504Y-133299486D01*
X121595242Y-133296750D01*
X121602593Y-133292743D01*
X121609602Y-133288324D01*
X121616269Y-133283493D01*
X121622593Y-133278250D01*
X121628575Y-133272595D01*
X121634215Y-133266529D01*
X121639512Y-133260051D01*
X121640783Y-133258367D01*
X121644471Y-133253143D01*
X121647975Y-133247709D01*
X121651295Y-133242066D01*
X121654431Y-133236213D01*
X121657383Y-133230151D01*
X121660150Y-133223880D01*
X121662733Y-133217400D01*
X121665132Y-133210710D01*
X121667347Y-133203811D01*
X121669378Y-133196703D01*
X121670629Y-133191848D01*
X121672388Y-133184402D01*
X121673974Y-133176769D01*
X121675387Y-133168949D01*
X121676627Y-133160942D01*
X121677694Y-133152748D01*
X121678588Y-133144367D01*
X121679309Y-133135800D01*
X121679857Y-133127045D01*
X121680232Y-133118103D01*
X121680434Y-133108974D01*
X121680472Y-133102785D01*
X121680421Y-133095924D01*
X121680269Y-133089154D01*
X121680015Y-133082474D01*
X121679659Y-133075885D01*
X121679201Y-133069387D01*
X121678642Y-133062979D01*
X121677981Y-133056661D01*
X121676798Y-133047355D01*
X121675387Y-133038252D01*
X121673747Y-133029353D01*
X121671878Y-133020658D01*
X121669781Y-133012166D01*
X121667454Y-133003878D01*
X121664914Y-132995808D01*
X121662176Y-132987970D01*
X121659240Y-132980363D01*
X121656105Y-132972988D01*
X121652773Y-132965844D01*
X121649242Y-132958932D01*
X121645513Y-132952252D01*
X121641587Y-132945803D01*
X121637461Y-132939586D01*
X121633138Y-132933600D01*
X121630146Y-132929739D01*
X121625529Y-132924147D01*
X121620728Y-132918805D01*
X121615743Y-132913710D01*
X121610574Y-132908864D01*
X121605221Y-132904267D01*
X121599683Y-132899917D01*
X121593961Y-132895817D01*
X121588055Y-132891964D01*
X121581965Y-132888360D01*
X121575691Y-132885004D01*
X121571406Y-132882905D01*
X121564878Y-132879954D01*
X121558213Y-132877294D01*
X121551412Y-132874924D01*
X121544474Y-132872844D01*
X121537399Y-132871054D01*
X121530188Y-132869554D01*
X121522839Y-132868345D01*
X121515354Y-132867426D01*
X121507732Y-132866797D01*
X121499974Y-132866459D01*
X121494726Y-132866394D01*
X121435350Y-132866394D01*
X121296278Y-132866394D01*
X121291107Y-132862377D01*
X121285800Y-132859726D01*
X121223250Y-132835913D01*
X121223250Y-132800351D01*
X121514253Y-132800351D01*
X121522206Y-132800438D01*
G37*
G36*
X122197447Y-132790280D02*
G01*
X122206712Y-132790548D01*
X122215818Y-132790994D01*
X122224764Y-132791619D01*
X122233549Y-132792423D01*
X122242175Y-132793405D01*
X122250641Y-132794566D01*
X122258946Y-132795906D01*
X122267092Y-132797424D01*
X122275077Y-132799120D01*
X122282903Y-132800996D01*
X122290569Y-132803050D01*
X122298074Y-132805282D01*
X122305420Y-132807693D01*
X122312606Y-132810283D01*
X122319631Y-132813051D01*
X122326523Y-132815958D01*
X122333267Y-132819000D01*
X122339864Y-132822179D01*
X122346313Y-132825494D01*
X122352614Y-132828946D01*
X122358768Y-132832534D01*
X122364774Y-132836259D01*
X122370632Y-132840120D01*
X122376343Y-132844117D01*
X122381907Y-132848251D01*
X122387322Y-132852521D01*
X122392591Y-132856928D01*
X122397711Y-132861471D01*
X122402684Y-132866151D01*
X122407509Y-132870967D01*
X122412187Y-132875920D01*
X122416717Y-132880997D01*
X122421098Y-132886189D01*
X122425329Y-132891495D01*
X122429412Y-132896915D01*
X122433347Y-132902450D01*
X122437132Y-132908098D01*
X122440769Y-132913860D01*
X122444256Y-132919737D01*
X122447595Y-132925727D01*
X122450785Y-132931832D01*
X122453826Y-132938051D01*
X122456719Y-132944384D01*
X122459462Y-132950831D01*
X122462057Y-132957392D01*
X122464503Y-132964067D01*
X122466800Y-132970857D01*
X122468972Y-132977737D01*
X122471005Y-132984686D01*
X122472897Y-132991703D01*
X122474649Y-132998788D01*
X122476260Y-133005942D01*
X122477732Y-133013163D01*
X122479063Y-133020453D01*
X122480255Y-133027811D01*
X122481306Y-133035237D01*
X122482217Y-133042732D01*
X122482988Y-133050295D01*
X122483618Y-133057926D01*
X122484109Y-133065625D01*
X122484459Y-133073392D01*
X122484669Y-133081228D01*
X122484740Y-133089131D01*
X122484671Y-133096237D01*
X122484466Y-133103327D01*
X122484124Y-133110399D01*
X122483646Y-133117455D01*
X122483030Y-133124494D01*
X122482278Y-133131516D01*
X122481389Y-133138522D01*
X122480364Y-133145510D01*
X122479201Y-133152482D01*
X122477902Y-133159438D01*
X122476960Y-133164065D01*
X122475462Y-133170969D01*
X122473824Y-133177808D01*
X122472046Y-133184583D01*
X122470129Y-133191295D01*
X122468072Y-133197941D01*
X122465876Y-133204524D01*
X122463540Y-133211043D01*
X122461065Y-133217497D01*
X122458450Y-133223887D01*
X122455696Y-133230213D01*
X122453782Y-133234395D01*
X122450819Y-133240603D01*
X122447706Y-133246724D01*
X122444441Y-133252759D01*
X122441027Y-133258707D01*
X122437461Y-133264569D01*
X122433745Y-133270344D01*
X122429878Y-133276033D01*
X122425860Y-133281635D01*
X122421692Y-133287151D01*
X122417373Y-133292580D01*
X122414410Y-133296152D01*
X122409834Y-133301413D01*
X122405096Y-133306540D01*
X122400197Y-133311534D01*
X122395136Y-133316393D01*
X122389912Y-133321119D01*
X122384527Y-133325710D01*
X122378980Y-133330168D01*
X122373272Y-133334492D01*
X122367401Y-133338681D01*
X122361369Y-133342737D01*
X122357257Y-133345367D01*
X122350982Y-133349160D01*
X122344539Y-133352799D01*
X122337929Y-133356285D01*
X122331151Y-133359618D01*
X122324206Y-133362797D01*
X122317094Y-133365822D01*
X122309814Y-133368694D01*
X122302366Y-133371413D01*
X122294752Y-133373978D01*
X122286969Y-133376389D01*
X122281688Y-133377912D01*
X122273655Y-133380011D01*
X122265452Y-133381904D01*
X122257079Y-133383591D01*
X122248535Y-133385071D01*
X122239821Y-133386344D01*
X122230937Y-133387411D01*
X122221883Y-133388272D01*
X122212658Y-133388926D01*
X122203264Y-133389373D01*
X122196906Y-133389557D01*
X122190472Y-133389649D01*
X122187227Y-133389660D01*
X122178303Y-133389578D01*
X122169508Y-133389333D01*
X122160844Y-133388923D01*
X122152311Y-133388350D01*
X122143907Y-133387614D01*
X122135634Y-133386713D01*
X122127490Y-133385649D01*
X122119477Y-133384421D01*
X122111595Y-133383029D01*
X122103842Y-133381474D01*
X122096220Y-133379755D01*
X122088728Y-133377872D01*
X122081366Y-133375826D01*
X122074135Y-133373616D01*
X122067033Y-133371242D01*
X122060062Y-133368704D01*
X122053224Y-133366013D01*
X122046521Y-133363180D01*
X122039953Y-133360204D01*
X122033520Y-133357085D01*
X122027222Y-133353824D01*
X122021060Y-133350420D01*
X122015033Y-133346873D01*
X122009141Y-133343184D01*
X122003384Y-133339352D01*
X121997762Y-133335377D01*
X121992276Y-133331260D01*
X121986925Y-133327000D01*
X121981708Y-133322598D01*
X121976628Y-133318053D01*
X121971682Y-133313365D01*
X121966871Y-133308535D01*
X121962220Y-133303569D01*
X121957711Y-133298476D01*
X121953344Y-133293255D01*
X121949120Y-133287906D01*
X121945039Y-133282430D01*
X121941101Y-133276825D01*
X121937305Y-133271093D01*
X121933651Y-133265234D01*
X121930141Y-133259246D01*
X121926773Y-133253131D01*
X121923547Y-133246888D01*
X121920465Y-133240517D01*
X121917524Y-133234018D01*
X121914727Y-133227392D01*
X121912072Y-133220638D01*
X121909560Y-133213756D01*
X121907214Y-133206758D01*
X121905020Y-133199654D01*
X121902978Y-133192445D01*
X121901086Y-133185130D01*
X121899346Y-133177710D01*
X121897757Y-133170185D01*
X121896320Y-133162554D01*
X121895034Y-133154817D01*
X121893899Y-133146976D01*
X121892915Y-133139028D01*
X121892083Y-133130976D01*
X121891402Y-133122818D01*
X121890872Y-133114554D01*
X121890494Y-133106185D01*
X121890267Y-133097711D01*
X121890191Y-133089131D01*
X121890271Y-133081035D01*
X121890431Y-133075637D01*
X122035614Y-133075637D01*
X122035649Y-133082640D01*
X122035755Y-133089561D01*
X122035932Y-133096398D01*
X122036179Y-133103152D01*
X122036497Y-133109823D01*
X122036886Y-133116410D01*
X122037346Y-133122915D01*
X122037876Y-133129337D01*
X122038477Y-133135675D01*
X122039511Y-133145027D01*
X122040704Y-133154192D01*
X122042056Y-133163170D01*
X122043567Y-133171961D01*
X122044663Y-133177718D01*
X122046477Y-133186147D01*
X122048467Y-133194347D01*
X122050633Y-133202318D01*
X122052975Y-133210060D01*
X122055493Y-133217574D01*
X122058186Y-133224858D01*
X122061056Y-133231914D01*
X122064101Y-133238741D01*
X122067322Y-133245339D01*
X122070718Y-133251708D01*
X122073080Y-133255827D01*
X122076804Y-133261798D01*
X122080712Y-133267507D01*
X122084804Y-133272953D01*
X122089080Y-133278138D01*
X122093541Y-133283059D01*
X122098185Y-133287719D01*
X122103014Y-133292116D01*
X122108027Y-133296251D01*
X122113224Y-133300123D01*
X122118606Y-133303734D01*
X122122295Y-133305995D01*
X122128018Y-133309144D01*
X122133932Y-133311983D01*
X122140040Y-133314513D01*
X122146340Y-133316733D01*
X122152832Y-133318643D01*
X122159517Y-133320244D01*
X122166395Y-133321534D01*
X122173465Y-133322515D01*
X122180728Y-133323187D01*
X122188183Y-133323548D01*
X122193260Y-133323617D01*
X122200054Y-133323474D01*
X122206683Y-133323047D01*
X122213148Y-133322336D01*
X122219448Y-133321340D01*
X122227592Y-133319568D01*
X122235443Y-133317291D01*
X122243001Y-133314508D01*
X122250267Y-133311219D01*
X122257240Y-133307423D01*
X122263962Y-133303137D01*
X122270397Y-133298454D01*
X122276544Y-133293373D01*
X122282403Y-133287896D01*
X122287974Y-133282022D01*
X122293258Y-133275751D01*
X122298254Y-133269083D01*
X122301812Y-133263822D01*
X122302962Y-133262019D01*
X122306331Y-133256441D01*
X122309533Y-133250663D01*
X122312567Y-133244683D01*
X122315434Y-133238503D01*
X122318134Y-133232121D01*
X122320666Y-133225539D01*
X122323030Y-133218756D01*
X122325228Y-133211772D01*
X122327257Y-133204587D01*
X122329120Y-133197201D01*
X122330268Y-133192165D01*
X122331857Y-133184438D01*
X122333290Y-133176558D01*
X122334566Y-133168524D01*
X122335686Y-133160337D01*
X122336649Y-133151996D01*
X122337457Y-133143502D01*
X122338108Y-133134854D01*
X122338603Y-133126053D01*
X122338942Y-133117098D01*
X122339124Y-133107989D01*
X122339159Y-133101832D01*
X122339122Y-133094791D01*
X122339012Y-133087839D01*
X122338829Y-133080975D01*
X122338573Y-133074198D01*
X122338244Y-133067510D01*
X122337841Y-133060910D01*
X122337366Y-133054398D01*
X122336817Y-133047973D01*
X122336195Y-133041637D01*
X122335125Y-133032298D01*
X122333890Y-133023158D01*
X122332490Y-133014215D01*
X122330926Y-133005470D01*
X122329792Y-132999751D01*
X122327972Y-132991329D01*
X122325965Y-132983150D01*
X122323771Y-132975214D01*
X122321390Y-132967520D01*
X122318822Y-132960070D01*
X122316067Y-132952862D01*
X122313126Y-132945897D01*
X122309997Y-132939175D01*
X122306681Y-132932695D01*
X122303178Y-132926459D01*
X122300739Y-132922436D01*
X122296959Y-132916611D01*
X122293000Y-132911042D01*
X122288862Y-132905731D01*
X122284546Y-132900676D01*
X122280051Y-132895878D01*
X122275378Y-132891336D01*
X122270526Y-132887052D01*
X122265495Y-132883024D01*
X122260286Y-132879253D01*
X122254898Y-132875739D01*
X122251207Y-132873538D01*
X122245516Y-132870446D01*
X122239635Y-132867657D01*
X122233564Y-132865173D01*
X122227304Y-132862993D01*
X122220854Y-132861117D01*
X122214214Y-132859546D01*
X122207384Y-132858278D01*
X122200365Y-132857315D01*
X122193155Y-132856656D01*
X122185756Y-132856301D01*
X122180718Y-132856234D01*
X122173497Y-132856387D01*
X122166480Y-132856848D01*
X122159667Y-132857615D01*
X122153057Y-132858689D01*
X122146651Y-132860071D01*
X122140449Y-132861759D01*
X122132496Y-132864488D01*
X122124906Y-132867762D01*
X122117677Y-132871582D01*
X122114199Y-132873697D01*
X122107521Y-132878256D01*
X122101141Y-132883203D01*
X122095058Y-132888536D01*
X122089274Y-132894256D01*
X122083787Y-132900363D01*
X122078597Y-132906858D01*
X122073706Y-132913739D01*
X122070232Y-132919154D01*
X122069112Y-132921007D01*
X122065892Y-132926663D01*
X122062844Y-132932497D01*
X122059965Y-132938510D01*
X122057257Y-132944701D01*
X122054719Y-132951072D01*
X122052351Y-132957620D01*
X122050153Y-132964348D01*
X122048126Y-132971254D01*
X122046269Y-132978338D01*
X122044582Y-132985601D01*
X122043551Y-132990543D01*
X122042133Y-132998062D01*
X122040854Y-133005676D01*
X122039714Y-133013384D01*
X122038714Y-133021188D01*
X122037854Y-133029087D01*
X122037133Y-133037080D01*
X122036552Y-133045168D01*
X122036110Y-133053351D01*
X122035807Y-133061629D01*
X122035645Y-133070002D01*
X122035614Y-133075637D01*
X121890431Y-133075637D01*
X121890509Y-133073020D01*
X121890906Y-133065085D01*
X121891461Y-133057231D01*
X121892176Y-133049457D01*
X121893049Y-133041764D01*
X121894081Y-133034152D01*
X121895272Y-133026620D01*
X121896621Y-133019169D01*
X121898129Y-133011799D01*
X121899796Y-133004509D01*
X121901622Y-132997300D01*
X121903606Y-132990171D01*
X121905750Y-132983123D01*
X121908052Y-132976156D01*
X121910512Y-132969269D01*
X121913123Y-132962480D01*
X121915873Y-132955807D01*
X121918763Y-132949249D01*
X121921794Y-132942806D01*
X121924965Y-132936479D01*
X121928276Y-132930267D01*
X121931727Y-132924170D01*
X121935318Y-132918189D01*
X121939050Y-132912323D01*
X121942921Y-132906572D01*
X121946933Y-132900937D01*
X121951085Y-132895417D01*
X121955377Y-132890012D01*
X121959809Y-132884723D01*
X121964382Y-132879549D01*
X121969094Y-132874491D01*
X121973962Y-132869560D01*
X121978962Y-132864769D01*
X121984093Y-132860119D01*
X121989356Y-132855609D01*
X121994750Y-132851238D01*
X122000275Y-132847008D01*
X122005932Y-132842918D01*
X122011721Y-132838969D01*
X122017640Y-132835159D01*
X122023692Y-132831490D01*
X122029875Y-132827960D01*
X122036189Y-132824571D01*
X122042635Y-132821322D01*
X122049212Y-132818214D01*
X122055921Y-132815245D01*
X122062761Y-132812416D01*
X122069743Y-132809725D01*
X122076839Y-132807207D01*
X122084047Y-132804863D01*
X122091367Y-132802693D01*
X122098801Y-132800696D01*
X122106348Y-132798872D01*
X122114007Y-132797223D01*
X122121779Y-132795747D01*
X122129665Y-132794445D01*
X122137663Y-132793316D01*
X122145774Y-132792361D01*
X122153997Y-132791579D01*
X122162334Y-132790972D01*
X122170784Y-132790538D01*
X122179346Y-132790277D01*
X122188021Y-132790190D01*
X122197447Y-132790280D01*
G37*
G36*
X122772409Y-133389660D02*
G01*
X122765214Y-133389582D01*
X122757817Y-133389350D01*
X122750218Y-133388962D01*
X122742418Y-133388420D01*
X122736033Y-133387874D01*
X122729519Y-133387229D01*
X122722876Y-133386485D01*
X122716156Y-133385661D01*
X122709412Y-133384778D01*
X122702642Y-133383836D01*
X122695848Y-133382833D01*
X122689029Y-133381772D01*
X122682185Y-133380650D01*
X122675316Y-133379470D01*
X122668422Y-133378229D01*
X122661519Y-133376902D01*
X122654620Y-133375540D01*
X122647727Y-133374144D01*
X122640838Y-133372713D01*
X122633955Y-133371247D01*
X122627076Y-133369746D01*
X122620202Y-133368210D01*
X122613333Y-133366640D01*
X122606522Y-133365045D01*
X122599819Y-133363435D01*
X122593226Y-133361810D01*
X122586741Y-133360171D01*
X122580366Y-133358516D01*
X122574100Y-133356847D01*
X122567944Y-133355162D01*
X122561896Y-133353463D01*
X122559515Y-133186450D01*
X122613492Y-133186450D01*
X122637465Y-133262812D01*
X122640683Y-133268487D01*
X122640957Y-133268845D01*
X122645211Y-133273846D01*
X122645879Y-133274561D01*
X122650640Y-133279061D01*
X122651118Y-133279482D01*
X122655881Y-133283292D01*
X122661427Y-133286527D01*
X122667589Y-133289881D01*
X122673485Y-133292913D01*
X122679852Y-133296036D01*
X122681758Y-133296945D01*
X122687637Y-133299585D01*
X122693605Y-133302147D01*
X122699663Y-133304631D01*
X122705810Y-133307036D01*
X122712046Y-133309364D01*
X122714145Y-133310122D01*
X122720461Y-133312253D01*
X122726788Y-133314238D01*
X122733127Y-133316078D01*
X122739476Y-133317772D01*
X122745837Y-133319322D01*
X122747960Y-133319807D01*
X122754289Y-133321101D01*
X122761419Y-133322273D01*
X122768276Y-133323081D01*
X122774859Y-133323524D01*
X122779394Y-133323617D01*
X122785831Y-133323525D01*
X122793675Y-133323152D01*
X122801295Y-133322492D01*
X122808689Y-133321546D01*
X122815859Y-133320313D01*
X122822804Y-133318792D01*
X122826863Y-133317743D01*
X122833463Y-133315779D01*
X122839768Y-133313560D01*
X122845779Y-133311085D01*
X122852603Y-133307777D01*
X122859003Y-133304101D01*
X122864012Y-133300756D01*
X122869655Y-133296389D01*
X122874795Y-133291744D01*
X122879433Y-133286819D01*
X122883569Y-133281615D01*
X122887202Y-133276133D01*
X122888302Y-133274243D01*
X122891215Y-133268394D01*
X122893526Y-133262277D01*
X122895234Y-133255892D01*
X122896339Y-133249239D01*
X122896841Y-133242318D01*
X122896875Y-133239951D01*
X122896617Y-133232824D01*
X122895842Y-133226169D01*
X122894324Y-133219139D01*
X122892131Y-133212724D01*
X122891477Y-133211216D01*
X122888550Y-133205382D01*
X122885008Y-133199944D01*
X122880850Y-133194904D01*
X122876078Y-133190260D01*
X122870730Y-133185865D01*
X122864846Y-133181727D01*
X122859258Y-133178318D01*
X122853259Y-133175107D01*
X122851470Y-133174226D01*
X122844967Y-133171162D01*
X122839103Y-133168524D01*
X122832971Y-133165875D01*
X122826571Y-133163214D01*
X122819903Y-133160543D01*
X122818766Y-133160096D01*
X122812385Y-133157592D01*
X122805981Y-133155199D01*
X122799555Y-133152919D01*
X122793107Y-133150749D01*
X122786636Y-133148692D01*
X122784474Y-133148031D01*
X122778007Y-133146077D01*
X122771585Y-133144146D01*
X122765208Y-133142237D01*
X122758875Y-133140351D01*
X122752586Y-133138486D01*
X122750500Y-133137870D01*
X122744249Y-133136024D01*
X122737998Y-133134179D01*
X122731747Y-133132333D01*
X122725496Y-133130488D01*
X122719245Y-133128642D01*
X122717161Y-133128027D01*
X122710938Y-133126088D01*
X122704770Y-133124083D01*
X122698659Y-133122010D01*
X122692603Y-133119871D01*
X122686603Y-133117664D01*
X122684616Y-133116914D01*
X122678414Y-133114424D01*
X122672352Y-133111794D01*
X122666428Y-133109026D01*
X122660643Y-133106118D01*
X122654997Y-133103072D01*
X122649491Y-133099887D01*
X122642802Y-133095711D01*
X122638893Y-133093100D01*
X122632637Y-133088572D01*
X122626667Y-133083820D01*
X122620984Y-133078842D01*
X122615588Y-133073640D01*
X122610479Y-133068213D01*
X122605657Y-133062561D01*
X122603808Y-133060237D01*
X122599406Y-133054221D01*
X122595331Y-133047980D01*
X122591580Y-133041514D01*
X122588155Y-133034824D01*
X122585056Y-133027908D01*
X122582283Y-133020768D01*
X122581264Y-133017849D01*
X122578978Y-133010333D01*
X122577427Y-133004141D01*
X122576125Y-132997791D01*
X122575071Y-132991282D01*
X122574264Y-132984614D01*
X122573706Y-132977788D01*
X122573396Y-132970802D01*
X122573326Y-132965459D01*
X122573458Y-132958918D01*
X122573852Y-132952471D01*
X122574510Y-132946118D01*
X122575701Y-132938309D01*
X122577303Y-132930648D01*
X122579317Y-132923134D01*
X122581741Y-132915768D01*
X122584582Y-132908572D01*
X122587750Y-132901570D01*
X122591243Y-132894761D01*
X122595061Y-132888146D01*
X122599206Y-132881726D01*
X122603675Y-132875499D01*
X122605554Y-132873062D01*
X122610460Y-132867102D01*
X122615653Y-132861329D01*
X122621133Y-132855741D01*
X122626900Y-132850340D01*
X122631720Y-132846153D01*
X122636723Y-132842084D01*
X122641910Y-132838135D01*
X122647288Y-132834323D01*
X122652785Y-132830664D01*
X122658401Y-132827159D01*
X122664136Y-132823807D01*
X122669990Y-132820610D01*
X122675963Y-132817566D01*
X122682056Y-132814676D01*
X122688267Y-132811940D01*
X122694627Y-132809360D01*
X122701087Y-132806939D01*
X122707646Y-132804677D01*
X122714303Y-132802573D01*
X122721061Y-132800629D01*
X122727917Y-132798843D01*
X122734872Y-132797215D01*
X122741927Y-132795747D01*
X122749094Y-132794445D01*
X122756305Y-132793316D01*
X122763561Y-132792361D01*
X122770861Y-132791579D01*
X122778206Y-132790972D01*
X122785596Y-132790538D01*
X122793030Y-132790277D01*
X122800509Y-132790190D01*
X122806921Y-132790225D01*
X122813378Y-132790329D01*
X122819880Y-132790503D01*
X122826426Y-132790746D01*
X122833017Y-132791059D01*
X122839653Y-132791441D01*
X122846333Y-132791892D01*
X122853058Y-132792413D01*
X122859822Y-132792956D01*
X122866542Y-132793554D01*
X122873218Y-132794206D01*
X122879848Y-132794913D01*
X122886434Y-132795675D01*
X122892975Y-132796491D01*
X122899472Y-132797362D01*
X122905924Y-132798287D01*
X122912351Y-132799212D01*
X122918694Y-132800162D01*
X122926504Y-132801385D01*
X122934182Y-132802646D01*
X122941729Y-132803946D01*
X122949143Y-132805285D01*
X122954980Y-132806384D01*
X122962111Y-132807769D01*
X122969017Y-132809146D01*
X122975699Y-132810516D01*
X122982155Y-132811878D01*
X122988387Y-132813232D01*
X122995568Y-132814847D01*
X122996734Y-132815115D01*
X122996734Y-132973079D01*
X122943232Y-132973079D01*
X122920054Y-132903226D01*
X122917077Y-132897511D01*
X122912628Y-132892441D01*
X122912274Y-132892113D01*
X122907426Y-132887954D01*
X122902256Y-132884243D01*
X122901638Y-132883857D01*
X122895845Y-132880784D01*
X122889552Y-132877815D01*
X122884174Y-132875443D01*
X122877595Y-132872738D01*
X122871347Y-132870438D01*
X122864721Y-132868238D01*
X122858614Y-132866394D01*
X122852325Y-132864587D01*
X122845960Y-132862917D01*
X122839519Y-132861383D01*
X122833002Y-132859987D01*
X122829244Y-132859250D01*
X122822791Y-132858075D01*
X122816490Y-132857188D01*
X122809475Y-132856528D01*
X122802658Y-132856245D01*
X122800985Y-132856234D01*
X122793347Y-132856389D01*
X122786012Y-132856854D01*
X122778978Y-132857629D01*
X122772248Y-132858714D01*
X122765819Y-132860110D01*
X122759693Y-132861815D01*
X122757327Y-132862584D01*
X122750562Y-132865094D01*
X122744199Y-132867860D01*
X122738239Y-132870883D01*
X122732680Y-132874163D01*
X122726702Y-132878314D01*
X122725893Y-132878936D01*
X122720640Y-132883402D01*
X122715995Y-132888187D01*
X122711958Y-132893291D01*
X122708529Y-132898714D01*
X122706842Y-132901956D01*
X122704064Y-132908465D01*
X122702079Y-132914974D01*
X122700888Y-132921483D01*
X122700491Y-132927992D01*
X122700730Y-132934858D01*
X122701444Y-132941487D01*
X122702635Y-132947877D01*
X122704302Y-132954028D01*
X122706986Y-132960575D01*
X122710132Y-132966142D01*
X122713991Y-132971470D01*
X122717955Y-132975937D01*
X122723243Y-132980849D01*
X122728473Y-132985000D01*
X122734265Y-132989014D01*
X122739677Y-132992346D01*
X122743515Y-132994512D01*
X122749742Y-132997704D01*
X122756516Y-133000852D01*
X122762578Y-133003441D01*
X122769021Y-133005999D01*
X122775843Y-133008526D01*
X122783046Y-133011023D01*
X122789096Y-133012970D01*
X122796098Y-133015201D01*
X122803039Y-133017385D01*
X122809920Y-133019524D01*
X122814797Y-133021024D01*
X122821696Y-133023116D01*
X122828641Y-133025222D01*
X122835631Y-133027344D01*
X122842667Y-133029481D01*
X122846707Y-133030709D01*
X122852851Y-133032522D01*
X122859016Y-133034392D01*
X122865204Y-133036318D01*
X122871414Y-133038299D01*
X122877647Y-133040336D01*
X122879729Y-133041028D01*
X122886053Y-133043167D01*
X122892521Y-133045418D01*
X122899135Y-133047781D01*
X122905894Y-133050256D01*
X122912798Y-133052842D01*
X122915132Y-133053728D01*
X122922176Y-133056683D01*
X122929120Y-133059793D01*
X122935962Y-133063059D01*
X122942704Y-133066479D01*
X122949345Y-133070054D01*
X122955885Y-133073784D01*
X122958473Y-133075319D01*
X122964852Y-133079317D01*
X122970991Y-133083571D01*
X122976889Y-133088080D01*
X122982547Y-133092845D01*
X122987965Y-133097866D01*
X122993142Y-133103142D01*
X122995146Y-133105325D01*
X122999948Y-133110937D01*
X123004433Y-133116859D01*
X123008599Y-133123092D01*
X123012448Y-133129634D01*
X123015979Y-133136487D01*
X123019192Y-133143650D01*
X123020389Y-133146602D01*
X123022584Y-133152669D01*
X123024486Y-133158965D01*
X123026096Y-133165489D01*
X123027414Y-133172241D01*
X123028438Y-133179222D01*
X123029170Y-133186430D01*
X123029609Y-133193867D01*
X123029755Y-133201532D01*
X123029617Y-133208470D01*
X123029203Y-133215351D01*
X123028512Y-133222177D01*
X123027545Y-133228947D01*
X123026302Y-133235662D01*
X123024782Y-133242320D01*
X123022986Y-133248923D01*
X123020914Y-133255470D01*
X123018566Y-133261961D01*
X123015941Y-133268396D01*
X123014038Y-133272655D01*
X123010979Y-133278957D01*
X123007635Y-133285122D01*
X123004006Y-133291151D01*
X123000092Y-133297042D01*
X122995894Y-133302797D01*
X122991412Y-133308415D01*
X122986644Y-133313896D01*
X122981592Y-133319241D01*
X122976255Y-133324449D01*
X122970634Y-133329520D01*
X122966728Y-133332825D01*
X122960628Y-133337613D01*
X122954236Y-133342214D01*
X122947550Y-133346629D01*
X122940571Y-133350856D01*
X122933299Y-133354897D01*
X122925734Y-133358750D01*
X122917875Y-133362416D01*
X122909724Y-133365896D01*
X122901280Y-133369188D01*
X122892543Y-133372294D01*
X122886556Y-133374260D01*
X122880454Y-133376125D01*
X122874215Y-133377870D01*
X122867838Y-133379494D01*
X122861323Y-133380998D01*
X122854671Y-133382381D01*
X122847881Y-133383645D01*
X122840953Y-133384788D01*
X122833888Y-133385810D01*
X122826685Y-133386712D01*
X122819344Y-133387494D01*
X122811866Y-133388156D01*
X122804250Y-133388698D01*
X122796496Y-133389119D01*
X122788605Y-133389419D01*
X122780576Y-133389600D01*
X122772409Y-133389660D01*
G37*
D10*
G36*
X114281259Y-135603621D02*
G01*
X114300542Y-135655041D01*
X114297667Y-135678038D01*
X113964519Y-135743043D01*
X113973433Y-135671728D01*
X114012491Y-135609235D01*
X114078544Y-135578152D01*
X114233504Y-135578152D01*
X114281259Y-135603621D01*
G37*
G36*
X116296052Y-136071921D02*
G01*
X116247396Y-136094819D01*
X116044814Y-136094819D01*
X115997061Y-136069350D01*
X115977778Y-136017927D01*
X115985338Y-135957442D01*
X116024397Y-135894949D01*
X116090450Y-135863866D01*
X116311780Y-135863866D01*
X116315131Y-135862646D01*
X116318579Y-135863557D01*
X116322221Y-135862567D01*
X116296052Y-136071921D01*
G37*
G36*
X118090784Y-135603621D02*
G01*
X118110067Y-135655041D01*
X118107192Y-135678038D01*
X117774044Y-135743043D01*
X117782958Y-135671728D01*
X117822016Y-135609235D01*
X117888069Y-135578152D01*
X118043029Y-135578152D01*
X118090784Y-135603621D01*
G37*
G36*
X127431041Y-135277154D02*
G01*
X127454681Y-135304171D01*
X127482502Y-135378360D01*
X127504054Y-135550770D01*
X127476550Y-135770802D01*
X127410862Y-135945968D01*
X127361037Y-136025688D01*
X127323620Y-136058948D01*
X127247397Y-136094819D01*
X127187673Y-136094819D01*
X127127042Y-136062482D01*
X127103402Y-136035464D01*
X127075582Y-135961276D01*
X127054030Y-135788865D01*
X127081534Y-135568836D01*
X127147222Y-135393669D01*
X127197047Y-135313949D01*
X127234466Y-135280687D01*
X127310689Y-135244819D01*
X127370413Y-135244819D01*
X127431041Y-135277154D01*
G37*
G36*
X121764374Y-135277154D02*
G01*
X121788014Y-135304171D01*
X121812448Y-135369327D01*
X121798935Y-135477432D01*
X121753894Y-135549497D01*
X121716476Y-135582757D01*
X121640254Y-135618628D01*
X121361025Y-135618628D01*
X121407751Y-135244819D01*
X121703746Y-135244819D01*
X121764374Y-135277154D01*
G37*
G36*
X129713023Y-136387676D02*
G01*
X111713548Y-136387676D01*
X111713548Y-136160516D01*
X111856405Y-136160516D01*
X111867837Y-136210530D01*
X111908741Y-136241494D01*
X111959980Y-136238921D01*
X111997577Y-136204015D01*
X112005247Y-136179122D01*
X112007573Y-136160516D01*
X112332595Y-136160516D01*
X112344027Y-136210529D01*
X112384931Y-136241494D01*
X112436170Y-136238921D01*
X112473767Y-136204015D01*
X112481437Y-136179122D01*
X112549365Y-135635695D01*
X112573749Y-135614020D01*
X112649972Y-135578152D01*
X112757313Y-135578152D01*
X112805068Y-135603621D01*
X112824351Y-135655041D01*
X112761167Y-136160516D01*
X112772599Y-136210530D01*
X112813503Y-136241494D01*
X112864742Y-136238921D01*
X112902339Y-136204014D01*
X112910009Y-136179122D01*
X112975485Y-135655312D01*
X112974319Y-135650214D01*
X112976061Y-135645282D01*
X112971289Y-135619675D01*
X112935575Y-135524437D01*
X112926412Y-135513730D01*
X112921150Y-135500657D01*
X112907709Y-135490128D01*
X113178394Y-135490128D01*
X113187303Y-135540652D01*
X113226603Y-135573629D01*
X113252255Y-135578152D01*
X113310153Y-135578152D01*
X113255215Y-136017658D01*
X113256380Y-136022755D01*
X113254639Y-136027688D01*
X113259411Y-136053295D01*
X113295125Y-136148534D01*
X113304286Y-136159239D01*
X113309550Y-136172314D01*
X113327526Y-136186395D01*
X113328482Y-136187512D01*
X113329078Y-136187611D01*
X113330056Y-136188377D01*
X113419342Y-136235996D01*
X113424778Y-136236767D01*
X113428984Y-136240296D01*
X113454636Y-136244819D01*
X113549874Y-136244819D01*
X113598083Y-136227272D01*
X113623735Y-136182843D01*
X113614826Y-136132319D01*
X113575526Y-136099342D01*
X113549874Y-136094819D01*
X113473385Y-136094819D01*
X113425631Y-136069349D01*
X113410008Y-136027689D01*
X113778448Y-136027689D01*
X113783220Y-136053296D01*
X113818935Y-136148534D01*
X113828097Y-136159240D01*
X113833360Y-136172314D01*
X113851334Y-136186393D01*
X113852292Y-136187512D01*
X113852889Y-136187611D01*
X113853866Y-136188376D01*
X113943151Y-136235995D01*
X113948586Y-136236765D01*
X113952793Y-136240296D01*
X113978445Y-136244819D01*
X114168922Y-136244819D01*
X114172273Y-136243599D01*
X114175721Y-136244510D01*
X114200857Y-136237680D01*
X114302047Y-136190061D01*
X114331385Y-136160516D01*
X114665929Y-136160516D01*
X114677361Y-136210529D01*
X114718265Y-136241494D01*
X114769504Y-136238921D01*
X114807101Y-136204015D01*
X114814771Y-136179122D01*
X114872243Y-135719347D01*
X114917283Y-135647282D01*
X114954702Y-135614020D01*
X115030925Y-135578152D01*
X115109398Y-135578152D01*
X115157607Y-135560605D01*
X115183259Y-135516176D01*
X115178666Y-135490128D01*
X115226014Y-135490128D01*
X115234923Y-135540652D01*
X115274223Y-135573629D01*
X115299875Y-135578152D01*
X115357773Y-135578152D01*
X115284977Y-136160516D01*
X115296409Y-136210530D01*
X115337313Y-136241494D01*
X115388552Y-136238921D01*
X115426149Y-136204015D01*
X115433819Y-136179122D01*
X115452748Y-136027689D01*
X115826068Y-136027689D01*
X115830840Y-136053296D01*
X115866555Y-136148534D01*
X115875717Y-136159240D01*
X115880980Y-136172314D01*
X115898954Y-136186393D01*
X115899912Y-136187512D01*
X115900509Y-136187611D01*
X115901486Y-136188376D01*
X115990771Y-136235995D01*
X115996206Y-136236765D01*
X116000413Y-136240296D01*
X116026065Y-136244819D01*
X116264161Y-136244819D01*
X116267512Y-136243599D01*
X116270960Y-136244510D01*
X116296096Y-136237680D01*
X116318406Y-136227181D01*
X116337314Y-136241494D01*
X116388553Y-136238921D01*
X116426150Y-136204014D01*
X116433820Y-136179122D01*
X116458702Y-135980069D01*
X116736783Y-135980069D01*
X116741555Y-136005676D01*
X116777269Y-136100914D01*
X116777553Y-136101246D01*
X116777563Y-136101684D01*
X116791050Y-136123968D01*
X116832718Y-136171588D01*
X116833168Y-136171835D01*
X116833361Y-136172314D01*
X116853867Y-136188377D01*
X116943153Y-136235996D01*
X116948589Y-136236767D01*
X116952795Y-136240296D01*
X116978447Y-136244819D01*
X117168923Y-136244819D01*
X117172274Y-136243599D01*
X117175722Y-136244510D01*
X117200858Y-136237680D01*
X117302048Y-136190061D01*
X117338197Y-136153657D01*
X117342490Y-136102534D01*
X117312916Y-136060613D01*
X117263315Y-136047508D01*
X117238178Y-136054338D01*
X117152158Y-136094819D01*
X116997196Y-136094819D01*
X116936565Y-136062482D01*
X116912925Y-136035464D01*
X116910009Y-136027689D01*
X117587973Y-136027689D01*
X117592745Y-136053296D01*
X117628460Y-136148534D01*
X117637622Y-136159240D01*
X117642885Y-136172314D01*
X117660859Y-136186393D01*
X117661817Y-136187512D01*
X117662414Y-136187611D01*
X117663391Y-136188376D01*
X117752676Y-136235995D01*
X117758111Y-136236765D01*
X117762318Y-136240296D01*
X117787970Y-136244819D01*
X117978447Y-136244819D01*
X117981798Y-136243599D01*
X117985246Y-136244510D01*
X118010382Y-136237680D01*
X118111572Y-136190061D01*
X118147721Y-136153657D01*
X118152014Y-136102534D01*
X118122440Y-136060613D01*
X118072839Y-136047508D01*
X118047702Y-136054338D01*
X117961682Y-136094819D01*
X117806719Y-136094819D01*
X117758966Y-136069350D01*
X117739683Y-136017927D01*
X117754462Y-135899693D01*
X118189239Y-135814859D01*
X118196068Y-135810748D01*
X118204029Y-135810349D01*
X118217475Y-135797864D01*
X118233195Y-135788404D01*
X118235784Y-135780866D01*
X118241626Y-135775443D01*
X118249296Y-135750550D01*
X118249296Y-135750549D01*
X119243312Y-135750549D01*
X119267121Y-135941025D01*
X119268727Y-135944160D01*
X119271317Y-135958058D01*
X119307032Y-136053295D01*
X119307316Y-136053627D01*
X119307326Y-136054065D01*
X119320813Y-136076348D01*
X119404147Y-136171588D01*
X119409865Y-136174733D01*
X119413209Y-136180338D01*
X119435951Y-136193037D01*
X119572856Y-136240656D01*
X119573807Y-136240642D01*
X119597495Y-136244819D01*
X119692733Y-136244819D01*
X119694748Y-136244085D01*
X119715591Y-136241251D01*
X119864400Y-136193632D01*
X119866516Y-136191993D01*
X119869192Y-136191917D01*
X119891370Y-136178255D01*
X119911326Y-136160516D01*
X120237359Y-136160516D01*
X120242679Y-136183793D01*
X120246828Y-136207319D01*
X120248348Y-136208595D01*
X120248791Y-136210530D01*
X120267834Y-136224946D01*
X120286128Y-136240296D01*
X120288714Y-136240752D01*
X120289695Y-136241494D01*
X120292206Y-136241367D01*
X120311780Y-136244819D01*
X120787971Y-136244819D01*
X120836180Y-136227272D01*
X120861832Y-136182843D01*
X120857895Y-136160516D01*
X121142121Y-136160516D01*
X121153553Y-136210530D01*
X121194457Y-136241494D01*
X121245696Y-136238921D01*
X121283293Y-136204015D01*
X121290963Y-136179122D01*
X121342275Y-135768628D01*
X121657019Y-135768628D01*
X121660370Y-135767408D01*
X121663818Y-135768319D01*
X121688954Y-135761489D01*
X121790144Y-135713870D01*
X121792147Y-135711852D01*
X121808036Y-135702065D01*
X121861608Y-135654445D01*
X121862972Y-135651917D01*
X121875380Y-135638140D01*
X121934904Y-135542902D01*
X121935600Y-135539625D01*
X121938055Y-135537347D01*
X121945725Y-135512455D01*
X121963582Y-135369597D01*
X121962416Y-135364499D01*
X121964158Y-135359568D01*
X121959386Y-135333961D01*
X121923672Y-135238723D01*
X121923387Y-135238390D01*
X121923378Y-135237952D01*
X121909890Y-135215669D01*
X121868223Y-135168050D01*
X121867772Y-135167802D01*
X121867580Y-135167324D01*
X121857055Y-135159080D01*
X122886363Y-135159080D01*
X122887166Y-135185116D01*
X123095500Y-136185116D01*
X123096809Y-136187230D01*
X123096609Y-136189706D01*
X123110174Y-136208812D01*
X123122511Y-136228732D01*
X123124870Y-136229509D01*
X123126310Y-136231537D01*
X123148984Y-136237453D01*
X123171238Y-136244784D01*
X123173547Y-136243861D01*
X123175951Y-136244489D01*
X123197122Y-136234447D01*
X123218883Y-136225757D01*
X123220058Y-136223568D01*
X123222304Y-136222503D01*
X123237104Y-136201068D01*
X123278253Y-136111288D01*
X123719722Y-136111288D01*
X123723594Y-136130099D01*
X123723992Y-136149304D01*
X123729381Y-136158208D01*
X123730067Y-136161537D01*
X123732619Y-136163557D01*
X123737480Y-136171587D01*
X123779146Y-136219206D01*
X123796463Y-136228732D01*
X123811958Y-136240998D01*
X123812817Y-136240973D01*
X123813505Y-136241494D01*
X123819148Y-136241210D01*
X123824097Y-136243933D01*
X123843483Y-136240099D01*
X123863239Y-136239537D01*
X123864194Y-136238948D01*
X123864744Y-136238921D01*
X123865739Y-136237996D01*
X123871231Y-136234613D01*
X123874426Y-136233982D01*
X123876557Y-136231332D01*
X123885417Y-136225875D01*
X123938989Y-136178256D01*
X123948113Y-136161356D01*
X123951782Y-136156795D01*
X124190300Y-136156795D01*
X124199209Y-136207319D01*
X124238509Y-136240296D01*
X124264161Y-136244819D01*
X124835590Y-136244819D01*
X124883799Y-136227272D01*
X124909451Y-136182843D01*
X124905230Y-136158906D01*
X125856626Y-136158906D01*
X125861596Y-136183048D01*
X125865876Y-136207319D01*
X125866742Y-136208046D01*
X125866971Y-136209155D01*
X125886295Y-136224452D01*
X125905176Y-136240296D01*
X125906632Y-136240552D01*
X125907196Y-136240999D01*
X125908889Y-136240950D01*
X125930828Y-136244819D01*
X126549876Y-136244819D01*
X126598085Y-136227272D01*
X126623737Y-136182843D01*
X126614828Y-136132319D01*
X126575528Y-136099342D01*
X126549876Y-136094819D01*
X126128093Y-136094819D01*
X126461824Y-135798169D01*
X126904026Y-135798169D01*
X126927836Y-135988644D01*
X126929442Y-135991779D01*
X126932032Y-136005676D01*
X126967746Y-136100914D01*
X126968030Y-136101246D01*
X126968040Y-136101684D01*
X126981527Y-136123968D01*
X127023195Y-136171588D01*
X127023645Y-136171835D01*
X127023838Y-136172314D01*
X127044344Y-136188377D01*
X127133630Y-136235996D01*
X127139066Y-136236767D01*
X127143272Y-136240296D01*
X127168924Y-136244819D01*
X127264162Y-136244819D01*
X127267513Y-136243599D01*
X127270961Y-136244510D01*
X127296097Y-136237680D01*
X127397287Y-136190061D01*
X127399290Y-136188042D01*
X127415180Y-136178255D01*
X127436947Y-136158906D01*
X127761388Y-136158906D01*
X127766358Y-136183048D01*
X127770638Y-136207319D01*
X127771504Y-136208046D01*
X127771733Y-136209155D01*
X127791057Y-136224452D01*
X127809938Y-136240296D01*
X127811394Y-136240552D01*
X127811958Y-136240999D01*
X127813651Y-136240950D01*
X127835590Y-136244819D01*
X128454638Y-136244819D01*
X128502847Y-136227272D01*
X128528499Y-136182843D01*
X128519590Y-136132319D01*
X128480290Y-136099342D01*
X128454638Y-136094819D01*
X128032855Y-136094819D01*
X128338132Y-135823461D01*
X128803396Y-135823461D01*
X128806280Y-135839819D01*
X128804942Y-135856372D01*
X128810605Y-135864349D01*
X128812305Y-135873985D01*
X128825027Y-135884660D01*
X128834643Y-135898203D01*
X128844110Y-135900673D01*
X128851605Y-135906962D01*
X128877257Y-135911485D01*
X129268489Y-135911485D01*
X129237360Y-136160516D01*
X129248792Y-136210530D01*
X129289696Y-136241494D01*
X129340935Y-136238921D01*
X129378532Y-136204014D01*
X129386202Y-136179122D01*
X129419656Y-135911485D01*
X129496305Y-135911485D01*
X129544514Y-135893938D01*
X129570166Y-135849509D01*
X129561257Y-135798985D01*
X129521957Y-135766008D01*
X129496305Y-135761485D01*
X129438406Y-135761485D01*
X129469535Y-135512455D01*
X129458103Y-135462442D01*
X129417199Y-135431477D01*
X129365960Y-135434050D01*
X129328363Y-135468957D01*
X129320693Y-135493850D01*
X129287239Y-135761485D01*
X128994135Y-135761485D01*
X129272818Y-135153449D01*
X129276953Y-135102313D01*
X129247252Y-135060482D01*
X129197611Y-135047530D01*
X129151258Y-135069516D01*
X129136458Y-135090951D01*
X128809077Y-135805236D01*
X128808288Y-135814987D01*
X128803396Y-135823461D01*
X128338132Y-135823461D01*
X128528274Y-135654446D01*
X128529498Y-135652178D01*
X128531827Y-135651074D01*
X128546627Y-135629639D01*
X128612104Y-135486782D01*
X128612289Y-135484488D01*
X128618345Y-135464835D01*
X128630249Y-135369597D01*
X128629083Y-135364499D01*
X128630825Y-135359568D01*
X128626053Y-135333961D01*
X128590339Y-135238723D01*
X128590054Y-135238390D01*
X128590045Y-135237952D01*
X128576557Y-135215669D01*
X128534890Y-135168050D01*
X128534439Y-135167802D01*
X128534247Y-135167324D01*
X128513741Y-135151262D01*
X128424456Y-135103643D01*
X128419021Y-135102872D01*
X128414814Y-135099342D01*
X128389162Y-135094819D01*
X128151066Y-135094819D01*
X128147716Y-135096038D01*
X128144268Y-135095127D01*
X128119131Y-135101957D01*
X128017941Y-135149577D01*
X128015937Y-135151594D01*
X128000049Y-135161382D01*
X127946478Y-135209001D01*
X127922103Y-135254145D01*
X127932448Y-135304394D01*
X127972673Y-135336237D01*
X128023955Y-135334774D01*
X128046132Y-135321113D01*
X128091610Y-135280687D01*
X128167831Y-135244819D01*
X128370413Y-135244819D01*
X128431041Y-135277154D01*
X128454681Y-135304171D01*
X128479115Y-135369328D01*
X128470934Y-135434775D01*
X128416836Y-135552808D01*
X127785763Y-136113763D01*
X127774054Y-136135447D01*
X127761729Y-136156795D01*
X127761925Y-136157910D01*
X127761388Y-136158906D01*
X127436947Y-136158906D01*
X127468751Y-136130636D01*
X127470116Y-136128107D01*
X127482524Y-136114330D01*
X127542047Y-136019091D01*
X127542775Y-136015663D01*
X127548672Y-136005676D01*
X127620101Y-135815200D01*
X127620135Y-135811676D01*
X127624297Y-135798169D01*
X127654059Y-135560074D01*
X127653293Y-135556723D01*
X127654059Y-135541468D01*
X127630249Y-135350992D01*
X127628642Y-135347855D01*
X127626053Y-135333961D01*
X127590339Y-135238723D01*
X127590054Y-135238390D01*
X127590045Y-135237952D01*
X127576557Y-135215669D01*
X127534890Y-135168050D01*
X127534439Y-135167802D01*
X127534247Y-135167324D01*
X127513741Y-135151262D01*
X127424456Y-135103643D01*
X127419021Y-135102872D01*
X127414814Y-135099342D01*
X127389162Y-135094819D01*
X127293924Y-135094819D01*
X127290574Y-135096038D01*
X127287126Y-135095127D01*
X127261990Y-135101957D01*
X127160798Y-135149577D01*
X127158794Y-135151594D01*
X127142906Y-135161382D01*
X127089335Y-135209001D01*
X127087969Y-135211529D01*
X127075562Y-135225307D01*
X127016038Y-135320545D01*
X127015308Y-135323975D01*
X127009414Y-135333960D01*
X126937984Y-135524437D01*
X126937949Y-135527960D01*
X126933788Y-135541468D01*
X126904026Y-135779563D01*
X126904791Y-135782913D01*
X126904026Y-135798169D01*
X126461824Y-135798169D01*
X126623512Y-135654446D01*
X126624736Y-135652178D01*
X126627065Y-135651074D01*
X126641865Y-135629639D01*
X126707342Y-135486782D01*
X126707527Y-135484488D01*
X126713583Y-135464835D01*
X126725487Y-135369597D01*
X126724321Y-135364499D01*
X126726063Y-135359568D01*
X126721291Y-135333961D01*
X126685577Y-135238723D01*
X126685292Y-135238390D01*
X126685283Y-135237952D01*
X126671795Y-135215669D01*
X126630128Y-135168050D01*
X126629677Y-135167802D01*
X126629485Y-135167324D01*
X126608979Y-135151262D01*
X126519694Y-135103643D01*
X126514259Y-135102872D01*
X126510052Y-135099342D01*
X126484400Y-135094819D01*
X126246304Y-135094819D01*
X126242954Y-135096038D01*
X126239506Y-135095127D01*
X126214369Y-135101957D01*
X126113179Y-135149577D01*
X126111175Y-135151594D01*
X126095287Y-135161382D01*
X126041716Y-135209001D01*
X126017341Y-135254145D01*
X126027686Y-135304394D01*
X126067911Y-135336237D01*
X126119193Y-135334774D01*
X126141370Y-135321113D01*
X126186848Y-135280687D01*
X126263069Y-135244819D01*
X126465651Y-135244819D01*
X126526279Y-135277154D01*
X126549919Y-135304171D01*
X126574353Y-135369328D01*
X126566172Y-135434775D01*
X126512074Y-135552808D01*
X125881001Y-136113763D01*
X125869292Y-136135447D01*
X125856967Y-136156795D01*
X125857163Y-136157910D01*
X125856626Y-136158906D01*
X124905230Y-136158906D01*
X124900542Y-136132319D01*
X124861242Y-136099342D01*
X124835590Y-136094819D01*
X124634835Y-136094819D01*
X124749297Y-135179122D01*
X124747971Y-135173324D01*
X124749845Y-135167683D01*
X124742378Y-135148855D01*
X124737865Y-135129109D01*
X124733125Y-135125520D01*
X124730933Y-135119993D01*
X124713111Y-135110370D01*
X124696961Y-135098144D01*
X124691020Y-135098442D01*
X124685790Y-135095618D01*
X124665955Y-135099700D01*
X124645722Y-135100717D01*
X124641363Y-135104763D01*
X124635541Y-135105962D01*
X124616072Y-135123266D01*
X124507049Y-135260978D01*
X124412904Y-135344663D01*
X124321512Y-135387672D01*
X124285363Y-135424076D01*
X124281071Y-135475198D01*
X124310644Y-135517120D01*
X124360245Y-135530224D01*
X124385382Y-135523394D01*
X124486573Y-135475775D01*
X124488576Y-135473757D01*
X124504465Y-135463970D01*
X124569780Y-135405911D01*
X124483667Y-136094819D01*
X124264161Y-136094819D01*
X124215952Y-136112366D01*
X124190300Y-136156795D01*
X123951782Y-136156795D01*
X123960155Y-136146388D01*
X123960008Y-136139326D01*
X123963364Y-136133113D01*
X123959491Y-136114299D01*
X123959094Y-136095096D01*
X123953705Y-136086193D01*
X123953020Y-136082864D01*
X123950466Y-136080842D01*
X123945606Y-136072813D01*
X123903939Y-136025192D01*
X123886620Y-136015666D01*
X123871126Y-136003400D01*
X123870266Y-136003424D01*
X123869580Y-136002905D01*
X123863936Y-136003188D01*
X123858987Y-136000466D01*
X123839599Y-136004299D01*
X123819844Y-136004863D01*
X123818890Y-136005450D01*
X123818341Y-136005478D01*
X123817345Y-136006402D01*
X123811853Y-136009785D01*
X123808659Y-136010417D01*
X123806527Y-136013066D01*
X123797667Y-136018525D01*
X123744096Y-136066145D01*
X123734971Y-136083043D01*
X123722931Y-136098012D01*
X123723077Y-136105074D01*
X123719722Y-136111288D01*
X123278253Y-136111288D01*
X123695437Y-135201068D01*
X123699572Y-135149932D01*
X123669871Y-135108101D01*
X123620229Y-135095149D01*
X123573877Y-135117135D01*
X123559077Y-135138570D01*
X123195811Y-135931149D01*
X123034014Y-135154522D01*
X123007003Y-135110906D01*
X122958276Y-135094854D01*
X122910631Y-135113881D01*
X122886363Y-135159080D01*
X121857055Y-135159080D01*
X121847074Y-135151262D01*
X121757789Y-135103643D01*
X121752354Y-135102872D01*
X121748147Y-135099342D01*
X121722495Y-135094819D01*
X121341542Y-135094819D01*
X121327410Y-135099962D01*
X121312388Y-135100717D01*
X121304037Y-135108469D01*
X121293333Y-135112366D01*
X121285812Y-135125390D01*
X121274791Y-135135624D01*
X121268939Y-135154615D01*
X121267681Y-135156795D01*
X121267894Y-135158006D01*
X121267121Y-135160517D01*
X121142121Y-136160516D01*
X120857895Y-136160516D01*
X120852923Y-136132319D01*
X120813623Y-136099342D01*
X120787971Y-136094819D01*
X120396739Y-136094819D01*
X120443465Y-135721009D01*
X120710590Y-135721009D01*
X120758799Y-135703462D01*
X120784451Y-135659033D01*
X120775542Y-135608509D01*
X120736242Y-135575532D01*
X120710590Y-135571009D01*
X120462215Y-135571009D01*
X120502989Y-135244819D01*
X120912971Y-135244819D01*
X120961180Y-135227272D01*
X120986832Y-135182843D01*
X120977923Y-135132319D01*
X120938623Y-135099342D01*
X120912971Y-135094819D01*
X120436780Y-135094819D01*
X120422648Y-135099962D01*
X120407626Y-135100717D01*
X120399275Y-135108469D01*
X120388571Y-135112366D01*
X120381050Y-135125390D01*
X120370029Y-135135624D01*
X120364177Y-135154615D01*
X120362919Y-135156795D01*
X120363132Y-135158006D01*
X120362359Y-135160517D01*
X120237359Y-136160516D01*
X119911326Y-136160516D01*
X119944941Y-136130636D01*
X119969315Y-136085492D01*
X119958971Y-136035244D01*
X119918746Y-136003400D01*
X119867464Y-136004863D01*
X119845286Y-136018525D01*
X119803573Y-136055603D01*
X119681025Y-136094819D01*
X119610165Y-136094819D01*
X119503968Y-136057881D01*
X119442688Y-135987845D01*
X119414867Y-135913656D01*
X119393316Y-135741247D01*
X119408915Y-135616455D01*
X119474603Y-135441287D01*
X119524427Y-135361568D01*
X119611653Y-135284034D01*
X119734203Y-135244819D01*
X119805063Y-135244819D01*
X119911259Y-135281756D01*
X119939860Y-135314444D01*
X119984811Y-135339171D01*
X120035140Y-135329220D01*
X120067297Y-135289245D01*
X120066235Y-135237953D01*
X120052747Y-135215669D01*
X120011082Y-135168051D01*
X120005363Y-135164905D01*
X120002019Y-135159300D01*
X119979277Y-135146601D01*
X119842372Y-135098982D01*
X119841420Y-135098995D01*
X119817733Y-135094819D01*
X119722495Y-135094819D01*
X119720479Y-135095552D01*
X119699637Y-135098387D01*
X119550827Y-135146006D01*
X119548710Y-135147644D01*
X119546035Y-135147721D01*
X119523858Y-135161382D01*
X119416715Y-135256620D01*
X119415349Y-135259149D01*
X119402942Y-135272926D01*
X119343418Y-135368164D01*
X119342688Y-135371593D01*
X119336793Y-135381580D01*
X119265365Y-135572056D01*
X119265330Y-135575579D01*
X119261169Y-135589087D01*
X119243312Y-135731944D01*
X119244078Y-135735296D01*
X119243312Y-135750549D01*
X118249296Y-135750549D01*
X118261201Y-135655312D01*
X118260035Y-135650214D01*
X118261777Y-135645282D01*
X118257005Y-135619675D01*
X118221291Y-135524437D01*
X118212128Y-135513730D01*
X118206866Y-135500657D01*
X118188894Y-135486579D01*
X118187934Y-135485458D01*
X118187334Y-135485358D01*
X118186360Y-135484595D01*
X118097074Y-135436975D01*
X118091637Y-135436204D01*
X118087432Y-135432675D01*
X118061780Y-135428152D01*
X117871304Y-135428152D01*
X117867954Y-135429371D01*
X117864506Y-135428460D01*
X117839370Y-135435290D01*
X117738178Y-135482910D01*
X117732121Y-135489008D01*
X117723944Y-135491665D01*
X117706513Y-135511021D01*
X117646990Y-135606259D01*
X117646293Y-135609534D01*
X117643839Y-135611813D01*
X117636169Y-135636706D01*
X117588549Y-136017658D01*
X117589714Y-136022756D01*
X117587973Y-136027689D01*
X116910009Y-136027689D01*
X116888492Y-135970309D01*
X116919862Y-135719347D01*
X116964903Y-135647282D01*
X117002322Y-135614020D01*
X117078545Y-135578152D01*
X117233505Y-135578152D01*
X117306248Y-135616948D01*
X117357043Y-135624152D01*
X117400585Y-135597021D01*
X117416500Y-135548248D01*
X117397342Y-135500657D01*
X117376836Y-135484595D01*
X117287550Y-135436975D01*
X117282113Y-135436204D01*
X117277908Y-135432675D01*
X117252256Y-135428152D01*
X117061780Y-135428152D01*
X117058430Y-135429371D01*
X117054982Y-135428460D01*
X117029846Y-135435290D01*
X116928654Y-135482910D01*
X116926650Y-135484927D01*
X116910762Y-135494715D01*
X116857191Y-135542334D01*
X116855825Y-135544862D01*
X116843418Y-135558640D01*
X116783894Y-135653878D01*
X116783197Y-135657154D01*
X116780743Y-135659433D01*
X116773073Y-135684326D01*
X116737359Y-135970039D01*
X116738524Y-135975136D01*
X116736783Y-135980069D01*
X116458702Y-135980069D01*
X116499296Y-135655312D01*
X116498130Y-135650214D01*
X116499872Y-135645282D01*
X116495100Y-135619675D01*
X116459386Y-135524437D01*
X116450223Y-135513730D01*
X116444961Y-135500657D01*
X116426989Y-135486579D01*
X116426029Y-135485458D01*
X116425429Y-135485358D01*
X116424455Y-135484595D01*
X116335169Y-135436975D01*
X116329732Y-135436204D01*
X116325527Y-135432675D01*
X116299875Y-135428152D01*
X116109399Y-135428152D01*
X116106049Y-135429371D01*
X116102601Y-135428460D01*
X116077465Y-135435290D01*
X115976273Y-135482910D01*
X115940124Y-135519314D01*
X115935832Y-135570436D01*
X115965405Y-135612358D01*
X116015006Y-135625462D01*
X116040143Y-135618632D01*
X116126164Y-135578152D01*
X116281124Y-135578152D01*
X116328879Y-135603621D01*
X116348162Y-135655041D01*
X116343671Y-135690968D01*
X116295015Y-135713866D01*
X116073685Y-135713866D01*
X116070335Y-135715085D01*
X116066887Y-135714174D01*
X116041751Y-135721004D01*
X115940559Y-135768624D01*
X115934501Y-135774724D01*
X115926325Y-135777380D01*
X115908894Y-135796735D01*
X115849370Y-135891973D01*
X115848673Y-135895249D01*
X115846219Y-135897528D01*
X115838549Y-135922420D01*
X115826644Y-136017658D01*
X115827809Y-136022756D01*
X115826068Y-136027689D01*
X115452748Y-136027689D01*
X115508940Y-135578152D01*
X115680827Y-135578152D01*
X115729036Y-135560605D01*
X115754688Y-135516176D01*
X115745779Y-135465652D01*
X115706479Y-135432675D01*
X115680827Y-135428152D01*
X115527690Y-135428152D01*
X115538909Y-135338395D01*
X115577968Y-135275902D01*
X115644021Y-135244819D01*
X115722494Y-135244819D01*
X115770703Y-135227272D01*
X115796355Y-135182843D01*
X115787446Y-135132319D01*
X115748146Y-135099342D01*
X115722494Y-135094819D01*
X115627256Y-135094819D01*
X115623906Y-135096038D01*
X115620458Y-135095127D01*
X115595322Y-135101957D01*
X115494130Y-135149577D01*
X115488072Y-135155677D01*
X115479896Y-135158333D01*
X115462465Y-135177688D01*
X115402941Y-135272926D01*
X115402244Y-135276202D01*
X115399790Y-135278481D01*
X115392120Y-135303374D01*
X115376523Y-135428152D01*
X115299875Y-135428152D01*
X115251666Y-135445699D01*
X115226014Y-135490128D01*
X115178666Y-135490128D01*
X115174350Y-135465652D01*
X115135050Y-135432675D01*
X115109398Y-135428152D01*
X115014160Y-135428152D01*
X115010810Y-135429371D01*
X115007362Y-135428460D01*
X114982226Y-135435290D01*
X114890349Y-135478526D01*
X114886673Y-135462442D01*
X114845769Y-135431477D01*
X114794530Y-135434050D01*
X114756933Y-135468957D01*
X114749263Y-135493850D01*
X114665929Y-136160516D01*
X114331385Y-136160516D01*
X114338196Y-136153657D01*
X114342489Y-136102534D01*
X114312915Y-136060613D01*
X114263314Y-136047508D01*
X114238177Y-136054338D01*
X114152157Y-136094819D01*
X113997194Y-136094819D01*
X113949441Y-136069350D01*
X113930158Y-136017927D01*
X113944937Y-135899693D01*
X114379714Y-135814859D01*
X114386543Y-135810748D01*
X114394504Y-135810349D01*
X114407950Y-135797864D01*
X114423670Y-135788404D01*
X114426259Y-135780866D01*
X114432101Y-135775443D01*
X114439771Y-135750550D01*
X114451676Y-135655312D01*
X114450510Y-135650214D01*
X114452252Y-135645282D01*
X114447480Y-135619675D01*
X114411766Y-135524437D01*
X114402603Y-135513730D01*
X114397341Y-135500657D01*
X114379369Y-135486579D01*
X114378409Y-135485458D01*
X114377809Y-135485358D01*
X114376835Y-135484595D01*
X114287549Y-135436975D01*
X114282112Y-135436204D01*
X114277907Y-135432675D01*
X114252255Y-135428152D01*
X114061779Y-135428152D01*
X114058429Y-135429371D01*
X114054981Y-135428460D01*
X114029845Y-135435290D01*
X113928653Y-135482910D01*
X113922596Y-135489008D01*
X113914419Y-135491665D01*
X113896988Y-135511021D01*
X113837465Y-135606259D01*
X113836768Y-135609534D01*
X113834314Y-135611813D01*
X113826644Y-135636706D01*
X113779024Y-136017658D01*
X113780189Y-136022756D01*
X113778448Y-136027689D01*
X113410008Y-136027689D01*
X113406348Y-136017928D01*
X113461321Y-135578152D01*
X113633207Y-135578152D01*
X113681416Y-135560605D01*
X113707068Y-135516176D01*
X113698159Y-135465652D01*
X113658859Y-135432675D01*
X113633207Y-135428152D01*
X113480070Y-135428152D01*
X113511199Y-135179122D01*
X113499767Y-135129109D01*
X113458863Y-135098144D01*
X113407624Y-135100718D01*
X113370027Y-135135624D01*
X113362357Y-135160517D01*
X113328903Y-135428152D01*
X113252255Y-135428152D01*
X113204046Y-135445699D01*
X113178394Y-135490128D01*
X112907709Y-135490128D01*
X112903178Y-135486579D01*
X112902218Y-135485458D01*
X112901618Y-135485358D01*
X112900644Y-135484595D01*
X112811358Y-135436975D01*
X112805921Y-135436204D01*
X112801716Y-135432675D01*
X112776064Y-135428152D01*
X112633207Y-135428152D01*
X112629857Y-135429371D01*
X112626409Y-135428460D01*
X112601273Y-135435290D01*
X112549596Y-135459608D01*
X112512435Y-135431477D01*
X112461196Y-135434050D01*
X112423599Y-135468957D01*
X112415929Y-135493850D01*
X112332595Y-136160516D01*
X112007573Y-136160516D01*
X112130247Y-135179122D01*
X112118815Y-135129109D01*
X112077911Y-135098144D01*
X112026672Y-135100717D01*
X111989075Y-135135624D01*
X111981405Y-135160517D01*
X111856405Y-136160516D01*
X111713548Y-136160516D01*
X111713548Y-134904673D01*
X129713023Y-134904673D01*
X129713023Y-136387676D01*
G37*
X147923333Y-82367468D02*
X147875714Y-82415088D01*
X147875714Y-82415088D02*
X147732857Y-82462707D01*
X147732857Y-82462707D02*
X147637619Y-82462707D01*
X147637619Y-82462707D02*
X147494762Y-82415088D01*
X147494762Y-82415088D02*
X147399524Y-82319849D01*
X147399524Y-82319849D02*
X147351905Y-82224611D01*
X147351905Y-82224611D02*
X147304286Y-82034135D01*
X147304286Y-82034135D02*
X147304286Y-81891278D01*
X147304286Y-81891278D02*
X147351905Y-81700802D01*
X147351905Y-81700802D02*
X147399524Y-81605564D01*
X147399524Y-81605564D02*
X147494762Y-81510326D01*
X147494762Y-81510326D02*
X147637619Y-81462707D01*
X147637619Y-81462707D02*
X147732857Y-81462707D01*
X147732857Y-81462707D02*
X147875714Y-81510326D01*
X147875714Y-81510326D02*
X147923333Y-81557945D01*
X148399524Y-82462707D02*
X148590000Y-82462707D01*
X148590000Y-82462707D02*
X148685238Y-82415088D01*
X148685238Y-82415088D02*
X148732857Y-82367468D01*
X148732857Y-82367468D02*
X148828095Y-82224611D01*
X148828095Y-82224611D02*
X148875714Y-82034135D01*
X148875714Y-82034135D02*
X148875714Y-81653183D01*
X148875714Y-81653183D02*
X148828095Y-81557945D01*
X148828095Y-81557945D02*
X148780476Y-81510326D01*
X148780476Y-81510326D02*
X148685238Y-81462707D01*
X148685238Y-81462707D02*
X148494762Y-81462707D01*
X148494762Y-81462707D02*
X148399524Y-81510326D01*
X148399524Y-81510326D02*
X148351905Y-81557945D01*
X148351905Y-81557945D02*
X148304286Y-81653183D01*
X148304286Y-81653183D02*
X148304286Y-81891278D01*
X148304286Y-81891278D02*
X148351905Y-81986516D01*
X148351905Y-81986516D02*
X148399524Y-82034135D01*
X148399524Y-82034135D02*
X148494762Y-82081754D01*
X148494762Y-82081754D02*
X148685238Y-82081754D01*
X148685238Y-82081754D02*
X148780476Y-82034135D01*
X148780476Y-82034135D02*
X148828095Y-81986516D01*
X148828095Y-81986516D02*
X148875714Y-81891278D01*
X132867142Y-78201691D02*
X132819523Y-78249311D01*
X132819523Y-78249311D02*
X132676666Y-78296930D01*
X132676666Y-78296930D02*
X132581428Y-78296930D01*
X132581428Y-78296930D02*
X132438571Y-78249311D01*
X132438571Y-78249311D02*
X132343333Y-78154072D01*
X132343333Y-78154072D02*
X132295714Y-78058834D01*
X132295714Y-78058834D02*
X132248095Y-77868358D01*
X132248095Y-77868358D02*
X132248095Y-77725501D01*
X132248095Y-77725501D02*
X132295714Y-77535025D01*
X132295714Y-77535025D02*
X132343333Y-77439787D01*
X132343333Y-77439787D02*
X132438571Y-77344549D01*
X132438571Y-77344549D02*
X132581428Y-77296930D01*
X132581428Y-77296930D02*
X132676666Y-77296930D01*
X132676666Y-77296930D02*
X132819523Y-77344549D01*
X132819523Y-77344549D02*
X132867142Y-77392168D01*
X133819523Y-78296930D02*
X133248095Y-78296930D01*
X133533809Y-78296930D02*
X133533809Y-77296930D01*
X133533809Y-77296930D02*
X133438571Y-77439787D01*
X133438571Y-77439787D02*
X133343333Y-77535025D01*
X133343333Y-77535025D02*
X133248095Y-77582644D01*
X134771904Y-78296930D02*
X134200476Y-78296930D01*
X134486190Y-78296930D02*
X134486190Y-77296930D01*
X134486190Y-77296930D02*
X134390952Y-77439787D01*
X134390952Y-77439787D02*
X134295714Y-77535025D01*
X134295714Y-77535025D02*
X134200476Y-77582644D01*
X143213333Y-86257468D02*
X143165714Y-86305088D01*
X143165714Y-86305088D02*
X143022857Y-86352707D01*
X143022857Y-86352707D02*
X142927619Y-86352707D01*
X142927619Y-86352707D02*
X142784762Y-86305088D01*
X142784762Y-86305088D02*
X142689524Y-86209849D01*
X142689524Y-86209849D02*
X142641905Y-86114611D01*
X142641905Y-86114611D02*
X142594286Y-85924135D01*
X142594286Y-85924135D02*
X142594286Y-85781278D01*
X142594286Y-85781278D02*
X142641905Y-85590802D01*
X142641905Y-85590802D02*
X142689524Y-85495564D01*
X142689524Y-85495564D02*
X142784762Y-85400326D01*
X142784762Y-85400326D02*
X142927619Y-85352707D01*
X142927619Y-85352707D02*
X143022857Y-85352707D01*
X143022857Y-85352707D02*
X143165714Y-85400326D01*
X143165714Y-85400326D02*
X143213333Y-85447945D01*
X144070476Y-85352707D02*
X143880000Y-85352707D01*
X143880000Y-85352707D02*
X143784762Y-85400326D01*
X143784762Y-85400326D02*
X143737143Y-85447945D01*
X143737143Y-85447945D02*
X143641905Y-85590802D01*
X143641905Y-85590802D02*
X143594286Y-85781278D01*
X143594286Y-85781278D02*
X143594286Y-86162230D01*
X143594286Y-86162230D02*
X143641905Y-86257468D01*
X143641905Y-86257468D02*
X143689524Y-86305088D01*
X143689524Y-86305088D02*
X143784762Y-86352707D01*
X143784762Y-86352707D02*
X143975238Y-86352707D01*
X143975238Y-86352707D02*
X144070476Y-86305088D01*
X144070476Y-86305088D02*
X144118095Y-86257468D01*
X144118095Y-86257468D02*
X144165714Y-86162230D01*
X144165714Y-86162230D02*
X144165714Y-85924135D01*
X144165714Y-85924135D02*
X144118095Y-85828897D01*
X144118095Y-85828897D02*
X144070476Y-85781278D01*
X144070476Y-85781278D02*
X143975238Y-85733659D01*
X143975238Y-85733659D02*
X143784762Y-85733659D01*
X143784762Y-85733659D02*
X143689524Y-85781278D01*
X143689524Y-85781278D02*
X143641905Y-85828897D01*
X143641905Y-85828897D02*
X143594286Y-85924135D01*
X143213333Y-89197468D02*
X143165714Y-89245088D01*
X143165714Y-89245088D02*
X143022857Y-89292707D01*
X143022857Y-89292707D02*
X142927619Y-89292707D01*
X142927619Y-89292707D02*
X142784762Y-89245088D01*
X142784762Y-89245088D02*
X142689524Y-89149849D01*
X142689524Y-89149849D02*
X142641905Y-89054611D01*
X142641905Y-89054611D02*
X142594286Y-88864135D01*
X142594286Y-88864135D02*
X142594286Y-88721278D01*
X142594286Y-88721278D02*
X142641905Y-88530802D01*
X142641905Y-88530802D02*
X142689524Y-88435564D01*
X142689524Y-88435564D02*
X142784762Y-88340326D01*
X142784762Y-88340326D02*
X142927619Y-88292707D01*
X142927619Y-88292707D02*
X143022857Y-88292707D01*
X143022857Y-88292707D02*
X143165714Y-88340326D01*
X143165714Y-88340326D02*
X143213333Y-88387945D01*
X144118095Y-88292707D02*
X143641905Y-88292707D01*
X143641905Y-88292707D02*
X143594286Y-88768897D01*
X143594286Y-88768897D02*
X143641905Y-88721278D01*
X143641905Y-88721278D02*
X143737143Y-88673659D01*
X143737143Y-88673659D02*
X143975238Y-88673659D01*
X143975238Y-88673659D02*
X144070476Y-88721278D01*
X144070476Y-88721278D02*
X144118095Y-88768897D01*
X144118095Y-88768897D02*
X144165714Y-88864135D01*
X144165714Y-88864135D02*
X144165714Y-89102230D01*
X144165714Y-89102230D02*
X144118095Y-89197468D01*
X144118095Y-89197468D02*
X144070476Y-89245088D01*
X144070476Y-89245088D02*
X143975238Y-89292707D01*
X143975238Y-89292707D02*
X143737143Y-89292707D01*
X143737143Y-89292707D02*
X143641905Y-89245088D01*
X143641905Y-89245088D02*
X143594286Y-89197468D01*
X188538095Y-133454819D02*
X188538095Y-132454819D01*
X188538095Y-132931009D02*
X189109523Y-132931009D01*
X189109523Y-133454819D02*
X189109523Y-132454819D01*
X190014285Y-132788152D02*
X190014285Y-133454819D01*
X189776190Y-132407200D02*
X189538095Y-133121485D01*
X189538095Y-133121485D02*
X190157142Y-133121485D01*
X147716667Y-122209311D02*
X147859524Y-122256930D01*
X147859524Y-122256930D02*
X148097619Y-122256930D01*
X148097619Y-122256930D02*
X148192857Y-122209311D01*
X148192857Y-122209311D02*
X148240476Y-122161691D01*
X148240476Y-122161691D02*
X148288095Y-122066453D01*
X148288095Y-122066453D02*
X148288095Y-121971215D01*
X148288095Y-121971215D02*
X148240476Y-121875977D01*
X148240476Y-121875977D02*
X148192857Y-121828358D01*
X148192857Y-121828358D02*
X148097619Y-121780739D01*
X148097619Y-121780739D02*
X147907143Y-121733120D01*
X147907143Y-121733120D02*
X147811905Y-121685501D01*
X147811905Y-121685501D02*
X147764286Y-121637882D01*
X147764286Y-121637882D02*
X147716667Y-121542644D01*
X147716667Y-121542644D02*
X147716667Y-121447406D01*
X147716667Y-121447406D02*
X147764286Y-121352168D01*
X147764286Y-121352168D02*
X147811905Y-121304549D01*
X147811905Y-121304549D02*
X147907143Y-121256930D01*
X147907143Y-121256930D02*
X148145238Y-121256930D01*
X148145238Y-121256930D02*
X148288095Y-121304549D01*
X148621429Y-121256930D02*
X148859524Y-122256930D01*
X148859524Y-122256930D02*
X149050000Y-121542644D01*
X149050000Y-121542644D02*
X149240476Y-122256930D01*
X149240476Y-122256930D02*
X149478572Y-121256930D01*
X150288095Y-121590263D02*
X150288095Y-122256930D01*
X150050000Y-121209311D02*
X149811905Y-121923596D01*
X149811905Y-121923596D02*
X150430952Y-121923596D01*
X100838095Y-127354819D02*
X100838095Y-126354819D01*
X100838095Y-126831009D02*
X101409523Y-126831009D01*
X101409523Y-127354819D02*
X101409523Y-126354819D01*
X101790476Y-126354819D02*
X102409523Y-126354819D01*
X102409523Y-126354819D02*
X102076190Y-126735771D01*
X102076190Y-126735771D02*
X102219047Y-126735771D01*
X102219047Y-126735771D02*
X102314285Y-126783390D01*
X102314285Y-126783390D02*
X102361904Y-126831009D01*
X102361904Y-126831009D02*
X102409523Y-126926247D01*
X102409523Y-126926247D02*
X102409523Y-127164342D01*
X102409523Y-127164342D02*
X102361904Y-127259580D01*
X102361904Y-127259580D02*
X102314285Y-127307200D01*
X102314285Y-127307200D02*
X102219047Y-127354819D01*
X102219047Y-127354819D02*
X101933333Y-127354819D01*
X101933333Y-127354819D02*
X101838095Y-127307200D01*
X101838095Y-127307200D02*
X101790476Y-127259580D01*
X171966667Y-106149311D02*
X172109524Y-106196930D01*
X172109524Y-106196930D02*
X172347619Y-106196930D01*
X172347619Y-106196930D02*
X172442857Y-106149311D01*
X172442857Y-106149311D02*
X172490476Y-106101691D01*
X172490476Y-106101691D02*
X172538095Y-106006453D01*
X172538095Y-106006453D02*
X172538095Y-105911215D01*
X172538095Y-105911215D02*
X172490476Y-105815977D01*
X172490476Y-105815977D02*
X172442857Y-105768358D01*
X172442857Y-105768358D02*
X172347619Y-105720739D01*
X172347619Y-105720739D02*
X172157143Y-105673120D01*
X172157143Y-105673120D02*
X172061905Y-105625501D01*
X172061905Y-105625501D02*
X172014286Y-105577882D01*
X172014286Y-105577882D02*
X171966667Y-105482644D01*
X171966667Y-105482644D02*
X171966667Y-105387406D01*
X171966667Y-105387406D02*
X172014286Y-105292168D01*
X172014286Y-105292168D02*
X172061905Y-105244549D01*
X172061905Y-105244549D02*
X172157143Y-105196930D01*
X172157143Y-105196930D02*
X172395238Y-105196930D01*
X172395238Y-105196930D02*
X172538095Y-105244549D01*
X172871429Y-105196930D02*
X173109524Y-106196930D01*
X173109524Y-106196930D02*
X173300000Y-105482644D01*
X173300000Y-105482644D02*
X173490476Y-106196930D01*
X173490476Y-106196930D02*
X173728572Y-105196930D01*
X174633333Y-106196930D02*
X174061905Y-106196930D01*
X174347619Y-106196930D02*
X174347619Y-105196930D01*
X174347619Y-105196930D02*
X174252381Y-105339787D01*
X174252381Y-105339787D02*
X174157143Y-105435025D01*
X174157143Y-105435025D02*
X174061905Y-105482644D01*
X143143333Y-84167468D02*
X143095714Y-84215088D01*
X143095714Y-84215088D02*
X142952857Y-84262707D01*
X142952857Y-84262707D02*
X142857619Y-84262707D01*
X142857619Y-84262707D02*
X142714762Y-84215088D01*
X142714762Y-84215088D02*
X142619524Y-84119849D01*
X142619524Y-84119849D02*
X142571905Y-84024611D01*
X142571905Y-84024611D02*
X142524286Y-83834135D01*
X142524286Y-83834135D02*
X142524286Y-83691278D01*
X142524286Y-83691278D02*
X142571905Y-83500802D01*
X142571905Y-83500802D02*
X142619524Y-83405564D01*
X142619524Y-83405564D02*
X142714762Y-83310326D01*
X142714762Y-83310326D02*
X142857619Y-83262707D01*
X142857619Y-83262707D02*
X142952857Y-83262707D01*
X142952857Y-83262707D02*
X143095714Y-83310326D01*
X143095714Y-83310326D02*
X143143333Y-83357945D01*
X143476667Y-83262707D02*
X144143333Y-83262707D01*
X144143333Y-83262707D02*
X143714762Y-84262707D01*
X188538095Y-67254819D02*
X188538095Y-66254819D01*
X188538095Y-66731009D02*
X189109523Y-66731009D01*
X189109523Y-67254819D02*
X189109523Y-66254819D01*
X189538095Y-66350057D02*
X189585714Y-66302438D01*
X189585714Y-66302438D02*
X189680952Y-66254819D01*
X189680952Y-66254819D02*
X189919047Y-66254819D01*
X189919047Y-66254819D02*
X190014285Y-66302438D01*
X190014285Y-66302438D02*
X190061904Y-66350057D01*
X190061904Y-66350057D02*
X190109523Y-66445295D01*
X190109523Y-66445295D02*
X190109523Y-66540533D01*
X190109523Y-66540533D02*
X190061904Y-66683390D01*
X190061904Y-66683390D02*
X189490476Y-67254819D01*
X189490476Y-67254819D02*
X190109523Y-67254819D01*
X123486667Y-106139311D02*
X123629524Y-106186930D01*
X123629524Y-106186930D02*
X123867619Y-106186930D01*
X123867619Y-106186930D02*
X123962857Y-106139311D01*
X123962857Y-106139311D02*
X124010476Y-106091691D01*
X124010476Y-106091691D02*
X124058095Y-105996453D01*
X124058095Y-105996453D02*
X124058095Y-105901215D01*
X124058095Y-105901215D02*
X124010476Y-105805977D01*
X124010476Y-105805977D02*
X123962857Y-105758358D01*
X123962857Y-105758358D02*
X123867619Y-105710739D01*
X123867619Y-105710739D02*
X123677143Y-105663120D01*
X123677143Y-105663120D02*
X123581905Y-105615501D01*
X123581905Y-105615501D02*
X123534286Y-105567882D01*
X123534286Y-105567882D02*
X123486667Y-105472644D01*
X123486667Y-105472644D02*
X123486667Y-105377406D01*
X123486667Y-105377406D02*
X123534286Y-105282168D01*
X123534286Y-105282168D02*
X123581905Y-105234549D01*
X123581905Y-105234549D02*
X123677143Y-105186930D01*
X123677143Y-105186930D02*
X123915238Y-105186930D01*
X123915238Y-105186930D02*
X124058095Y-105234549D01*
X124391429Y-105186930D02*
X124629524Y-106186930D01*
X124629524Y-106186930D02*
X124820000Y-105472644D01*
X124820000Y-105472644D02*
X125010476Y-106186930D01*
X125010476Y-106186930D02*
X125248572Y-105186930D01*
X125581905Y-105282168D02*
X125629524Y-105234549D01*
X125629524Y-105234549D02*
X125724762Y-105186930D01*
X125724762Y-105186930D02*
X125962857Y-105186930D01*
X125962857Y-105186930D02*
X126058095Y-105234549D01*
X126058095Y-105234549D02*
X126105714Y-105282168D01*
X126105714Y-105282168D02*
X126153333Y-105377406D01*
X126153333Y-105377406D02*
X126153333Y-105472644D01*
X126153333Y-105472644D02*
X126105714Y-105615501D01*
X126105714Y-105615501D02*
X125534286Y-106186930D01*
X125534286Y-106186930D02*
X126153333Y-106186930D01*
X149753333Y-88407468D02*
X149705714Y-88455088D01*
X149705714Y-88455088D02*
X149562857Y-88502707D01*
X149562857Y-88502707D02*
X149467619Y-88502707D01*
X149467619Y-88502707D02*
X149324762Y-88455088D01*
X149324762Y-88455088D02*
X149229524Y-88359849D01*
X149229524Y-88359849D02*
X149181905Y-88264611D01*
X149181905Y-88264611D02*
X149134286Y-88074135D01*
X149134286Y-88074135D02*
X149134286Y-87931278D01*
X149134286Y-87931278D02*
X149181905Y-87740802D01*
X149181905Y-87740802D02*
X149229524Y-87645564D01*
X149229524Y-87645564D02*
X149324762Y-87550326D01*
X149324762Y-87550326D02*
X149467619Y-87502707D01*
X149467619Y-87502707D02*
X149562857Y-87502707D01*
X149562857Y-87502707D02*
X149705714Y-87550326D01*
X149705714Y-87550326D02*
X149753333Y-87597945D01*
X150324762Y-87931278D02*
X150229524Y-87883659D01*
X150229524Y-87883659D02*
X150181905Y-87836040D01*
X150181905Y-87836040D02*
X150134286Y-87740802D01*
X150134286Y-87740802D02*
X150134286Y-87693183D01*
X150134286Y-87693183D02*
X150181905Y-87597945D01*
X150181905Y-87597945D02*
X150229524Y-87550326D01*
X150229524Y-87550326D02*
X150324762Y-87502707D01*
X150324762Y-87502707D02*
X150515238Y-87502707D01*
X150515238Y-87502707D02*
X150610476Y-87550326D01*
X150610476Y-87550326D02*
X150658095Y-87597945D01*
X150658095Y-87597945D02*
X150705714Y-87693183D01*
X150705714Y-87693183D02*
X150705714Y-87740802D01*
X150705714Y-87740802D02*
X150658095Y-87836040D01*
X150658095Y-87836040D02*
X150610476Y-87883659D01*
X150610476Y-87883659D02*
X150515238Y-87931278D01*
X150515238Y-87931278D02*
X150324762Y-87931278D01*
X150324762Y-87931278D02*
X150229524Y-87978897D01*
X150229524Y-87978897D02*
X150181905Y-88026516D01*
X150181905Y-88026516D02*
X150134286Y-88121754D01*
X150134286Y-88121754D02*
X150134286Y-88312230D01*
X150134286Y-88312230D02*
X150181905Y-88407468D01*
X150181905Y-88407468D02*
X150229524Y-88455088D01*
X150229524Y-88455088D02*
X150324762Y-88502707D01*
X150324762Y-88502707D02*
X150515238Y-88502707D01*
X150515238Y-88502707D02*
X150610476Y-88455088D01*
X150610476Y-88455088D02*
X150658095Y-88407468D01*
X150658095Y-88407468D02*
X150705714Y-88312230D01*
X150705714Y-88312230D02*
X150705714Y-88121754D01*
X150705714Y-88121754D02*
X150658095Y-88026516D01*
X150658095Y-88026516D02*
X150610476Y-87978897D01*
X150610476Y-87978897D02*
X150515238Y-87931278D01*
X107838095Y-67254819D02*
X107838095Y-66254819D01*
X107838095Y-66731009D02*
X108409523Y-66731009D01*
X108409523Y-67254819D02*
X108409523Y-66254819D01*
X109409523Y-67254819D02*
X108838095Y-67254819D01*
X109123809Y-67254819D02*
X109123809Y-66254819D01*
X109123809Y-66254819D02*
X109028571Y-66397676D01*
X109028571Y-66397676D02*
X108933333Y-66492914D01*
X108933333Y-66492914D02*
X108838095Y-66540533D01*
X134313809Y-87476516D02*
X134313809Y-87952707D01*
X133980476Y-86952707D02*
X134313809Y-87476516D01*
X134313809Y-87476516D02*
X134647142Y-86952707D01*
X135504285Y-87952707D02*
X134932857Y-87952707D01*
X135218571Y-87952707D02*
X135218571Y-86952707D01*
X135218571Y-86952707D02*
X135123333Y-87095564D01*
X135123333Y-87095564D02*
X135028095Y-87190802D01*
X135028095Y-87190802D02*
X134932857Y-87238421D01*
X148606667Y-90079311D02*
X148749524Y-90126930D01*
X148749524Y-90126930D02*
X148987619Y-90126930D01*
X148987619Y-90126930D02*
X149082857Y-90079311D01*
X149082857Y-90079311D02*
X149130476Y-90031691D01*
X149130476Y-90031691D02*
X149178095Y-89936453D01*
X149178095Y-89936453D02*
X149178095Y-89841215D01*
X149178095Y-89841215D02*
X149130476Y-89745977D01*
X149130476Y-89745977D02*
X149082857Y-89698358D01*
X149082857Y-89698358D02*
X148987619Y-89650739D01*
X148987619Y-89650739D02*
X148797143Y-89603120D01*
X148797143Y-89603120D02*
X148701905Y-89555501D01*
X148701905Y-89555501D02*
X148654286Y-89507882D01*
X148654286Y-89507882D02*
X148606667Y-89412644D01*
X148606667Y-89412644D02*
X148606667Y-89317406D01*
X148606667Y-89317406D02*
X148654286Y-89222168D01*
X148654286Y-89222168D02*
X148701905Y-89174549D01*
X148701905Y-89174549D02*
X148797143Y-89126930D01*
X148797143Y-89126930D02*
X149035238Y-89126930D01*
X149035238Y-89126930D02*
X149178095Y-89174549D01*
X149511429Y-89126930D02*
X149749524Y-90126930D01*
X149749524Y-90126930D02*
X149940000Y-89412644D01*
X149940000Y-89412644D02*
X150130476Y-90126930D01*
X150130476Y-90126930D02*
X150368572Y-89126930D01*
X150654286Y-89126930D02*
X151273333Y-89126930D01*
X151273333Y-89126930D02*
X150940000Y-89507882D01*
X150940000Y-89507882D02*
X151082857Y-89507882D01*
X151082857Y-89507882D02*
X151178095Y-89555501D01*
X151178095Y-89555501D02*
X151225714Y-89603120D01*
X151225714Y-89603120D02*
X151273333Y-89698358D01*
X151273333Y-89698358D02*
X151273333Y-89936453D01*
X151273333Y-89936453D02*
X151225714Y-90031691D01*
X151225714Y-90031691D02*
X151178095Y-90079311D01*
X151178095Y-90079311D02*
X151082857Y-90126930D01*
X151082857Y-90126930D02*
X150797143Y-90126930D01*
X150797143Y-90126930D02*
X150701905Y-90079311D01*
X150701905Y-90079311D02*
X150654286Y-90031691D01*
X132867142Y-83081691D02*
X132819523Y-83129311D01*
X132819523Y-83129311D02*
X132676666Y-83176930D01*
X132676666Y-83176930D02*
X132581428Y-83176930D01*
X132581428Y-83176930D02*
X132438571Y-83129311D01*
X132438571Y-83129311D02*
X132343333Y-83034072D01*
X132343333Y-83034072D02*
X132295714Y-82938834D01*
X132295714Y-82938834D02*
X132248095Y-82748358D01*
X132248095Y-82748358D02*
X132248095Y-82605501D01*
X132248095Y-82605501D02*
X132295714Y-82415025D01*
X132295714Y-82415025D02*
X132343333Y-82319787D01*
X132343333Y-82319787D02*
X132438571Y-82224549D01*
X132438571Y-82224549D02*
X132581428Y-82176930D01*
X132581428Y-82176930D02*
X132676666Y-82176930D01*
X132676666Y-82176930D02*
X132819523Y-82224549D01*
X132819523Y-82224549D02*
X132867142Y-82272168D01*
X133819523Y-83176930D02*
X133248095Y-83176930D01*
X133533809Y-83176930D02*
X133533809Y-82176930D01*
X133533809Y-82176930D02*
X133438571Y-82319787D01*
X133438571Y-82319787D02*
X133343333Y-82415025D01*
X133343333Y-82415025D02*
X133248095Y-82462644D01*
X134200476Y-82272168D02*
X134248095Y-82224549D01*
X134248095Y-82224549D02*
X134343333Y-82176930D01*
X134343333Y-82176930D02*
X134581428Y-82176930D01*
X134581428Y-82176930D02*
X134676666Y-82224549D01*
X134676666Y-82224549D02*
X134724285Y-82272168D01*
X134724285Y-82272168D02*
X134771904Y-82367406D01*
X134771904Y-82367406D02*
X134771904Y-82462644D01*
X134771904Y-82462644D02*
X134724285Y-82605501D01*
X134724285Y-82605501D02*
X134152857Y-83176930D01*
X134152857Y-83176930D02*
X134771904Y-83176930D01*
D12*
%TO.C,C9*%
X149295000Y-83403363D02*
X149295000Y-82880859D01*
X150765000Y-83403363D02*
X150765000Y-82880859D01*
%TO.C,C11*%
X133248748Y-78787111D02*
X133771252Y-78787111D01*
X133248748Y-80257111D02*
X133771252Y-80257111D01*
%TO.C,C6*%
X146541252Y-87027111D02*
X146018748Y-87027111D01*
X146541252Y-85557111D02*
X146018748Y-85557111D01*
%TO.C,C5*%
X146541252Y-89867111D02*
X146018748Y-89867111D01*
X146541252Y-88397111D02*
X146018748Y-88397111D01*
%TO.C,SW4*%
X142800000Y-122812111D02*
X155100000Y-122812111D01*
X142800000Y-124932111D02*
X142800000Y-122812111D01*
X142800000Y-129932111D02*
X142800000Y-127992111D01*
X142800000Y-135112111D02*
X142800000Y-132992111D01*
X155100000Y-122812111D02*
X155100000Y-124932111D01*
X155100000Y-127992111D02*
X155100000Y-129932111D01*
X155100000Y-132992111D02*
X155100000Y-135112111D01*
X155100000Y-135112111D02*
X142800000Y-135112111D01*
X153629050Y-129002111D02*
G75*
G03*
X153629050Y-129002111I-4579050J0D01*
G01*
%TO.C,SW1*%
X167050000Y-106752111D02*
X179350000Y-106752111D01*
X167050000Y-108872111D02*
X167050000Y-106752111D01*
X167050000Y-113872111D02*
X167050000Y-111932111D01*
X167050000Y-119052111D02*
X167050000Y-116932111D01*
X179350000Y-106752111D02*
X179350000Y-108872111D01*
X179350000Y-111932111D02*
X179350000Y-113872111D01*
X179350000Y-116932111D02*
X179350000Y-119052111D01*
X179350000Y-119052111D02*
X167050000Y-119052111D01*
X177879050Y-112942111D02*
G75*
G03*
X177879050Y-112942111I-4579050J0D01*
G01*
%TO.C,C7*%
X146541252Y-84947111D02*
X146018748Y-84947111D01*
X146541252Y-83477111D02*
X146018748Y-83477111D01*
%TO.C,SW2*%
X118570000Y-106742111D02*
X130870000Y-106742111D01*
X118570000Y-108862111D02*
X118570000Y-106742111D01*
X118570000Y-113862111D02*
X118570000Y-111922111D01*
X118570000Y-119042111D02*
X118570000Y-116922111D01*
X130870000Y-106742111D02*
X130870000Y-108862111D01*
X130870000Y-111922111D02*
X130870000Y-113862111D01*
X130870000Y-116922111D02*
X130870000Y-119042111D01*
X130870000Y-119042111D02*
X118570000Y-119042111D01*
X129399050Y-112932111D02*
G75*
G03*
X129399050Y-112932111I-4579050J0D01*
G01*
%TO.C,C8*%
X150718748Y-85557111D02*
X151241252Y-85557111D01*
X150718748Y-87027111D02*
X151241252Y-87027111D01*
%TO.C,Y1*%
X141055000Y-78772111D02*
X141055000Y-85172111D01*
X136005000Y-78772111D02*
X136005000Y-85172111D01*
X141055000Y-78772111D02*
G75*
G03*
X136005000Y-78772111I-2525000J0D01*
G01*
X136005000Y-85172111D02*
G75*
G03*
X141055000Y-85172111I2525000J0D01*
G01*
%TO.C,SW3*%
X142800000Y-90682111D02*
X155100000Y-90682111D01*
X142800000Y-92802111D02*
X142800000Y-90682111D01*
X142800000Y-97802111D02*
X142800000Y-95862111D01*
X142800000Y-102982111D02*
X142800000Y-100862111D01*
X155100000Y-90682111D02*
X155100000Y-92802111D01*
X155100000Y-95862111D02*
X155100000Y-97802111D01*
X155100000Y-100862111D02*
X155100000Y-102982111D01*
X155100000Y-102982111D02*
X142800000Y-102982111D01*
X153629050Y-96872111D02*
G75*
G03*
X153629050Y-96872111I-4579050J0D01*
G01*
%TO.C,C12*%
X133248748Y-83667111D02*
X133771252Y-83667111D01*
X133248748Y-85137111D02*
X133771252Y-85137111D01*
%TD*%
M02*
