%TF.GenerationSoftware,KiCad,Pcbnew,7.0.9*%
%TF.CreationDate,2024-02-19T11:32:55-03:00*%
%TF.ProjectId,iSTF,69535446-2e6b-4696-9361-645f70636258,rev?*%
%TF.SameCoordinates,Original*%
%TF.FileFunction,Paste,Bot*%
%TF.FilePolarity,Positive*%
%FSLAX46Y46*%
G04 Gerber Fmt 4.6, Leading zero omitted, Abs format (unit mm)*
G04 Created by KiCad (PCBNEW 7.0.9) date 2024-02-19 11:32:55*
%MOMM*%
%LPD*%
G01*
G04 APERTURE LIST*
G04 Aperture macros list*
%AMRoundRect*
0 Rectangle with rounded corners*
0 $1 Rounding radius*
0 $2 $3 $4 $5 $6 $7 $8 $9 X,Y pos of 4 corners*
0 Add a 4 corners polygon primitive as box body*
4,1,4,$2,$3,$4,$5,$6,$7,$8,$9,$2,$3,0*
0 Add four circle primitives for the rounded corners*
1,1,$1+$1,$2,$3*
1,1,$1+$1,$4,$5*
1,1,$1+$1,$6,$7*
1,1,$1+$1,$8,$9*
0 Add four rect primitives between the rounded corners*
20,1,$1+$1,$2,$3,$4,$5,0*
20,1,$1+$1,$4,$5,$6,$7,0*
20,1,$1+$1,$6,$7,$8,$9,0*
20,1,$1+$1,$8,$9,$2,$3,0*%
G04 Aperture macros list end*
%ADD10RoundRect,0.250000X0.450000X-0.350000X0.450000X0.350000X-0.450000X0.350000X-0.450000X-0.350000X0*%
%ADD11RoundRect,0.250000X0.350000X0.450000X-0.350000X0.450000X-0.350000X-0.450000X0.350000X-0.450000X0*%
%ADD12RoundRect,0.150000X-0.150000X0.587500X-0.150000X-0.587500X0.150000X-0.587500X0.150000X0.587500X0*%
%ADD13R,1.300000X1.900000*%
%ADD14RoundRect,0.250000X-0.350000X-0.450000X0.350000X-0.450000X0.350000X0.450000X-0.350000X0.450000X0*%
%ADD15RoundRect,0.250000X-0.650000X1.000000X-0.650000X-1.000000X0.650000X-1.000000X0.650000X1.000000X0*%
%ADD16RoundRect,0.250000X0.337500X0.475000X-0.337500X0.475000X-0.337500X-0.475000X0.337500X-0.475000X0*%
%ADD17RoundRect,0.075000X-0.662500X-0.075000X0.662500X-0.075000X0.662500X0.075000X-0.662500X0.075000X0*%
%ADD18RoundRect,0.075000X-0.075000X-0.662500X0.075000X-0.662500X0.075000X0.662500X-0.075000X0.662500X0*%
%ADD19RoundRect,0.250000X-0.475000X0.337500X-0.475000X-0.337500X0.475000X-0.337500X0.475000X0.337500X0*%
%ADD20RoundRect,0.250000X0.262500X0.450000X-0.262500X0.450000X-0.262500X-0.450000X0.262500X-0.450000X0*%
%ADD21RoundRect,0.250000X-0.337500X-0.475000X0.337500X-0.475000X0.337500X0.475000X-0.337500X0.475000X0*%
%ADD22RoundRect,0.250000X0.650000X-1.000000X0.650000X1.000000X-0.650000X1.000000X-0.650000X-1.000000X0*%
%ADD23R,2.000000X1.500000*%
%ADD24R,2.000000X3.800000*%
%ADD25RoundRect,0.250000X1.000000X0.650000X-1.000000X0.650000X-1.000000X-0.650000X1.000000X-0.650000X0*%
%ADD26R,2.000000X3.000000*%
%ADD27RoundRect,0.150000X-0.825000X-0.150000X0.825000X-0.150000X0.825000X0.150000X-0.825000X0.150000X0*%
%ADD28RoundRect,0.250000X-0.450000X0.350000X-0.450000X-0.350000X0.450000X-0.350000X0.450000X0.350000X0*%
%ADD29RoundRect,0.250000X0.475000X-0.337500X0.475000X0.337500X-0.475000X0.337500X-0.475000X-0.337500X0*%
%ADD30RoundRect,0.250000X-0.450000X0.325000X-0.450000X-0.325000X0.450000X-0.325000X0.450000X0.325000X0*%
%ADD31RoundRect,0.150000X0.150000X-0.825000X0.150000X0.825000X-0.150000X0.825000X-0.150000X-0.825000X0*%
%ADD32RoundRect,0.250000X0.450000X-0.325000X0.450000X0.325000X-0.450000X0.325000X-0.450000X-0.325000X0*%
G04 APERTURE END LIST*
D10*
%TO.C,R1*%
X141610000Y-80462111D03*
X141610000Y-78462111D03*
%TD*%
D11*
%TO.C,R14*%
X102350000Y-105082111D03*
X100350000Y-105082111D03*
%TD*%
D12*
%TO.C,Q1*%
X100350000Y-108394611D03*
X102250000Y-108394611D03*
X101300000Y-110269611D03*
%TD*%
D13*
%TO.C,Y2*%
X135610000Y-74032111D03*
X130110000Y-74032111D03*
X130110000Y-70832111D03*
X135610000Y-70832111D03*
%TD*%
D14*
%TO.C,R3*%
X194000000Y-87925000D03*
X196000000Y-87925000D03*
%TD*%
%TO.C,R13*%
X134300000Y-96042111D03*
X136300000Y-96042111D03*
%TD*%
D15*
%TO.C,D8*%
X178000000Y-79292111D03*
X178000000Y-83292111D03*
%TD*%
D10*
%TO.C,R4*%
X165440000Y-130872111D03*
X165440000Y-128872111D03*
%TD*%
D16*
%TO.C,C16*%
X174667500Y-113422111D03*
X172592500Y-113422111D03*
%TD*%
D17*
%TO.C,U2*%
X144467500Y-86420388D03*
X144467500Y-85920388D03*
X144467500Y-85420388D03*
X144467500Y-84920388D03*
X144467500Y-84420388D03*
X144467500Y-83920388D03*
X144467500Y-83420388D03*
X144467500Y-82920388D03*
X144467500Y-82420388D03*
X144467500Y-81920388D03*
X144467500Y-81420388D03*
X144467500Y-80920388D03*
D18*
X145880000Y-79507888D03*
X146380000Y-79507888D03*
X146880000Y-79507888D03*
X147380000Y-79507888D03*
X147880000Y-79507888D03*
X148380000Y-79507888D03*
X148880000Y-79507888D03*
X149380000Y-79507888D03*
X149880000Y-79507888D03*
X150380000Y-79507888D03*
X150880000Y-79507888D03*
X151380000Y-79507888D03*
D17*
X152792500Y-80920388D03*
X152792500Y-81420388D03*
X152792500Y-81920388D03*
X152792500Y-82420388D03*
X152792500Y-82920388D03*
X152792500Y-83420388D03*
X152792500Y-83920388D03*
X152792500Y-84420388D03*
X152792500Y-84920388D03*
X152792500Y-85420388D03*
X152792500Y-85920388D03*
X152792500Y-86420388D03*
D18*
X151380000Y-87832888D03*
X150880000Y-87832888D03*
X150380000Y-87832888D03*
X149880000Y-87832888D03*
X149380000Y-87832888D03*
X148880000Y-87832888D03*
X148380000Y-87832888D03*
X147880000Y-87832888D03*
X147380000Y-87832888D03*
X146880000Y-87832888D03*
X146380000Y-87832888D03*
X145880000Y-87832888D03*
%TD*%
D19*
%TO.C,C14*%
X126970000Y-71914611D03*
X126970000Y-73989611D03*
%TD*%
D20*
%TO.C,TH1*%
X182752500Y-86792111D03*
X180927500Y-86792111D03*
%TD*%
D21*
%TO.C,C19*%
X147662500Y-129472111D03*
X149737500Y-129472111D03*
%TD*%
D22*
%TO.C,D6*%
X178000000Y-90802111D03*
X178000000Y-86802111D03*
%TD*%
D21*
%TO.C,C17*%
X123442500Y-113402111D03*
X125517500Y-113402111D03*
%TD*%
D11*
%TO.C,R16*%
X174670000Y-83312111D03*
X172670000Y-83312111D03*
%TD*%
%TO.C,R15*%
X174670000Y-86802111D03*
X172670000Y-86802111D03*
%TD*%
D23*
%TO.C,U3*%
X179190000Y-133202111D03*
X179190000Y-130902111D03*
D24*
X185490000Y-130902111D03*
D23*
X179190000Y-128602111D03*
%TD*%
D25*
%TO.C,D1*%
X194100000Y-106400000D03*
X190100000Y-106400000D03*
%TD*%
D14*
%TO.C,R2*%
X194000000Y-85425000D03*
X196000000Y-85425000D03*
%TD*%
D22*
%TO.C,D2*%
X129500000Y-83499611D03*
X129500000Y-79499611D03*
%TD*%
D26*
%TO.C,J5*%
X196100000Y-110400000D03*
X190100000Y-110400000D03*
X190100000Y-121400000D03*
X196100000Y-121400000D03*
%TD*%
D15*
%TO.C,D3*%
X129460000Y-87492111D03*
X129460000Y-91492111D03*
%TD*%
D10*
%TO.C,R7*%
X127490000Y-115392111D03*
X127490000Y-113392111D03*
%TD*%
%TO.C,R8*%
X142720000Y-106432111D03*
X142720000Y-104432111D03*
%TD*%
D27*
%TO.C,U5*%
X164665000Y-86937111D03*
X164665000Y-85667111D03*
X164665000Y-84397111D03*
X164665000Y-83127111D03*
X169615000Y-83127111D03*
X169615000Y-84397111D03*
X169615000Y-85667111D03*
X169615000Y-86937111D03*
%TD*%
D19*
%TO.C,C20*%
X138740000Y-97084611D03*
X138740000Y-99159611D03*
%TD*%
D28*
%TO.C,R6*%
X126000000Y-103700000D03*
X126000000Y-105700000D03*
%TD*%
D21*
%TO.C,C2*%
X177062500Y-124400000D03*
X179137500Y-124400000D03*
%TD*%
D29*
%TO.C,C4*%
X173210000Y-132969611D03*
X173210000Y-130894611D03*
%TD*%
D19*
%TO.C,C13*%
X138720000Y-71934611D03*
X138720000Y-74009611D03*
%TD*%
D10*
%TO.C,R5*%
X170640000Y-115412111D03*
X170640000Y-113412111D03*
%TD*%
D29*
%TO.C,C3*%
X175690000Y-132979611D03*
X175690000Y-130904611D03*
%TD*%
D30*
%TO.C,D4*%
X198800000Y-83375000D03*
X198800000Y-85425000D03*
%TD*%
D20*
%TO.C,TH2*%
X182732500Y-83302111D03*
X180907500Y-83302111D03*
%TD*%
D11*
%TO.C,R12*%
X132420000Y-96042111D03*
X130420000Y-96042111D03*
%TD*%
D10*
%TO.C,R10*%
X162720000Y-130912111D03*
X162720000Y-128912111D03*
%TD*%
%TO.C,R9*%
X151700000Y-99342111D03*
X151700000Y-97342111D03*
%TD*%
D31*
%TO.C,U1*%
X136505000Y-104117111D03*
X135235000Y-104117111D03*
X133965000Y-104117111D03*
X132695000Y-104117111D03*
X132695000Y-99167111D03*
X133965000Y-99167111D03*
X135235000Y-99167111D03*
X136505000Y-99167111D03*
%TD*%
D21*
%TO.C,C18*%
X147662500Y-97342111D03*
X149737500Y-97342111D03*
%TD*%
D32*
%TO.C,D5*%
X198800000Y-89950000D03*
X198800000Y-87900000D03*
%TD*%
D21*
%TO.C,C15*%
X139102500Y-90742111D03*
X141177500Y-90742111D03*
%TD*%
%TO.C,C10*%
X165102500Y-80242111D03*
X167177500Y-80242111D03*
%TD*%
D10*
%TO.C,R11*%
X151700000Y-131472111D03*
X151700000Y-129472111D03*
%TD*%
M02*
