M48
; DRILL file {KiCad 7.0.9} date Mon Feb 19 11:33:05 2024
; FORMAT={-:-/ absolute / inch / decimal}
; #@! TF.CreationDate,2024-02-19T11:33:05-03:00
; #@! TF.GenerationSoftware,Kicad,Pcbnew,7.0.9
; #@! TF.FileFunction,Plated,1,2,PTH
FMAT,2
INCH
; #@! TA.AperFunction,Plated,PTH,ViaDrill
T1C0.0098
; #@! TA.AperFunction,Plated,PTH,ViaDrill
T2C0.0157
; #@! TA.AperFunction,Plated,PTH,ComponentDrill
T3C0.0315
; #@! TA.AperFunction,Plated,PTH,ComponentDrill
T4C0.0394
; #@! TA.AperFunction,Plated,PTH,ComponentDrill
T5C0.0472
; #@! TA.AperFunction,Plated,PTH,ComponentDrill
T6C0.0512
; #@! TA.AperFunction,Plated,PTH,ComponentDrill
T7C0.0551
; #@! TA.AperFunction,Plated,PTH,ComponentDrill
T8C0.1693
%
G90
G05
T1
X4.0882Y-4.2676
X4.1358Y-3.5137
X4.3386Y-3.9055
X4.4Y-2.744
X4.5378Y-4.3464
X4.7008Y-3.706
X4.9969Y-2.7546
X5.0283Y-4.346
X5.0906Y-3.706
X5.1469Y-4.0995
X5.324Y-3.9645
X5.4118Y-3.5743
X5.4181Y-2.7645
X5.4642Y-3.7145
X5.465Y-4.9783
X5.6177Y-3.245
X5.6362Y-3.4552
X5.6563Y-2.932
X5.6866Y-2.9316
X5.7177Y-2.9321
X5.7483Y-2.9322
X5.7752Y-3.7133
X5.779Y-2.9323
X5.8094Y-5.0196
X5.8097Y-2.9324
X5.8406Y-2.9324
X5.8508Y-3.3161
X5.8508Y-3.3968
X5.9543Y-3.1897
X5.9594Y-3.0355
X5.9614Y-3.7125
X6.015Y-3.4627
X6.1035Y-3.4653
X6.2012Y-3.3721
X6.2594Y-4.9775
X6.3287Y-3.3721
X6.3657Y-3.2253
X6.3787Y-3.7129
X6.4307Y-3.1263
X6.6776Y-3.1861
X6.8689Y-5.3023
X6.9685Y-4.8071
X7.0091Y-3.0338
X7.0106Y-3.6814
X7.4083Y-4.8007
X7.626Y-3.9885
X7.8264Y-3.6051
X7.8268Y-3.2215
T2
X4.6063Y-3.6142
X4.9256Y-3.6143
X5.2177Y-3.2291
X5.7209Y-4.1895
X6.6819Y-5.1528
T3
X4.5795Y-2.6496
X4.6795Y-2.8496
X4.7795Y-2.6496
X5.4539Y-3.1312
X5.4539Y-3.3233
X7.1419Y-4.8031
X7.2404Y-4.8031
T4
X4.1457Y-4.5013
X4.1457Y-4.8005
X5.1339Y-2.5948
X5.2339Y-2.5948
X5.3339Y-2.5948
X5.4339Y-2.5948
X5.5339Y-2.5948
X5.6339Y-2.5948
X5.7339Y-2.5948
X5.8339Y-2.5948
X5.9339Y-2.5948
X6.0339Y-2.5948
X6.1339Y-2.5948
X6.2339Y-2.5948
X6.3339Y-2.5948
X6.3783Y-3.615
X6.4339Y-2.5948
X6.4783Y-3.615
X6.5339Y-2.5948
X6.5783Y-3.615
X6.6339Y-2.5948
X6.6783Y-3.615
T5
X4.6642Y-4.3461
X4.6642Y-4.543
X5.1563Y-4.3461
X5.1563Y-4.543
X5.6181Y-3.7139
X5.6181Y-3.9107
X5.6181Y-4.9788
X5.6181Y-5.1757
X6.1102Y-3.7139
X6.1102Y-3.9107
X6.1102Y-4.9788
X6.1102Y-5.1757
X6.5728Y-4.3465
X6.5728Y-4.5434
X7.065Y-4.3465
X7.065Y-4.5434
T6
X4.4646Y-3.0595
X4.4646Y-3.8469
T7
X7.1949Y-3.8189
X7.1949Y-3.9843
X7.4114Y-3.8189
X7.4114Y-3.9843
T8
X4.0Y-5.2362
X4.0039Y-2.6299
X7.7244Y-5.2402
X7.7283Y-2.6299
T0
M30
